<svg width="43" height="26" viewBox="0 0 43 26" fill="none" xmlns="http://www.w3.org/2000/svg">
<rect width="43" height="26" rx="4" fill="#ECEFF4"/>
<path d="M16.0859 13.0001C16.0859 14.074 15.892 15.002 15.5043 15.7842C15.1165 16.5664 14.5845 17.1696 13.9084 17.5939C13.2322 18.0181 12.46 18.2302 11.5916 18.2302C10.7232 18.2302 9.95098 18.0181 9.27485 17.5939C8.59871 17.1696 8.06675 16.5664 7.67897 15.7842C7.29118 15.002 7.09729 14.074 7.09729 13.0001C7.09729 11.9263 7.29118 10.9982 7.67897 10.216C8.06675 9.43385 8.59871 8.83063 9.27485 8.40638C9.95098 7.98214 10.7232 7.77002 11.5916 7.77002C12.46 7.77002 13.2322 7.98214 13.9084 8.40638C14.5845 8.83063 15.1165 9.43385 15.5043 10.216C15.892 10.9982 16.0859 11.9263 16.0859 13.0001ZM14.8927 13.0001C14.8927 12.1185 14.7453 11.3744 14.4503 10.7679C14.1586 10.1614 13.7625 9.70231 13.2621 9.39076C12.7649 9.07921 12.2081 8.92343 11.5916 8.92343C10.9751 8.92343 10.4167 9.07921 9.91618 9.39076C9.41902 9.70231 9.02295 10.1614 8.72797 10.7679C8.43631 11.3744 8.29047 12.1185 8.29047 13.0001C8.29047 13.8818 8.43631 14.6258 8.72797 15.2324C9.02295 15.8389 9.41902 16.298 9.91618 16.6095C10.4167 16.9211 10.9751 17.0768 11.5916 17.0768C12.2081 17.0768 12.7649 16.9211 13.2621 16.6095C13.7625 16.298 14.1586 15.8389 14.4503 15.2324C14.7453 14.6258 14.8927 13.8818 14.8927 13.0001Z" fill="black"/>
<path d="M26.75 13.0001C26.75 14.074 26.5561 15.002 26.1683 15.7842C25.7805 16.5664 25.2486 17.1696 24.5724 17.5939C23.8963 18.0181 23.124 18.2302 22.2557 18.2302C21.3873 18.2302 20.615 18.0181 19.9389 17.5939C19.2628 17.1696 18.7308 16.5664 18.343 15.7842C17.9552 15.002 17.7614 14.074 17.7614 13.0001C17.7614 11.9263 17.9552 10.9982 18.343 10.216C18.7308 9.43385 19.2628 8.83063 19.9389 8.40638C20.615 7.98214 21.3873 7.77002 22.2557 7.77002C23.124 7.77002 23.8963 7.98214 24.5724 8.40638C25.2486 8.83063 25.7805 9.43385 26.1683 10.216C26.5561 10.9982 26.75 11.9263 26.75 13.0001ZM25.5568 13.0001C25.5568 12.1185 25.4093 11.3744 25.1143 10.7679C24.8227 10.1614 24.4266 9.70231 23.9261 9.39076C23.429 9.07921 22.8721 8.92343 22.2557 8.92343C21.6392 8.92343 21.0807 9.07921 20.5802 9.39076C20.0831 9.70231 19.687 10.1614 19.392 10.7679C19.1004 11.3744 18.9545 12.1185 18.9545 13.0001C18.9545 13.8818 19.1004 14.6258 19.392 15.2324C19.687 15.8389 20.0831 16.298 20.5802 16.6095C21.0807 16.9211 21.6392 17.0768 22.2557 17.0768C22.8721 17.0768 23.429 16.9211 23.9261 16.6095C24.4266 16.298 24.8227 15.8389 25.1143 15.2324C25.4093 14.6258 25.5568 13.8818 25.5568 13.0001Z" fill="black"/>
<path d="M28.8231 18.091V7.90922H32.3828C33.0921 7.90922 33.6771 8.03186 34.1378 8.27712C34.5985 8.51907 34.9415 8.84554 35.1669 9.25653C35.3923 9.6642 35.505 10.1166 35.505 10.6138C35.505 11.0513 35.4271 11.4125 35.2713 11.6976C35.1188 11.9826 34.9167 12.208 34.6648 12.3737C34.4162 12.5394 34.1461 12.6621 33.8544 12.7416V12.841C34.1659 12.8609 34.4792 12.9703 34.794 13.1692C35.1089 13.368 35.3724 13.6531 35.5845 14.0243C35.7966 14.3955 35.9027 14.8496 35.9027 15.3865C35.9027 15.8969 35.7867 16.356 35.5547 16.7636C35.3227 17.1713 34.9564 17.4945 34.456 17.7331C33.9555 17.9717 33.3042 18.091 32.5021 18.091H28.8231ZM30.0561 16.9973H32.5021C33.3075 16.9973 33.8792 16.8415 34.2173 16.53C34.5587 16.2151 34.7294 15.8339 34.7294 15.3865C34.7294 15.0418 34.6416 14.7236 34.4659 14.432C34.2902 14.137 34.04 13.9016 33.7152 13.726C33.3904 13.547 33.0059 13.4575 32.5618 13.4575H30.0561V16.9973ZM30.0561 12.3837H32.343C32.7142 12.3837 33.049 12.3107 33.3473 12.1649C33.6489 12.0191 33.8875 11.8136 34.0632 11.5484C34.2422 11.2833 34.3317 10.9717 34.3317 10.6138C34.3317 10.1663 34.1759 9.78683 33.8643 9.47528C33.5528 9.16041 33.0589 9.00297 32.3828 9.00297H30.0561V12.3837Z" fill="black"/>
</svg>
