<svg width="119" height="24" viewBox="0 0 119 24" fill="none" xmlns="http://www.w3.org/2000/svg">
<rect width="119" height="24" rx="4" fill="#FEF6F1"/>
<path d="M7.84055 16H6.7326L9.93715 7.27273H11.0281L14.2326 16H13.1246L10.5167 8.65341H10.4485L7.84055 16ZM8.24964 12.5909H12.7156V13.5284H8.24964V12.5909ZM15.592 16V7.27273H18.5408C19.2255 7.27273 19.7852 7.39631 20.2198 7.64347C20.6573 7.88778 20.9812 8.21875 21.1914 8.63636C21.4016 9.05398 21.5067 9.51989 21.5067 10.0341C21.5067 10.5483 21.4016 11.0156 21.1914 11.4361C20.984 11.8565 20.663 12.1918 20.2283 12.4418C19.7937 12.6889 19.2369 12.8125 18.5579 12.8125H16.4442V11.875H18.5238C18.9925 11.875 19.369 11.794 19.6531 11.6321C19.9371 11.4702 20.1431 11.2514 20.271 10.9759C20.4016 10.6974 20.467 10.3835 20.467 10.0341C20.467 9.68466 20.4016 9.37216 20.271 9.09659C20.1431 8.82102 19.9357 8.60511 19.6488 8.44886C19.3619 8.28977 18.9812 8.21023 18.5067 8.21023H16.6488V16H15.592ZM24.266 7.27273V16H23.2092V7.27273H24.266ZM30.1179 16H29.0099L32.2145 7.27273H33.3054L36.5099 16H35.402L32.794 8.65341H32.7259L30.1179 16ZM30.527 12.5909H34.9929V13.5284H30.527V12.5909ZM40.1694 9.45455V10.3068H36.7773V9.45455H40.1694ZM37.766 7.88636H38.7717V14.125C38.7717 14.4091 38.8129 14.6222 38.8952 14.7642C38.9805 14.9034 39.0884 14.9972 39.2191 15.0455C39.3526 15.0909 39.4933 15.1136 39.641 15.1136C39.7518 15.1136 39.8427 15.108 39.9137 15.0966C39.9847 15.0824 40.0415 15.071 40.0842 15.0625L40.2887 15.9659C40.2205 15.9915 40.1254 16.017 40.0032 16.0426C39.881 16.071 39.7262 16.0852 39.5387 16.0852C39.2546 16.0852 38.9762 16.0241 38.7035 15.902C38.4336 15.7798 38.2092 15.5938 38.0302 15.3438C37.854 15.0938 37.766 14.7784 37.766 14.3977V7.88636ZM44.5288 9.45455V10.3068H41.1367V9.45455H44.5288ZM42.1254 7.88636H43.131V14.125C43.131 14.4091 43.1722 14.6222 43.2546 14.7642C43.3398 14.9034 43.4478 14.9972 43.5785 15.0455C43.712 15.0909 43.8526 15.1136 44.0004 15.1136C44.1112 15.1136 44.2021 15.108 44.2731 15.0966C44.3441 15.0824 44.4009 15.071 44.4435 15.0625L44.6481 15.9659C44.5799 15.9915 44.4847 16.017 44.3626 16.0426C44.2404 16.071 44.0856 16.0852 43.8981 16.0852C43.614 16.0852 43.3356 16.0241 43.0629 15.902C42.793 15.7798 42.5685 15.5938 42.3896 15.3438C42.2134 15.0938 42.1254 14.7784 42.1254 14.3977V7.88636ZM47.9677 16.1534C47.5529 16.1534 47.1765 16.0753 46.8384 15.919C46.5004 15.7599 46.2319 15.5312 46.033 15.233C45.8342 14.9318 45.7347 14.5682 45.7347 14.142C45.7347 13.767 45.8086 13.4631 45.9563 13.2301C46.104 12.9943 46.3015 12.8097 46.5487 12.6761C46.7958 12.5426 47.0685 12.4432 47.3668 12.3778C47.668 12.3097 47.9705 12.2557 48.2745 12.2159C48.6722 12.1648 48.9947 12.1264 49.2418 12.1009C49.4918 12.0724 49.6737 12.0256 49.7873 11.9602C49.9038 11.8949 49.962 11.7812 49.962 11.6193V11.5852C49.962 11.1648 49.8469 10.8381 49.6168 10.6051C49.3896 10.3722 49.0444 10.2557 48.5813 10.2557C48.1012 10.2557 47.7248 10.3608 47.4521 10.571C47.1793 10.7812 46.9876 11.0057 46.8768 11.2443L45.9222 10.9034C46.0927 10.5057 46.32 10.196 46.604 9.97443C46.891 9.75 47.2035 9.59375 47.5415 9.50568C47.8825 9.41477 48.2177 9.36932 48.5472 9.36932C48.7575 9.36932 48.9989 9.39489 49.2717 9.44602C49.5472 9.49432 49.8129 9.59517 50.0685 9.74858C50.3271 9.90199 50.5415 10.1335 50.712 10.4432C50.8825 10.7528 50.9677 11.1676 50.9677 11.6875V16H49.962V15.1136H49.9109C49.8427 15.2557 49.729 15.4077 49.57 15.5696C49.4109 15.7315 49.1992 15.8693 48.935 15.983C48.6708 16.0966 48.3484 16.1534 47.9677 16.1534ZM48.1211 15.25C48.5188 15.25 48.854 15.1719 49.1268 15.0156C49.4023 14.8594 49.6097 14.6577 49.7489 14.4105C49.891 14.1634 49.962 13.9034 49.962 13.6307V12.7102C49.9194 12.7614 49.8256 12.8082 49.6808 12.8509C49.5387 12.8906 49.3739 12.9261 49.1864 12.9574C49.0018 12.9858 48.8214 13.0114 48.6452 13.0341C48.4719 13.054 48.3313 13.071 48.2234 13.0852C47.962 13.1193 47.7177 13.1747 47.4904 13.2514C47.266 13.3253 47.0842 13.4375 46.945 13.5881C46.8086 13.7358 46.7404 13.9375 46.7404 14.1932C46.7404 14.5426 46.8697 14.8068 47.1282 14.9858C47.3896 15.1619 47.7205 15.25 48.1211 15.25ZM55.4624 16.1364C54.8487 16.1364 54.3203 15.9915 53.8771 15.7017C53.4339 15.4119 53.093 15.0128 52.8544 14.5043C52.6158 13.9957 52.4964 13.4148 52.4964 12.7614C52.4964 12.0966 52.6186 11.5099 52.8629 11.0014C53.1101 10.4901 53.4538 10.0909 53.8942 9.80398C54.3374 9.5142 54.8544 9.36932 55.4453 9.36932C55.9055 9.36932 56.3203 9.45455 56.6896 9.625C57.0589 9.79545 57.3615 10.0341 57.5973 10.3409C57.8331 10.6477 57.9794 11.0057 58.0362 11.4148H57.0305C56.9538 11.1165 56.7834 10.8523 56.5192 10.6222C56.2578 10.3892 55.9055 10.2727 55.4624 10.2727C55.0703 10.2727 54.7266 10.375 54.4311 10.5795C54.1385 10.7812 53.9098 11.0668 53.745 11.4361C53.5831 11.8026 53.5021 12.233 53.5021 12.7273C53.5021 13.233 53.5817 13.6733 53.7408 14.0483C53.9027 14.4233 54.13 14.7145 54.4226 14.9219C54.718 15.1293 55.0646 15.233 55.4624 15.233C55.7237 15.233 55.9609 15.1875 56.174 15.0966C56.3871 15.0057 56.5675 14.875 56.7152 14.7045C56.8629 14.5341 56.968 14.3295 57.0305 14.0909H58.0362C57.9794 14.4773 57.8388 14.8253 57.6143 15.1349C57.3928 15.4418 57.0987 15.6861 56.7322 15.8679C56.3686 16.0469 55.9453 16.1364 55.4624 16.1364ZM60.4439 13.6136L60.4268 12.3693H60.6314L63.495 9.45455H64.7393L61.6882 12.5398H61.603L60.4439 13.6136ZM59.5064 16V7.27273H60.5121V16H59.5064ZM63.6655 16L61.1087 12.7614L61.8246 12.0625L64.9439 16H63.6655ZM74.3178 9.45455C74.2667 9.02273 74.0593 8.6875 73.6957 8.44886C73.332 8.21023 72.886 8.09091 72.3576 8.09091C71.9712 8.09091 71.6332 8.15341 71.3434 8.27841C71.0565 8.40341 70.832 8.57528 70.6701 8.79403C70.511 9.01278 70.4315 9.26136 70.4315 9.53977C70.4315 9.77273 70.4869 9.97301 70.5977 10.1406C70.7113 10.3054 70.8562 10.4432 71.0323 10.554C71.2085 10.6619 71.3931 10.7514 71.5863 10.8224C71.7795 10.8906 71.957 10.946 72.119 10.9886L73.0053 11.2273C73.2326 11.2869 73.4854 11.3693 73.7638 11.4744C74.0451 11.5795 74.3136 11.723 74.5692 11.9048C74.8278 12.0838 75.0408 12.3139 75.2085 12.5952C75.3761 12.8764 75.4599 13.2216 75.4599 13.6307C75.4599 14.1023 75.3363 14.5284 75.0891 14.9091C74.8448 15.2898 74.4869 15.5923 74.0153 15.8168C73.5465 16.0412 72.9769 16.1534 72.3065 16.1534C71.6815 16.1534 71.1403 16.0526 70.6829 15.8509C70.2283 15.6491 69.8704 15.3679 69.609 15.0071C69.3505 14.6463 69.2042 14.2273 69.1701 13.75H70.261C70.2894 14.0795 70.4002 14.3523 70.5934 14.5682C70.7894 14.7812 71.0366 14.9403 71.3349 15.0455C71.636 15.1477 71.9599 15.1989 72.3065 15.1989C72.7099 15.1989 73.0721 15.1335 73.3931 15.0028C73.7141 14.8693 73.9684 14.6847 74.1559 14.4489C74.3434 14.2102 74.4371 13.9318 74.4371 13.6136C74.4371 13.3239 74.3562 13.0881 74.1942 12.9062C74.0323 12.7244 73.8192 12.5767 73.555 12.4631C73.2908 12.3494 73.0053 12.25 72.6985 12.1648L71.6246 11.858C70.9428 11.6619 70.4031 11.3821 70.0053 11.0185C69.6076 10.6548 69.4087 10.179 69.4087 9.59091C69.4087 9.10227 69.5408 8.67614 69.805 8.3125C70.0721 7.94602 70.43 7.66193 70.8789 7.46023C71.3306 7.25568 71.8349 7.15341 72.3917 7.15341C72.9542 7.15341 73.4542 7.25426 73.8917 7.45597C74.3292 7.65483 74.6758 7.92756 74.9315 8.27415C75.19 8.62074 75.3263 9.0142 75.3406 9.45455H74.3178ZM81.1861 13.3239V9.45455H82.1918V16H81.1861V14.892H81.1179C80.9645 15.2244 80.7259 15.5071 80.402 15.7401C80.0781 15.9702 79.669 16.0852 79.1747 16.0852C78.7656 16.0852 78.402 15.9957 78.0838 15.8168C77.7656 15.6349 77.5156 15.3622 77.3338 14.9986C77.152 14.6321 77.0611 14.1705 77.0611 13.6136V9.45455H78.0668V13.5455C78.0668 14.0227 78.2003 14.4034 78.4673 14.6875C78.7372 14.9716 79.081 15.1136 79.4986 15.1136C79.7486 15.1136 80.0028 15.0497 80.2614 14.9219C80.5227 14.794 80.7415 14.598 80.9176 14.3338C81.0966 14.0696 81.1861 13.733 81.1861 13.3239ZM84.0337 16V9.45455H85.0053V10.4432H85.0735C85.1928 10.1193 85.4087 9.85653 85.7212 9.65483C86.0337 9.45312 86.386 9.35227 86.7781 9.35227C86.8519 9.35227 86.9442 9.35369 87.055 9.35653C87.1658 9.35937 87.2496 9.36364 87.3065 9.36932V10.392C87.2724 10.3835 87.1942 10.3707 87.0721 10.3537C86.9528 10.3338 86.8263 10.3239 86.6928 10.3239C86.3746 10.3239 86.0906 10.3906 85.8406 10.5241C85.5934 10.6548 85.3974 10.8366 85.2525 11.0696C85.1104 11.2997 85.0394 11.5625 85.0394 11.858V16H84.0337ZM91.8235 9.45455V10.3068H88.2951V9.45455H91.8235ZM89.3519 16V8.55114C89.3519 8.17614 89.44 7.86364 89.6161 7.61364C89.7923 7.36364 90.021 7.17614 90.3022 7.05114C90.5835 6.92614 90.8803 6.86364 91.1928 6.86364C91.44 6.86364 91.6417 6.88352 91.7979 6.9233C91.9542 6.96307 92.0707 7 92.1474 7.03409L91.8576 7.90341C91.8065 7.88636 91.7354 7.86506 91.6445 7.83949C91.5565 7.81392 91.44 7.80114 91.2951 7.80114C90.9627 7.80114 90.7227 7.88494 90.5749 8.05256C90.43 8.22017 90.3576 8.46591 90.3576 8.78977V16H89.3519ZM94.9716 16.1534C94.5568 16.1534 94.1804 16.0753 93.8423 15.919C93.5043 15.7599 93.2358 15.5312 93.0369 15.233C92.8381 14.9318 92.7386 14.5682 92.7386 14.142C92.7386 13.767 92.8125 13.4631 92.9602 13.2301C93.108 12.9943 93.3054 12.8097 93.5526 12.6761C93.7997 12.5426 94.0724 12.4432 94.3707 12.3778C94.6719 12.3097 94.9744 12.2557 95.2784 12.2159C95.6761 12.1648 95.9986 12.1264 96.2457 12.1009C96.4957 12.0724 96.6776 12.0256 96.7912 11.9602C96.9077 11.8949 96.9659 11.7812 96.9659 11.6193V11.5852C96.9659 11.1648 96.8509 10.8381 96.6207 10.6051C96.3935 10.3722 96.0483 10.2557 95.5852 10.2557C95.1051 10.2557 94.7287 10.3608 94.456 10.571C94.1832 10.7812 93.9915 11.0057 93.8807 11.2443L92.9261 10.9034C93.0966 10.5057 93.3239 10.196 93.608 9.97443C93.8949 9.75 94.2074 9.59375 94.5455 9.50568C94.8864 9.41477 95.2216 9.36932 95.5511 9.36932C95.7614 9.36932 96.0028 9.39489 96.2756 9.44602C96.5511 9.49432 96.8168 9.59517 97.0724 9.74858C97.331 9.90199 97.5455 10.1335 97.7159 10.4432C97.8864 10.7528 97.9716 11.1676 97.9716 11.6875V16H96.9659V15.1136H96.9148C96.8466 15.2557 96.733 15.4077 96.5739 15.5696C96.4148 15.7315 96.2031 15.8693 95.9389 15.983C95.6747 16.0966 95.3523 16.1534 94.9716 16.1534ZM95.125 15.25C95.5227 15.25 95.858 15.1719 96.1307 15.0156C96.4063 14.8594 96.6136 14.6577 96.7528 14.4105C96.8949 14.1634 96.9659 13.9034 96.9659 13.6307V12.7102C96.9233 12.7614 96.8295 12.8082 96.6847 12.8509C96.5426 12.8906 96.3778 12.9261 96.1903 12.9574C96.0057 12.9858 95.8253 13.0114 95.6491 13.0341C95.4759 13.054 95.3352 13.071 95.2273 13.0852C94.9659 13.1193 94.7216 13.1747 94.4943 13.2514C94.2699 13.3253 94.0881 13.4375 93.9489 13.5881C93.8125 13.7358 93.7443 13.9375 93.7443 14.1932C93.7443 14.5426 93.8736 14.8068 94.1321 14.9858C94.3935 15.1619 94.7244 15.25 95.125 15.25ZM102.466 16.1364C101.853 16.1364 101.324 15.9915 100.881 15.7017C100.438 15.4119 100.097 15.0128 99.8583 14.5043C99.6197 13.9957 99.5004 13.4148 99.5004 12.7614C99.5004 12.0966 99.6225 11.5099 99.8668 11.0014C100.114 10.4901 100.458 10.0909 100.898 9.80398C101.341 9.5142 101.858 9.36932 102.449 9.36932C102.909 9.36932 103.324 9.45455 103.694 9.625C104.063 9.79545 104.365 10.0341 104.601 10.3409C104.837 10.6477 104.983 11.0057 105.04 11.4148H104.034C103.958 11.1165 103.787 10.8523 103.523 10.6222C103.262 10.3892 102.909 10.2727 102.466 10.2727C102.074 10.2727 101.73 10.375 101.435 10.5795C101.142 10.7812 100.914 11.0668 100.749 11.4361C100.587 11.8026 100.506 12.233 100.506 12.7273C100.506 13.233 100.586 13.6733 100.745 14.0483C100.907 14.4233 101.134 14.7145 101.426 14.9219C101.722 15.1293 102.069 15.233 102.466 15.233C102.728 15.233 102.965 15.1875 103.178 15.0966C103.391 15.0057 103.571 14.875 103.719 14.7045C103.867 14.5341 103.972 14.3295 104.034 14.0909H105.04C104.983 14.4773 104.843 14.8253 104.618 15.1349C104.397 15.4418 104.103 15.6861 103.736 15.8679C103.373 16.0469 102.949 16.1364 102.466 16.1364ZM109.255 16.1364C108.624 16.1364 108.08 15.9972 107.623 15.7188C107.168 15.4375 106.817 15.0455 106.57 14.5426C106.326 14.0369 106.203 13.4489 106.203 12.7784C106.203 12.108 106.326 11.517 106.57 11.0057C106.817 10.4915 107.161 10.0909 107.601 9.80398C108.044 9.5142 108.561 9.36932 109.152 9.36932C109.493 9.36932 109.83 9.42614 110.162 9.53977C110.495 9.65341 110.797 9.83807 111.07 10.0938C111.343 10.3466 111.56 10.6818 111.722 11.0994C111.884 11.517 111.965 12.0312 111.965 12.642V13.0682H106.919V12.1989H110.942C110.942 11.8295 110.868 11.5 110.721 11.2102C110.576 10.9205 110.368 10.6918 110.098 10.5241C109.831 10.3565 109.516 10.2727 109.152 10.2727C108.752 10.2727 108.405 10.3722 108.113 10.571C107.823 10.767 107.6 11.0227 107.444 11.3381C107.287 11.6534 107.209 11.9915 107.209 12.3523V12.9318C107.209 13.4261 107.294 13.8452 107.465 14.1889C107.638 14.5298 107.878 14.7898 108.185 14.9688C108.492 15.1449 108.848 15.233 109.255 15.233C109.519 15.233 109.757 15.196 109.971 15.1222C110.186 15.0455 110.373 14.9318 110.529 14.7812C110.685 14.6278 110.806 14.4375 110.891 14.2102L111.863 14.483C111.76 14.8125 111.588 15.1023 111.347 15.3523C111.105 15.5994 110.807 15.7926 110.452 15.9318C110.097 16.0682 109.698 16.1364 109.255 16.1364Z" fill="#F24444"/>
</svg>
