<svg width="54" height="26" viewBox="0 0 54 26" fill="none" xmlns="http://www.w3.org/2000/svg">
<rect width="54" height="26" rx="4" fill="#F0F1FD"/>
<path d="M8.54668 7.98859V18.1704H7.31372V7.98859H8.54668Z" fill="#3942EA"/>
<path d="M12.033 13.5767V18.1704H10.8597V10.534H11.9932V11.7272H12.0927C12.2716 11.3394 12.5434 11.0279 12.908 10.7926C13.2726 10.5539 13.7432 10.4346 14.3199 10.4346C14.837 10.4346 15.2894 10.5407 15.6772 10.7528C16.065 10.9616 16.3666 11.2798 16.582 11.7073C16.7974 12.1316 16.9052 12.6685 16.9052 13.3181V18.1704H15.7319V13.3977C15.7319 12.7978 15.5761 12.3304 15.2645 11.9957C14.953 11.6576 14.5254 11.4886 13.9819 11.4886C13.6073 11.4886 13.2726 11.5698 12.9776 11.7322C12.6859 11.8946 12.4556 12.1316 12.2866 12.4431C12.1175 12.7547 12.033 13.1325 12.033 13.5767Z" fill="#3942EA"/>
<path d="M23.4242 13.2585V14.3522H18.9696V13.2585H23.4242Z" fill="#3942EA"/>
<path d="M26.6619 7.98859V18.1704H25.4886V7.98859H26.6619Z" fill="#3942EA"/>
<path d="M28.8109 18.1704V10.534H29.9842V18.1704H28.8109ZM29.4075 9.26132C29.1788 9.26132 28.9816 9.18343 28.8159 9.02765C28.6534 8.87188 28.5722 8.68461 28.5722 8.46586C28.5722 8.24711 28.6534 8.05985 28.8159 7.90407C28.9816 7.7483 29.1788 7.67041 29.4075 7.67041C29.6362 7.67041 29.8317 7.7483 29.9941 7.90407C30.1598 8.05985 30.2427 8.24711 30.2427 8.46586C30.2427 8.68461 30.1598 8.87188 29.9941 9.02765C29.8317 9.18343 29.6362 9.26132 29.4075 9.26132Z" fill="#3942EA"/>
<path d="M33.3064 13.5767V18.1704H32.1331V10.534H33.2667V11.7272H33.3661C33.5451 11.3394 33.8169 11.0279 34.1814 10.7926C34.546 10.5539 35.0167 10.4346 35.5934 10.4346C36.1104 10.4346 36.5628 10.5407 36.9506 10.7528C37.3384 10.9616 37.64 11.2798 37.8554 11.7073C38.0709 12.1316 38.1786 12.6685 38.1786 13.3181V18.1704H37.0053V13.3977C37.0053 12.7978 36.8495 12.3304 36.538 11.9957C36.2264 11.6576 35.7989 11.4886 35.2553 11.4886C34.8808 11.4886 34.546 11.5698 34.251 11.7322C33.9594 11.8946 33.729 12.1316 33.56 12.4431C33.391 12.7547 33.3064 13.1325 33.3064 13.5767Z" fill="#3942EA"/>
<path d="M43.5243 18.3295C42.7885 18.3295 42.1538 18.1671 41.6202 17.8423C41.0899 17.5142 40.6806 17.0568 40.3922 16.4701C40.1072 15.8802 39.9646 15.1941 39.9646 14.4119C39.9646 13.6297 40.1072 12.9403 40.3922 12.3437C40.6806 11.7438 41.0816 11.2765 41.5953 10.9417C42.1124 10.6036 42.7156 10.4346 43.405 10.4346C43.8027 10.4346 44.1955 10.5009 44.5833 10.6335C44.971 10.7661 45.324 10.9815 45.6422 11.2798C45.9604 11.5748 46.2139 11.9659 46.4029 12.4531C46.5918 12.9403 46.6862 13.5402 46.6862 14.2528V14.75H40.7999V13.7358H45.4931C45.4931 13.3049 45.4069 12.9204 45.2345 12.5823C45.0655 12.2443 44.8235 11.9775 44.5087 11.7819C44.1971 11.5864 43.8292 11.4886 43.405 11.4886C42.9377 11.4886 42.5333 11.6046 42.1919 11.8366C41.8538 12.0653 41.5937 12.3636 41.4114 12.7315C41.2291 13.0994 41.1379 13.4938 41.1379 13.9147V14.5909C41.1379 15.1676 41.2374 15.6564 41.4362 16.0575C41.6384 16.4552 41.9185 16.7585 42.2764 16.9673C42.6344 17.1728 43.0503 17.2755 43.5243 17.2755C43.8325 17.2755 44.1109 17.2324 44.3595 17.1463C44.6114 17.0568 44.8285 16.9242 45.0108 16.7485C45.1931 16.5696 45.334 16.3475 45.4334 16.0823L46.5669 16.4005C46.4476 16.785 46.2471 17.1231 45.9654 17.4147C45.6836 17.7031 45.3356 17.9285 44.9213 18.0909C44.507 18.25 44.0413 18.3295 43.5243 18.3295Z" fill="#3942EA"/>
</svg>
