<svg width="91" height="24" viewBox="0 0 91 24" fill="none" xmlns="http://www.w3.org/2000/svg">
<rect width="91" height="24" rx="4" fill="#FEF6E5" fill-opacity="0.5"/>
<path d="M81.6609 16.1362C81.0302 16.1362 80.4862 15.997 80.0288 15.7186C79.5742 15.4373 79.2234 15.0453 78.9762 14.5424C78.7319 14.0368 78.6097 13.4487 78.6097 12.7782C78.6097 12.1078 78.7319 11.5169 78.9762 11.0055C79.2234 10.4913 79.5671 10.0907 80.0075 9.8038C80.4506 9.51403 80.9677 9.36914 81.5586 9.36914C81.8995 9.36914 82.2362 9.42596 82.5685 9.53959C82.9009 9.65323 83.2035 9.83789 83.4762 10.0936C83.7489 10.3464 83.9663 10.6816 84.1282 11.0993C84.2901 11.5169 84.3711 12.0311 84.3711 12.6419V13.068H79.3256V12.1987H83.3484C83.3484 11.8294 83.2745 11.4998 83.1268 11.21C82.9819 10.9203 82.7745 10.6916 82.5046 10.524C82.2376 10.3564 81.9222 10.2725 81.5586 10.2725C81.158 10.2725 80.8114 10.372 80.5188 10.5708C80.2291 10.7669 80.006 11.0225 79.8498 11.3379C79.6935 11.6532 79.6154 11.9913 79.6154 12.3521V12.9316C79.6154 13.426 79.7006 13.845 79.8711 14.1887C80.0444 14.5297 80.2845 14.7896 80.5913 14.9686C80.8981 15.1447 81.2546 15.2328 81.6609 15.2328C81.9251 15.2328 82.1637 15.1958 82.3768 15.122C82.5927 15.0453 82.7788 14.9316 82.935 14.7811C83.0913 14.6277 83.212 14.4373 83.2972 14.21L84.2688 14.4828C84.1666 14.8123 83.9947 15.1021 83.7532 15.3521C83.5117 15.5993 83.2134 15.7924 82.8583 15.9316C82.5032 16.068 82.1041 16.1362 81.6609 16.1362Z" fill="#FC7303"/>
<path d="M74.2461 18.5907C73.7603 18.5907 73.3427 18.5282 72.9933 18.4032C72.6438 18.2811 72.3526 18.1191 72.1197 17.9174C71.8896 17.7186 71.7063 17.5055 71.57 17.2782L72.3711 16.7157C72.462 16.835 72.5771 16.9714 72.7163 17.1248C72.8555 17.2811 73.0458 17.416 73.2873 17.5297C73.5316 17.6461 73.8512 17.7044 74.2461 17.7044C74.7745 17.7044 75.2106 17.5765 75.5543 17.3208C75.8981 17.0652 76.07 16.6646 76.07 16.1191V14.7896H75.9847C75.9109 14.9089 75.8058 15.0566 75.6694 15.2328C75.5359 15.4061 75.3427 15.5609 75.0899 15.6973C74.8399 15.8308 74.5018 15.8975 74.0756 15.8975C73.5472 15.8975 73.0728 15.7725 72.6524 15.5225C72.2347 15.2725 71.9038 14.9089 71.6595 14.4316C71.418 13.9544 71.2972 13.3748 71.2972 12.693C71.2972 12.0226 71.4151 11.4387 71.6509 10.9416C71.8867 10.4416 72.2149 10.0552 72.6353 9.78249C73.0558 9.50692 73.5416 9.36914 74.0927 9.36914C74.5188 9.36914 74.8569 9.44016 75.1069 9.58221C75.3597 9.72141 75.5529 9.8805 75.6864 10.0595C75.8228 10.2356 75.9279 10.3805 76.0018 10.4941H76.1041V9.45437H77.0756V16.1873C77.0756 16.7498 76.9478 17.2072 76.6921 17.5595C76.4393 17.9146 76.0984 18.1745 75.6694 18.3393C75.2433 18.5069 74.7688 18.5907 74.2461 18.5907ZM74.212 14.9941C74.6154 14.9941 74.9563 14.9018 75.2347 14.7172C75.5132 14.5325 75.7248 14.2669 75.8697 13.9203C76.0146 13.5737 76.087 13.1589 76.087 12.676C76.087 12.2044 76.016 11.7882 75.8739 11.4274C75.7319 11.0666 75.5217 10.7839 75.2433 10.5794C74.9649 10.3748 74.6211 10.2725 74.212 10.2725C73.7859 10.2725 73.4308 10.3805 73.1467 10.5964C72.8654 10.8123 72.6538 11.1021 72.5117 11.4657C72.3725 11.8294 72.3029 12.2328 72.3029 12.676C72.3029 13.1305 72.3739 13.5325 72.516 13.8819C72.6609 14.2285 72.8739 14.5012 73.1552 14.7001C73.4393 14.8961 73.7916 14.9941 74.212 14.9941Z" fill="#FC7303"/>
<path d="M66.6225 16.1371C66.0771 16.1371 65.5955 15.9993 65.1779 15.7237C64.7603 15.4453 64.4336 15.0533 64.1978 14.5476C63.962 14.0391 63.8441 13.4382 63.8441 12.745C63.8441 12.0575 63.962 11.4609 64.1978 10.9553C64.4336 10.4496 64.7617 10.0589 65.1822 9.78338C65.6026 9.50781 66.0884 9.37003 66.6396 9.37003C67.0657 9.37003 67.4024 9.44105 67.6495 9.5831C67.8995 9.7223 68.0899 9.88139 68.2205 10.0604C68.3541 10.2365 68.4578 10.3814 68.5316 10.495H68.6168V7.27344H69.6225V16.0007H68.6509V14.995H68.5316C68.4578 15.1143 68.3526 15.2649 68.2163 15.4467C68.0799 15.6257 67.8853 15.7862 67.6325 15.9283C67.3796 16.0675 67.043 16.1371 66.6225 16.1371ZM66.7589 15.2337C67.1623 15.2337 67.5032 15.1286 67.7816 14.9183C68.06 14.7053 68.2717 14.4112 68.4166 14.0362C68.5614 13.6584 68.6339 13.2223 68.6339 12.728C68.6339 12.2393 68.5629 11.8118 68.4208 11.4453C68.2788 11.076 68.0685 10.7891 67.7901 10.5845C67.5117 10.3771 67.168 10.2734 66.7589 10.2734C66.3328 10.2734 65.9776 10.3828 65.6936 10.6016C65.4123 10.8175 65.2007 11.1115 65.0586 11.4837C64.9194 11.853 64.8498 12.2678 64.8498 12.728C64.8498 13.1939 64.9208 13.6172 65.0629 13.9979C65.2078 14.3757 65.4208 14.6768 65.7021 14.9013C65.9862 15.1229 66.3384 15.2337 66.7589 15.2337Z" fill="#FC7303"/>
<path d="M57.1154 16.0007V7.27344H62.3825V8.21094H58.1722V11.1598H62.1097V12.0973H58.1722V15.0632H62.4506V16.0007H57.1154Z" fill="#FC7303"/>
<path d="M47.5721 18.4551C47.4016 18.4551 47.2496 18.4409 47.1161 18.4125C46.9826 18.3869 46.8903 18.3613 46.8391 18.3358L47.0948 17.4494C47.3391 17.5119 47.555 17.5346 47.7425 17.5176C47.93 17.5005 48.0962 17.4167 48.2411 17.2662C48.3888 17.1184 48.5238 16.8784 48.6459 16.546L48.8334 16.0346L46.413 9.45508H47.5039L49.3107 14.671H49.3789L51.1857 9.45508H52.2766L49.4982 16.9551C49.3732 17.2931 49.2184 17.573 49.0337 17.7946C48.8491 18.019 48.6346 18.1852 48.3903 18.2931C48.1488 18.4011 47.8761 18.4551 47.5721 18.4551Z" fill="#FC7303"/>
<path d="M45.4116 9.4549V10.3072H42.0195V9.4549H45.4116ZM43.0082 7.88672H44.0139V14.1254C44.0139 14.4094 44.055 14.6225 44.1374 14.7646C44.2227 14.9038 44.3306 14.9975 44.4613 15.0458C44.5948 15.0913 44.7354 15.114 44.8832 15.114C44.994 15.114 45.0849 15.1083 45.1559 15.0969C45.2269 15.0827 45.2837 15.0714 45.3264 15.0629L45.5309 15.9663C45.4627 15.9918 45.3675 16.0174 45.2454 16.043C45.1232 16.0714 44.9684 16.0856 44.7809 16.0856C44.4968 16.0856 44.2184 16.0245 43.9457 15.9023C43.6758 15.7802 43.4514 15.5941 43.2724 15.3441C43.0962 15.0941 43.0082 14.7788 43.0082 14.3981V7.88672Z" fill="#FC7303"/>
<path d="M39.7173 16V9.45455H40.723V16H39.7173ZM40.2287 8.36364C40.0327 8.36364 39.8636 8.29688 39.7216 8.16335C39.5824 8.02983 39.5128 7.86932 39.5128 7.68182C39.5128 7.49432 39.5824 7.33381 39.7216 7.20028C39.8636 7.06676 40.0327 7 40.2287 7C40.4247 7 40.5923 7.06676 40.7315 7.20028C40.8736 7.33381 40.9446 7.49432 40.9446 7.68182C40.9446 7.86932 40.8736 8.02983 40.7315 8.16335C40.5923 8.29688 40.4247 8.36364 40.2287 8.36364Z" fill="#FC7303"/>
<path d="M35.2525 15.9993V9.45384H36.2241V10.4425H36.2923C36.4116 10.1186 36.6275 9.85582 36.94 9.65412C37.2525 9.45241 37.6048 9.35156 37.9968 9.35156C38.0707 9.35156 38.163 9.35298 38.2738 9.35582C38.3846 9.35867 38.4684 9.36293 38.5252 9.36861V10.3913C38.4911 10.3828 38.413 10.37 38.2909 10.353C38.1715 10.3331 38.0451 10.3232 37.9116 10.3232C37.5934 10.3232 37.3093 10.3899 37.0593 10.5234C36.8122 10.6541 36.6161 10.8359 36.4713 11.0689C36.3292 11.299 36.2582 11.5618 36.2582 11.8572V15.9993H35.2525Z" fill="#FC7303"/>
<path d="M32.4048 13.3244V9.45508H33.4105V16.0005H32.4048V14.8926H32.3367C32.1833 15.225 31.9446 15.5076 31.6208 15.7406C31.2969 15.9707 30.8878 16.0858 30.3935 16.0858C29.9844 16.0858 29.6208 15.9963 29.3026 15.8173C28.9844 15.6355 28.7344 15.3627 28.5526 14.9991C28.3708 14.6326 28.2798 14.171 28.2798 13.6142V9.45508H29.2855V13.546C29.2855 14.0233 29.4191 14.4039 29.6861 14.688C29.956 14.9721 30.2997 15.1142 30.7173 15.1142C30.9673 15.1142 31.2216 15.0502 31.4801 14.9224C31.7415 14.7946 31.9602 14.5985 32.1364 14.3343C32.3154 14.0701 32.4048 13.7335 32.4048 13.3244Z" fill="#FC7303"/>
<path d="M24.2358 16.1362C23.6222 16.1362 23.0938 15.9913 22.6506 15.7015C22.2074 15.4118 21.8665 15.0126 21.6279 14.5041C21.3892 13.9956 21.2699 13.4146 21.2699 12.7612C21.2699 12.0964 21.3921 11.5098 21.6364 11.0012C21.8835 10.4899 22.2273 10.0907 22.6676 9.8038C23.1108 9.51403 23.6279 9.36914 24.2188 9.36914C24.679 9.36914 25.0938 9.45437 25.4631 9.62482C25.8324 9.79528 26.135 10.0339 26.3708 10.3407C26.6065 10.6475 26.7529 11.0055 26.8097 11.4146H25.804C25.7273 11.1163 25.5568 10.8521 25.2926 10.622C25.0313 10.389 24.679 10.2725 24.2358 10.2725C23.8438 10.2725 23.5 10.3748 23.2046 10.5794C22.9119 10.7811 22.6832 11.0666 22.5185 11.4359C22.3565 11.8024 22.2756 12.2328 22.2756 12.7271C22.2756 13.2328 22.3551 13.6731 22.5142 14.0481C22.6761 14.4231 22.9034 14.7143 23.196 14.9217C23.4915 15.1291 23.8381 15.2328 24.2358 15.2328C24.4972 15.2328 24.7344 15.1873 24.9475 15.0964C25.1605 15.0055 25.3409 14.8748 25.4886 14.7044C25.6364 14.5339 25.7415 14.3294 25.804 14.0907H26.8097C26.7529 14.4771 26.6122 14.8251 26.3878 15.1348C26.1662 15.4416 25.8722 15.6859 25.5057 15.8677C25.1421 16.0467 24.7188 16.1362 24.2358 16.1362Z" fill="#FC7303"/>
<path d="M17.3367 16.1362C16.706 16.1362 16.1619 15.997 15.7046 15.7186C15.25 15.4373 14.8992 15.0453 14.652 14.5424C14.4077 14.0368 14.2855 13.4487 14.2855 12.7782C14.2855 12.1078 14.4077 11.5169 14.652 11.0055C14.8992 10.4913 15.2429 10.0907 15.6833 9.8038C16.1264 9.51403 16.6435 9.36914 17.2344 9.36914C17.5753 9.36914 17.9119 9.42596 18.2443 9.53959C18.5767 9.65323 18.8793 9.83789 19.152 10.0936C19.4247 10.3464 19.6421 10.6816 19.804 11.0993C19.9659 11.5169 20.0469 12.0311 20.0469 12.6419V13.068H15.0014V12.1987H19.0242C19.0242 11.8294 18.9503 11.4998 18.8026 11.21C18.6577 10.9203 18.4503 10.6916 18.1804 10.524C17.9134 10.3564 17.598 10.2725 17.2344 10.2725C16.8338 10.2725 16.4872 10.372 16.1946 10.5708C15.9048 10.7669 15.6818 11.0225 15.5256 11.3379C15.3693 11.6532 15.2912 11.9913 15.2912 12.3521V12.9316C15.2912 13.426 15.3764 13.845 15.5469 14.1887C15.7202 14.5297 15.9602 14.7896 16.2671 14.9686C16.5739 15.1447 16.9304 15.2328 17.3367 15.2328C17.6009 15.2328 17.8395 15.1958 18.0526 15.122C18.2685 15.0453 18.4546 14.9316 18.6108 14.7811C18.7671 14.6277 18.8878 14.4373 18.973 14.21L19.9446 14.4828C19.8423 14.8123 19.6705 15.1021 19.429 15.3521C19.1875 15.5993 18.8892 15.7924 18.5341 15.9316C18.179 16.068 17.7798 16.1362 17.3367 16.1362Z" fill="#FC7303"/>
<path d="M11.8491 9.45543C11.7979 9.02361 11.5906 8.68839 11.2269 8.44975C10.8633 8.21111 10.4173 8.0918 9.88885 8.0918C9.50249 8.0918 9.16442 8.1543 8.87465 8.2793C8.58772 8.4043 8.36329 8.57617 8.20135 8.79492C8.04226 9.01367 7.96272 9.26225 7.96272 9.54066C7.96272 9.77361 8.01812 9.9739 8.12891 10.1415C8.24255 10.3063 8.38743 10.4441 8.56357 10.5549C8.73971 10.6628 8.92437 10.7523 9.11755 10.8233C9.31073 10.8915 9.48829 10.9469 9.65022 10.9895L10.5366 11.2282C10.7639 11.2878 11.0167 11.3702 11.2951 11.4753C11.5764 11.5804 11.8448 11.7239 12.1005 11.9057C12.359 12.0847 12.5721 12.3148 12.7397 12.5961C12.9073 12.8773 12.9911 13.2225 12.9911 13.6316C12.9911 14.1032 12.8675 14.5293 12.6204 14.91C12.3761 15.2907 12.0181 15.5932 11.5465 15.8176C11.0778 16.0421 10.5082 16.1543 9.83772 16.1543C9.21272 16.1543 8.67153 16.0534 8.21414 15.8517C7.75959 15.65 7.40164 15.3688 7.14028 15.008C6.88175 14.6472 6.73545 14.2282 6.70135 13.7509H7.79226C7.82067 14.0804 7.93147 14.3532 8.12465 14.5691C8.32067 14.7821 8.56783 14.9412 8.86613 15.0463C9.16726 15.1486 9.49113 15.1998 9.83772 15.1998C10.2411 15.1998 10.6033 15.1344 10.9244 15.0037C11.2454 14.8702 11.4997 14.6855 11.6872 14.4498C11.8747 14.2111 11.9684 13.9327 11.9684 13.6145C11.9684 13.3248 11.8874 13.089 11.7255 12.9071C11.5636 12.7253 11.3505 12.5776 11.0863 12.464C10.8221 12.3503 10.5366 12.2509 10.2298 12.1657L9.1559 11.8588C8.47408 11.6628 7.93431 11.383 7.53658 11.0194C7.13886 10.6557 6.93999 10.1799 6.93999 9.5918C6.93999 9.10316 7.07209 8.67702 7.3363 8.31339C7.60334 7.94691 7.9613 7.66282 8.41016 7.46111C8.86187 7.25657 9.36613 7.1543 9.92295 7.1543C10.4854 7.1543 10.9854 7.25515 11.4229 7.45685C11.8604 7.65572 12.207 7.92844 12.4627 8.27503C12.7212 8.62163 12.8576 9.01509 12.8718 9.45543H11.8491Z" fill="#FC7303"/>
</svg>
