<svg width="24" height="24" viewBox="0 0 24 24" fill="none" xmlns="http://www.w3.org/2000/svg">
<path fill-rule="evenodd" clip-rule="evenodd" d="M12.7306 2.31723L12 3L11.2694 2.31723C11.4585 2.11487 11.723 2 12 2C12.277 2 12.5415 2.11487 12.7306 2.31723ZM12 4.52159C11.9472 4.58481 11.8921 4.6512 11.8351 4.72065C11.2882 5.38603 10.5601 6.32554 9.83375 7.42236C8.34875 9.66479 7 12.3761 7 14.7C7 17.6736 9.28399 20 12 20C14.716 20 17 17.6736 17 14.7C17 12.3761 15.6512 9.66479 14.1662 7.42236C13.4399 6.32554 12.7118 5.38603 12.1649 4.72065C12.1079 4.6512 12.0528 4.58481 12 4.52159ZM12 3C11.2694 2.31723 11.2692 2.3174 11.269 2.3176L11.2685 2.31811L11.2672 2.31958L11.2628 2.32428L11.2477 2.34062C11.2348 2.35458 11.2164 2.37463 11.1929 2.40053C11.1457 2.45233 11.078 2.52759 10.9925 2.62445C10.8215 2.81811 10.5795 3.0985 10.2899 3.45077C9.71179 4.15424 8.9399 5.14984 8.16625 6.31809C6.65125 8.60582 5 11.7445 5 14.7C5 18.6851 8.08859 22 12 22C15.9114 22 19 18.6851 19 14.7C19 11.7445 17.3488 8.60582 15.8338 6.31809C15.0601 5.14984 14.2882 4.15424 13.7101 3.45077C13.4205 3.0985 13.1785 2.81811 13.0075 2.62445C12.922 2.52759 12.8543 2.45233 12.8071 2.40053C12.7836 2.37463 12.7652 2.35458 12.7523 2.34062L12.7372 2.32428L12.7328 2.31958L12.7315 2.31811L12.731 2.3176C12.7308 2.3174 12.7306 2.31723 12 3Z" fill="#FC7303"/>
</svg>
