<svg width="16" height="17" viewBox="0 0 16 17" fill="none" xmlns="http://www.w3.org/2000/svg">
<path fill-rule="evenodd" clip-rule="evenodd" d="M8.54798 2.2848L8 2.79688L7.45203 2.2848C7.59385 2.13303 7.79228 2.04688 8 2.04688C8.20773 2.04688 8.40615 2.13303 8.54798 2.2848ZM8 3.94162C7.98504 3.9597 7.96984 3.97813 7.95442 3.99689C7.59116 4.43888 7.10758 5.06289 6.62532 5.79113C5.63657 7.28419 4.75 9.07391 4.75 10.5969C4.75 12.5372 6.23914 14.0469 8 14.0469C9.76086 14.0469 11.25 12.5372 11.25 10.5969C11.25 9.07391 10.3634 7.28419 9.37468 5.79113C8.89242 5.06289 8.40884 4.43888 8.04558 3.99689C8.03016 3.97813 8.01496 3.9597 8 3.94162ZM8 2.79688C7.45203 2.2848 7.45191 2.28492 7.45177 2.28507L7.45143 2.28543L7.45047 2.28646L7.44747 2.28969L7.4372 2.30079L7.40025 2.34116C7.36858 2.37598 7.32311 2.42646 7.26583 2.49136C7.1513 2.62112 6.98928 2.80879 6.79558 3.04448C6.40884 3.51504 5.89242 4.18112 5.37468 4.96292C4.36343 6.48996 3.25 8.60024 3.25 10.5969C3.25 13.2958 5.34259 15.5469 8 15.5469C10.6574 15.5469 12.75 13.2958 12.75 10.5969C12.75 8.60024 11.6366 6.48996 10.6253 4.96292C10.1076 4.18112 9.59116 3.51504 9.20442 3.04448C9.01072 2.80879 8.8487 2.62112 8.73417 2.49136C8.67689 2.42646 8.63142 2.37598 8.59975 2.34116L8.5628 2.30079L8.55253 2.28969L8.54953 2.28646L8.54857 2.28543L8.54823 2.28507C8.54809 2.28492 8.54798 2.2848 8 2.79688Z" fill="black"/>
</svg>
