<svg width="24" height="24" viewBox="0 0 24 24" fill="none" xmlns="http://www.w3.org/2000/svg">
<path d="M7 3H5.5C4.39543 3 3.5 3.89543 3.5 5V10C3.5 11.1046 2.60457 12 1.5 12H1" stroke="#FC7303" stroke-width="2" stroke-linecap="round"/>
<path d="M7 20.5H5.5C4.39543 20.5 3.5 19.6046 3.5 18.5V14C3.5 12.8954 2.60457 12 1.5 12H1" stroke="#FC7303" stroke-width="2" stroke-linecap="round"/>
<path d="M17 3H18.5C19.6046 3 20.5 3.89543 20.5 5V10C20.5 11.1046 21.3954 12 22.5 12H23" stroke="#FC7303" stroke-width="2" stroke-linecap="round"/>
<path d="M17 20.5H18.5C19.6046 20.5 20.5 19.6046 20.5 18.5V14C20.5 12.8954 21.3954 12 22.5 12H23" stroke="#FC7303" stroke-width="2" stroke-linecap="round"/>
<path d="M16 9.5L11.5 14L9 11.7273" stroke="#FC7303" stroke-width="2" stroke-linecap="round" stroke-linejoin="round"/>
</svg>
