<svg width="16" height="16" viewBox="0 0 16 16" fill="none" xmlns="http://www.w3.org/2000/svg">
<path d="M6.79973 6.79973L5 5M15 8C15 11.866 11.866 15 8 15C4.13401 15 1 11.866 1 8C1 4.13401 4.13401 1 8 1C11.866 1 15 4.13401 15 8ZM10 8.16667C10 9.17919 9.17919 10 8.16667 10C7.15414 10 6.33333 9.17919 6.33333 8.16667C6.33333 7.15414 7.15414 6.33333 8.16667 6.33333C9.17919 6.33333 10 7.15414 10 8.16667Z" stroke="url(#paint0_linear_1164_4555)" stroke-width="1.5" stroke-linecap="round" stroke-linejoin="round"/>
<defs>
<linearGradient id="paint0_linear_1164_4555" x1="8" y1="1" x2="8" y2="15" gradientUnits="userSpaceOnUse">
<stop stop-color="#B8C0CD"/>
<stop offset="1" stop-color="#6C7993"/>
</linearGradient>
</defs>
</svg>
