<svg width="24" height="24" viewBox="0 0 24 24" fill="none" xmlns="http://www.w3.org/2000/svg">
<path d="M12 11.5L6.75 15M12 11.5L12 7.5M12 11.5L17 14.8333M3.04904 12.1112L3.05204 12L3.11878 9.52702C3.15836 8.06047 3.9976 6.73327 5.30557 6.06877L7.04904 5.18301M16 20L13.7889 21.1056C12.6627 21.6686 11.3373 21.6686 10.2111 21.1056L8 20M20.951 12.1112L20.8812 9.52702C20.8416 8.06047 20.0024 6.73327 18.6944 6.06877L16.951 5.18301M14 5C14 6.10457 13.1046 7 12 7C10.8954 7 10 6.10457 10 5C10 3.89543 10.8954 3 12 3C13.1046 3 14 3.89543 14 5ZM21 16.2C21 17.3046 20.1046 18.2 19 18.2C17.8954 18.2 17 17.3046 17 16.2C17 15.0954 17.8954 14.2 19 14.2C20.1046 14.2 21 15.0954 21 16.2ZM7 16.2C7 17.3046 6.10457 18.2 5 18.2C3.89543 18.2 3 17.3046 3 16.2C3 15.0954 3.89543 14.2 5 14.2C6.10457 14.2 7 15.0954 7 16.2Z" stroke="#FC7303" stroke-width="2" stroke-linecap="round" stroke-linejoin="round"/>
</svg>
