<svg width="14" height="14" viewBox="0 0 14 14" fill="none" xmlns="http://www.w3.org/2000/svg">
<path d="M7 6.46354L3.5 8.79688M7 6.46354L7 3.79688M7 6.46354L10.3333 8.68576M1.03269 6.87102L1.03469 6.79688L1.07919 5.14822C1.10557 4.17052 1.66507 3.28572 2.53704 2.84272L3.69936 2.25222M9.66667 12.1302L8.19257 12.8673C7.44183 13.2426 6.55817 13.2426 5.80743 12.8673L4.33333 12.1302M12.9673 6.87102L12.9208 5.14822C12.8944 4.17052 12.3349 3.28572 11.463 2.84272L10.3006 2.25222M8.33333 2.13021C8.33333 2.86659 7.73638 3.46354 7 3.46354C6.26362 3.46354 5.66667 2.86659 5.66667 2.13021C5.66667 1.39383 6.26362 0.796875 7 0.796875C7.73638 0.796875 8.33333 1.39383 8.33333 2.13021ZM13 9.59688C13 10.3333 12.403 10.9302 11.6667 10.9302C10.9303 10.9302 10.3333 10.3333 10.3333 9.59688C10.3333 8.8605 10.9303 8.26354 11.6667 8.26354C12.403 8.26354 13 8.8605 13 9.59688ZM3.66667 9.59688C3.66667 10.3333 3.06971 10.9302 2.33333 10.9302C1.59695 10.9302 1 10.3333 1 9.59688C1 8.8605 1.59695 8.26354 2.33333 8.26354C3.06971 8.26354 3.66667 8.8605 3.66667 9.59688Z" stroke="black" stroke-width="1.5" stroke-linecap="round" stroke-linejoin="round"/>
</svg>
