<svg width="24" height="24" viewBox="0 0 24 24" fill="none" xmlns="http://www.w3.org/2000/svg">
<circle cx="4.73205" cy="17.268" r="2" transform="rotate(-120 4.73205 17.268)" stroke="black" stroke-width="1.5" stroke-linecap="round" stroke-linejoin="round"/>
<circle cx="12" cy="4" r="2" transform="rotate(180 12 4)" stroke="black" stroke-width="1.5" stroke-linecap="round" stroke-linejoin="round"/>
<circle cx="19.7321" cy="17.732" r="2" transform="rotate(120 19.7321 17.732)" stroke="black" stroke-width="1.5" stroke-linecap="round" stroke-linejoin="round"/>
<path d="M11.6816 9.16502C11.8368 8.94499 12.1632 8.94499 12.3184 9.16502L12.9767 10.0981C13.0634 10.221 13.2131 10.283 13.3614 10.2574L14.4866 10.0631C14.752 10.0173 14.9827 10.248 14.9369 10.5134L14.7426 11.6386C14.717 11.7869 14.779 11.9366 14.9019 12.0233L15.835 12.6816C16.055 12.8368 16.055 13.1632 15.835 13.3184L14.9019 13.9767C14.779 14.0634 14.717 14.2131 14.7426 14.3614L14.9369 15.4866C14.9827 15.752 14.752 15.9827 14.4866 15.9369L13.3614 15.7426C13.2131 15.717 13.0634 15.779 12.9767 15.9019L12.3184 16.835C12.1631 17.055 11.8368 17.055 11.6816 16.835L11.0233 15.9019C10.9366 15.779 10.7869 15.717 10.6386 15.7426L9.5134 15.9369C9.24804 15.9827 9.01731 15.752 9.06313 15.4866L9.25739 14.3614C9.28299 14.2131 9.22097 14.0634 9.09805 13.9767L8.16502 13.3184C7.94499 13.1631 7.94499 12.8368 8.16502 12.6816L9.09805 12.0233C9.22097 11.9366 9.28299 11.7869 9.25739 11.6386L9.06313 10.5134C9.01731 10.248 9.24804 10.0173 9.5134 10.0631L10.6386 10.2574C10.7869 10.283 10.9366 10.221 11.0233 10.0981L11.6816 9.16502Z" stroke="black" stroke-width="1.5" stroke-linecap="round" stroke-linejoin="round"/>
<path d="M7.5 5L5.67505 6.30354C4.62386 7.05438 4 8.26667 4 9.55847V13" stroke="black" stroke-width="1.5" stroke-linecap="round" stroke-linejoin="round"/>
<path d="M16.5 5L18.325 6.30354C19.3761 7.05438 20 8.26667 20 9.55847V13" stroke="black" stroke-width="1.5" stroke-linecap="round" stroke-linejoin="round"/>
<path d="M8 21L10.5955 21.9733C11.501 22.3129 12.499 22.3129 13.4045 21.9733L16 21" stroke="black" stroke-width="1.5" stroke-linecap="round" stroke-linejoin="round"/>
<circle cx="12" cy="13" r="1" fill="black"/>
</svg>
