<svg width="16" height="16" viewBox="0 0 16 16" fill="none" xmlns="http://www.w3.org/2000/svg">
<circle cx="2.91646" cy="11.7099" r="1.40293" transform="rotate(-120 2.91646 11.7099)" stroke="black" stroke-width="1.5" stroke-linecap="round" stroke-linejoin="round"/>
<circle cx="8.01468" cy="2.40292" r="1.40293" transform="rotate(180 8.01468 2.40292)" stroke="black" stroke-width="1.5" stroke-linecap="round" stroke-linejoin="round"/>
<circle cx="13.4384" cy="12.0355" r="1.40293" transform="rotate(120 13.4384 12.0355)" stroke="black" stroke-width="1.5" stroke-linecap="round" stroke-linejoin="round"/>
<path d="M7.79125 6.02597C7.90015 5.87163 8.12904 5.87163 8.23793 6.02597L8.6997 6.68046C8.76053 6.76668 8.86556 6.81019 8.96954 6.79223L9.75886 6.65596C9.94499 6.62382 10.1068 6.78567 10.0747 6.97181L9.93843 7.76112C9.92048 7.8651 9.96398 7.97013 10.0502 8.03096L10.7047 8.49273C10.859 8.60163 10.859 8.83051 10.7047 8.93941L10.0502 9.40118C9.96398 9.46201 9.92048 9.56704 9.93843 9.67102L10.0747 10.4603C10.1068 10.6465 9.94499 10.8083 9.75886 10.7762L8.96954 10.6399C8.86556 10.622 8.76053 10.6655 8.6997 10.7517L8.23793 11.4062C8.12904 11.5605 7.90015 11.5605 7.79125 11.4062L7.32949 10.7517C7.26865 10.6655 7.16363 10.622 7.05965 10.6399L6.27033 10.7762C6.0842 10.8083 5.92235 10.6465 5.95448 10.4603L6.09076 9.67102C6.10871 9.56704 6.0652 9.46201 5.97898 9.40118L5.3245 8.93941C5.17015 8.83051 5.17015 8.60163 5.3245 8.49273L5.97899 8.03096C6.06521 7.97013 6.10871 7.8651 6.09076 7.76112L5.95448 6.97181C5.92235 6.78567 6.0842 6.62382 6.27033 6.65596L7.05965 6.79223C7.16363 6.81019 7.26865 6.76668 7.32949 6.68046L7.79125 6.02597Z" stroke="black" stroke-width="1.5" stroke-linecap="round" stroke-linejoin="round"/>
<path d="M4.85803 3.10437L3.24043 4.2598C2.71484 4.63522 2.40291 5.24136 2.40291 5.88726V7.71608" stroke="black" stroke-width="1.5" stroke-linecap="round" stroke-linejoin="round"/>
<path d="M11.1713 3.10437L12.7889 4.2598C13.3145 4.63522 13.6264 5.24136 13.6264 5.88726V7.71608" stroke="black" stroke-width="1.5" stroke-linecap="round" stroke-linejoin="round"/>
<path d="M5.20874 14.3278L7.31235 15.1167C7.76512 15.2865 8.26407 15.2865 8.71684 15.1167L10.8204 14.3278" stroke="black" stroke-width="1.5" stroke-linecap="round" stroke-linejoin="round"/>
<circle cx="8.01457" cy="8.71611" r="0.701463" fill="black"/>
</svg>
