<svg width="81" height="24" viewBox="0 0 81 24" fill="none" xmlns="http://www.w3.org/2000/svg">
<rect width="81" height="24" rx="4" fill="#FEF6E5" fill-opacity="0.5"/>
<path d="M7.44407 16H6.33612L9.54066 7.27273H10.6316L13.8361 16H12.7282L10.1202 8.65341H10.052L7.44407 16ZM7.85316 12.5909H12.3191V13.5284H7.85316V12.5909ZM15.1955 16V7.27273H18.1444C18.829 7.27273 19.3887 7.39631 19.8233 7.64347C20.2608 7.88778 20.5847 8.21875 20.7949 8.63636C21.0051 9.05398 21.1103 9.51989 21.1103 10.0341C21.1103 10.5483 21.0051 11.0156 20.7949 11.4361C20.5875 11.8565 20.2665 12.1918 19.8319 12.4418C19.3972 12.6889 18.8404 12.8125 18.1614 12.8125H16.0478V11.875H18.1273C18.5961 11.875 18.9725 11.794 19.2566 11.6321C19.5407 11.4702 19.7466 11.2514 19.8745 10.9759C20.0051 10.6974 20.0705 10.3835 20.0705 10.0341C20.0705 9.68466 20.0051 9.37216 19.8745 9.09659C19.7466 8.82102 19.5392 8.60511 19.2523 8.44886C18.9654 8.28977 18.5847 8.21023 18.1103 8.21023H16.2523V16H15.1955ZM23.8695 7.27273V16H22.8127V7.27273H23.8695ZM34.1362 9.45455C34.085 9.02273 33.8777 8.6875 33.514 8.44886C33.1504 8.21023 32.7044 8.09091 32.176 8.09091C31.7896 8.09091 31.4515 8.15341 31.1618 8.27841C30.8748 8.40341 30.6504 8.57528 30.4885 8.79403C30.3294 9.01278 30.2498 9.26136 30.2498 9.53977C30.2498 9.77273 30.3052 9.97301 30.416 10.1406C30.5297 10.3054 30.6745 10.4432 30.8507 10.554C31.0268 10.6619 31.2115 10.7514 31.4047 10.8224C31.5978 10.8906 31.7754 10.946 31.9373 10.9886L32.8237 11.2273C33.051 11.2869 33.3038 11.3693 33.5822 11.4744C33.8635 11.5795 34.1319 11.723 34.3876 11.9048C34.6461 12.0838 34.8592 12.3139 35.0268 12.5952C35.1944 12.8764 35.2782 13.2216 35.2782 13.6307C35.2782 14.1023 35.1547 14.5284 34.9075 14.9091C34.6632 15.2898 34.3052 15.5923 33.8336 15.8168C33.3649 16.0412 32.7953 16.1534 32.1248 16.1534C31.4998 16.1534 30.9586 16.0526 30.5012 15.8509C30.0467 15.6491 29.6887 15.3679 29.4274 15.0071C29.1689 14.6463 29.0225 14.2273 28.9885 13.75H30.0794C30.1078 14.0795 30.2186 14.3523 30.4118 14.5682C30.6078 14.7812 30.8549 14.9403 31.1532 15.0455C31.4544 15.1477 31.7782 15.1989 32.1248 15.1989C32.5282 15.1989 32.8904 15.1335 33.2115 15.0028C33.5325 14.8693 33.7868 14.6847 33.9743 14.4489C34.1618 14.2102 34.2555 13.9318 34.2555 13.6136C34.2555 13.3239 34.1745 13.0881 34.0126 12.9062C33.8507 12.7244 33.6376 12.5767 33.3734 12.4631C33.1092 12.3494 32.8237 12.25 32.5169 12.1648L31.443 11.858C30.7612 11.6619 30.2214 11.3821 29.8237 11.0185C29.426 10.6548 29.2271 10.179 29.2271 9.59091C29.2271 9.10227 29.3592 8.67614 29.6234 8.3125C29.8904 7.94602 30.2484 7.66193 30.6973 7.46023C31.149 7.25568 31.6532 7.15341 32.21 7.15341C32.7725 7.15341 33.2725 7.25426 33.71 7.45597C34.1475 7.65483 34.4941 7.92756 34.7498 8.27415C35.0083 8.62074 35.1447 9.0142 35.1589 9.45455H34.1362ZM39.6238 16.1364C38.9931 16.1364 38.449 15.9972 37.9917 15.7188C37.5371 15.4375 37.1863 15.0455 36.9391 14.5426C36.6948 14.0369 36.5726 13.4489 36.5726 12.7784C36.5726 12.108 36.6948 11.517 36.9391 11.0057C37.1863 10.4915 37.53 10.0909 37.9703 9.80398C38.4135 9.5142 38.9306 9.36932 39.5215 9.36932C39.8624 9.36932 40.199 9.42614 40.5314 9.53977C40.8638 9.65341 41.1664 9.83807 41.4391 10.0938C41.7118 10.3466 41.9292 10.6818 42.0911 11.0994C42.253 11.517 42.334 12.0312 42.334 12.642V13.0682H37.2885V12.1989H41.3113C41.3113 11.8295 41.2374 11.5 41.0897 11.2102C40.9448 10.9205 40.7374 10.6918 40.4675 10.5241C40.2005 10.3565 39.8851 10.2727 39.5215 10.2727C39.1209 10.2727 38.7743 10.3722 38.4817 10.571C38.1919 10.767 37.9689 11.0227 37.8127 11.3381C37.6564 11.6534 37.5783 11.9915 37.5783 12.3523V12.9318C37.5783 13.4261 37.6635 13.8452 37.834 14.1889C38.0073 14.5298 38.2473 14.7898 38.5542 14.9688C38.861 15.1449 39.2175 15.233 39.6238 15.233C39.888 15.233 40.1266 15.196 40.3397 15.1222C40.5556 15.0455 40.7417 14.9318 40.8979 14.7812C41.0542 14.6278 41.1749 14.4375 41.2601 14.2102L42.2317 14.483C42.1294 14.8125 41.9576 15.1023 41.7161 15.3523C41.4746 15.5994 41.1763 15.7926 40.8212 15.9318C40.4661 16.0682 40.0669 16.1364 39.6238 16.1364ZM46.5229 16.1364C45.9093 16.1364 45.3809 15.9915 44.9377 15.7017C44.4945 15.4119 44.1536 15.0128 43.915 14.5043C43.6763 13.9957 43.557 13.4148 43.557 12.7614C43.557 12.0966 43.6792 11.5099 43.9235 11.0014C44.1706 10.4901 44.5144 10.0909 44.9547 9.80398C45.3979 9.5142 45.915 9.36932 46.5059 9.36932C46.9661 9.36932 47.3809 9.45455 47.7502 9.625C48.1195 9.79545 48.4221 10.0341 48.6578 10.3409C48.8936 10.6477 49.04 11.0057 49.0968 11.4148H48.0911C48.0144 11.1165 47.8439 10.8523 47.5797 10.6222C47.3184 10.3892 46.9661 10.2727 46.5229 10.2727C46.1309 10.2727 45.7871 10.375 45.4917 10.5795C45.199 10.7812 44.9703 11.0668 44.8056 11.4361C44.6436 11.8026 44.5627 12.233 44.5627 12.7273C44.5627 13.233 44.6422 13.6733 44.8013 14.0483C44.9632 14.4233 45.1905 14.7145 45.4831 14.9219C45.7786 15.1293 46.1252 15.233 46.5229 15.233C46.7843 15.233 47.0215 15.1875 47.2346 15.0966C47.4476 15.0057 47.628 14.875 47.7757 14.7045C47.9235 14.5341 48.0286 14.3295 48.0911 14.0909H49.0968C49.04 14.4773 48.8993 14.8253 48.6749 15.1349C48.4533 15.4418 48.1593 15.6861 47.7928 15.8679C47.4292 16.0469 47.0059 16.1364 46.5229 16.1364ZM54.6919 13.3239V9.45455H55.6976V16H54.6919V14.892H54.6238C54.4703 15.2244 54.2317 15.5071 53.9078 15.7401C53.584 15.9702 53.1749 16.0852 52.6806 16.0852C52.2715 16.0852 51.9078 15.9957 51.5897 15.8168C51.2715 15.6349 51.0215 15.3622 50.8397 14.9986C50.6578 14.6321 50.5669 14.1705 50.5669 13.6136V9.45455H51.5726V13.5455C51.5726 14.0227 51.7061 14.4034 51.9732 14.6875C52.2431 14.9716 52.5868 15.1136 53.0044 15.1136C53.2544 15.1136 53.5087 15.0497 53.7672 14.9219C54.0286 14.794 54.2473 14.598 54.4235 14.3338C54.6025 14.0696 54.6919 13.733 54.6919 13.3239ZM57.5396 16V9.45455H58.5112V10.4432H58.5794C58.6987 10.1193 58.9146 9.85653 59.2271 9.65483C59.5396 9.45312 59.8919 9.35227 60.2839 9.35227C60.3578 9.35227 60.4501 9.35369 60.5609 9.35653C60.6717 9.35937 60.7555 9.36364 60.8123 9.36932V10.392C60.7782 10.3835 60.7001 10.3707 60.5779 10.3537C60.4586 10.3338 60.3322 10.3239 60.1987 10.3239C59.8805 10.3239 59.5964 10.3906 59.3464 10.5241C59.0993 10.6548 58.9032 10.8366 58.7583 11.0696C58.6163 11.2997 58.5453 11.5625 58.5453 11.858V16H57.5396ZM62.0044 16V9.45455H63.0101V16H62.0044ZM62.5158 8.36364C62.3198 8.36364 62.1507 8.29688 62.0087 8.16335C61.8695 8.02983 61.7999 7.86932 61.7999 7.68182C61.7999 7.49432 61.8695 7.33381 62.0087 7.20028C62.1507 7.06676 62.3198 7 62.5158 7C62.7118 7 62.8794 7.06676 63.0186 7.20028C63.1607 7.33381 63.2317 7.49432 63.2317 7.68182C63.2317 7.86932 63.1607 8.02983 63.0186 8.16335C62.8794 8.29688 62.7118 8.36364 62.5158 8.36364ZM67.6987 9.45455V10.3068H64.3066V9.45455H67.6987ZM65.2953 7.88636H66.301V14.125C66.301 14.4091 66.3422 14.6222 66.4245 14.7642C66.5098 14.9034 66.6177 14.9972 66.7484 15.0455C66.8819 15.0909 67.0225 15.1136 67.1703 15.1136C67.2811 15.1136 67.372 15.108 67.443 15.0966C67.514 15.0824 67.5708 15.071 67.6135 15.0625L67.818 15.9659C67.7498 15.9915 67.6547 16.017 67.5325 16.0426C67.4103 16.071 67.2555 16.0852 67.068 16.0852C66.7839 16.0852 66.5055 16.0241 66.2328 15.902C65.9629 15.7798 65.7385 15.5938 65.5595 15.3438C65.3833 15.0938 65.2953 14.7784 65.2953 14.3977V7.88636ZM69.8592 18.4545C69.6887 18.4545 69.5368 18.4403 69.4032 18.4119C69.2697 18.3864 69.1774 18.3608 69.1262 18.3352L69.3819 17.4489C69.6262 17.5114 69.8422 17.5341 70.0297 17.517C70.2172 17.5 70.3833 17.4162 70.5282 17.2656C70.676 17.1179 70.8109 16.8778 70.9331 16.5455L71.1206 16.0341L68.7001 9.45455H69.791L71.5978 14.6705H71.666L73.4728 9.45455H74.5637L71.7853 16.9545C71.6603 17.2926 71.5055 17.5724 71.3208 17.794C71.1362 18.0185 70.9217 18.1847 70.6774 18.2926C70.4359 18.4006 70.1632 18.4545 69.8592 18.4545Z" fill="#FC7303"/>
</svg>
