<svg width="16" height="16" viewBox="0 0 16 16" fill="none" xmlns="http://www.w3.org/2000/svg">
<g clip-path="url(#clip0_1161_4120)">
<path d="M4.66675 2H3.66675C2.93037 2 2.33341 2.59695 2.33341 3.33333V6.66667C2.33341 7.40305 1.73646 8 1.00008 8H0.666748" stroke="url(#paint0_linear_1161_4120)" stroke-width="1.5" stroke-linecap="round"/>
<path d="M4.66675 13.667H3.66675C2.93037 13.667 2.33341 13.07 2.33341 12.3337V9.33366C2.33341 8.59728 1.73646 8.00033 1.00008 8.00033H0.666748" stroke="url(#paint1_linear_1161_4120)" stroke-width="1.5" stroke-linecap="round"/>
<path d="M11.3333 2H12.3333C13.0696 2 13.6666 2.59695 13.6666 3.33333V6.66667C13.6666 7.40305 14.2635 8 14.9999 8H15.3333" stroke="url(#paint2_linear_1161_4120)" stroke-width="1.5" stroke-linecap="round"/>
<path d="M11.3333 13.667H12.3333C13.0696 13.667 13.6666 13.07 13.6666 12.3337V9.33366C13.6666 8.59728 14.2635 8.00033 14.9999 8.00033H15.3333" stroke="url(#paint3_linear_1161_4120)" stroke-width="1.5" stroke-linecap="round"/>
<path d="M10.6667 6.33301L7.66667 9.33301L6 7.81786" stroke="url(#paint4_linear_1161_4120)" stroke-width="1.33333" stroke-linecap="round" stroke-linejoin="round"/>
</g>
<defs>
<linearGradient id="paint0_linear_1161_4120" x1="2.66675" y1="2" x2="2.66675" y2="8" gradientUnits="userSpaceOnUse">
<stop stop-color="#B8C0CD"/>
<stop offset="1" stop-color="#6C7993"/>
</linearGradient>
<linearGradient id="paint1_linear_1161_4120" x1="2.66675" y1="13.667" x2="2.66675" y2="8.00033" gradientUnits="userSpaceOnUse">
<stop stop-color="#B8C0CD"/>
<stop offset="1" stop-color="#6C7993"/>
</linearGradient>
<linearGradient id="paint2_linear_1161_4120" x1="13.3333" y1="2" x2="13.3333" y2="8" gradientUnits="userSpaceOnUse">
<stop stop-color="#B8C0CD"/>
<stop offset="1" stop-color="#6C7993"/>
</linearGradient>
<linearGradient id="paint3_linear_1161_4120" x1="13.3333" y1="13.667" x2="13.3333" y2="8.00033" gradientUnits="userSpaceOnUse">
<stop stop-color="#B8C0CD"/>
<stop offset="1" stop-color="#6C7993"/>
</linearGradient>
<linearGradient id="paint4_linear_1161_4120" x1="8.33333" y1="6.33301" x2="8.33333" y2="9.33301" gradientUnits="userSpaceOnUse">
<stop stop-color="#B8C0CD"/>
<stop offset="1" stop-color="#6C7993"/>
</linearGradient>
<clipPath id="clip0_1161_4120">
<rect width="16" height="16" fill="white"/>
</clipPath>
</defs>
</svg>
