<svg width="16" height="16" viewBox="0 0 16 16" fill="none" xmlns="http://www.w3.org/2000/svg">
<path d="M8 7.66667L4.5 10M8 7.66667L8 5M8 7.66667L11.3333 9.88889M2.03269 8.07414L2.03469 8L2.07919 6.35134C2.10557 5.37365 2.66507 4.48885 3.53704 4.04585L4.69936 3.45534M10.6667 13.3333L9.19257 14.0704C8.44183 14.4458 7.55817 14.4458 6.80743 14.0704L5.33333 13.3333M13.9673 8.07414L13.9208 6.35134C13.8944 5.37365 13.3349 4.48885 12.463 4.04585L11.3006 3.45534M9.33333 3.33333C9.33333 4.06971 8.73638 4.66667 8 4.66667C7.26362 4.66667 6.66667 4.06971 6.66667 3.33333C6.66667 2.59695 7.26362 2 8 2C8.73638 2 9.33333 2.59695 9.33333 3.33333ZM14 10.8C14 11.5364 13.403 12.1333 12.6667 12.1333C11.9303 12.1333 11.3333 11.5364 11.3333 10.8C11.3333 10.0636 11.9303 9.46667 12.6667 9.46667C13.403 9.46667 14 10.0636 14 10.8ZM4.66667 10.8C4.66667 11.5364 4.06971 12.1333 3.33333 12.1333C2.59695 12.1333 2 11.5364 2 10.8C2 10.0636 2.59695 9.46667 3.33333 9.46667C4.06971 9.46667 4.66667 10.0636 4.66667 10.8Z" stroke="url(#paint0_linear_1164_4562)" stroke-width="1.5" stroke-linecap="round" stroke-linejoin="round"/>
<defs>
<linearGradient id="paint0_linear_1164_4562" x1="8" y1="2" x2="8" y2="14.3519" gradientUnits="userSpaceOnUse">
<stop stop-color="#B8C0CD"/>
<stop offset="1" stop-color="#6C7993"/>
</linearGradient>
</defs>
</svg>
