<svg width="16" height="16" viewBox="0 0 16 16" fill="none" xmlns="http://www.w3.org/2000/svg">
<path d="M12 7.99967V11.9997C12 12.3533 11.8595 12.6924 11.6095 12.9425C11.3594 13.1925 11.0203 13.333 10.6667 13.333H3.33333C2.97971 13.333 2.64057 13.1925 2.39052 12.9425C2.14048 12.6924 2 12.3533 2 11.9997V4.66634C2 4.31272 2.14048 3.97358 2.39052 3.72353C2.64057 3.47348 2.97971 3.33301 3.33333 3.33301H7.33333" stroke="url(#paint0_linear_1161_4204)" stroke-width="1.5" stroke-linecap="round" stroke-linejoin="round"/>
<path d="M10 1.33301H14V5.33301" stroke="url(#paint1_linear_1161_4204)" stroke-width="1.5" stroke-linecap="round" stroke-linejoin="round"/>
<path d="M6.66675 8.66634L14.0001 1.33301" stroke="url(#paint2_linear_1161_4204)" stroke-width="1.5" stroke-linecap="round" stroke-linejoin="round"/>
<defs>
<linearGradient id="paint0_linear_1161_4204" x1="7" y1="3.33301" x2="7" y2="13.333" gradientUnits="userSpaceOnUse">
<stop stop-color="#B8C0CD"/>
<stop offset="1" stop-color="#6C7993"/>
</linearGradient>
<linearGradient id="paint1_linear_1161_4204" x1="12" y1="1.33301" x2="12" y2="5.33301" gradientUnits="userSpaceOnUse">
<stop stop-color="#B8C0CD"/>
<stop offset="1" stop-color="#6C7993"/>
</linearGradient>
<linearGradient id="paint2_linear_1161_4204" x1="10.3334" y1="1.33301" x2="10.3334" y2="8.66634" gradientUnits="userSpaceOnUse">
<stop stop-color="#B8C0CD"/>
<stop offset="1" stop-color="#6C7993"/>
</linearGradient>
</defs>
</svg>
