<svg width="72" height="72" viewBox="0 0 72 72" fill="none" xmlns="http://www.w3.org/2000/svg">
<path d="M31.3586 14.0474L29.6448 20.5761C25.3195 21.4738 16.0161 23.4324 13.4046 24.0853C11.446 24.6566 11.0379 26.2071 11.0379 28.737V43.2635C11.0379 45.7933 11.446 47.3439 13.4046 47.9152C16.0161 48.5681 25.3195 50.5267 29.6448 51.4244L31.3586 57.9531H12.2621C5.81494 57.9531 1 53.1382 1 47.0175V24.983C1 18.8623 5.81494 14.0474 12.2621 14.0474H31.3586Z" fill="#383C40"/>
<path d="M31.3586 14.0474L29.6448 20.5761C25.3195 21.4738 16.0161 23.4324 13.4046 24.0853C11.446 24.6566 11.0379 26.2071 11.0379 28.737V43.2635C11.0379 45.7933 11.446 47.3439 13.4046 47.9152C16.0161 48.5681 25.3195 50.5267 29.6448 51.4244L31.3586 57.9531H12.2621C5.81494 57.9531 1 53.1382 1 47.0175V24.983C1 18.8623 5.81494 14.0474 12.2621 14.0474H31.3586Z" fill="#383C40"/>
<path d="M41.6414 14.0474L43.3552 20.5761C47.6805 21.4738 56.9839 23.4324 59.5954 24.0853C61.554 24.6566 61.9621 26.2071 61.9621 28.737V43.2635C61.9621 45.7933 61.554 47.3439 59.5954 47.9152C56.9839 48.5681 47.6805 50.5267 43.3552 51.4244L41.6414 57.9531H60.7379C67.1851 57.9531 72 53.1382 72 47.0175V24.983C72 18.8623 67.1851 14.0474 60.7379 14.0474H41.6414Z" fill="#383C40"/>
<path d="M29.5632 34.8577H43.2736V36.8163H29.5632V34.8577Z" fill="#383C40"/>
</svg>
