<svg width="36" height="36" viewBox="0 0 36 36" fill="none" xmlns="http://www.w3.org/2000/svg">
<g clip-path="url(#clip0_3868_188885)">
<path fill-rule="evenodd" clip-rule="evenodd" d="M23.6362 0.107297C24.1202 0.351297 24.3122 0.937297 24.0642 1.4143C23.5752 2.3563 23.3112 3.7083 23.2092 5.0983C23.1092 6.4693 23.1762 7.7673 23.2792 8.5313C23.2956 8.65862 23.2866 8.78792 23.2528 8.91176C23.2189 9.03559 23.1609 9.15151 23.0821 9.25283C23.0033 9.35415 22.9052 9.43887 22.7935 9.5021C22.6818 9.56534 22.5587 9.60585 22.4312 9.6213C22.1741 9.65608 21.9136 9.58767 21.7068 9.43103C21.4999 9.27438 21.3635 9.04223 21.3272 8.7853C21.2072 7.8863 21.1372 6.4563 21.2462 4.9583C21.3542 3.4783 21.6432 1.8183 22.3122 0.528297C22.4334 0.298355 22.6402 0.125317 22.888 0.0465484C23.1357 -0.0322205 23.4044 -0.0104006 23.6362 0.107297Z" fill="#1A1A1A"/>
<path d="M17.9281 15.4793C18.5181 12.7093 12.5121 12.2563 9.43413 12.3773C-2.69787 12.6343 2.37313 19.9723 9.09013 20.7903C11.8541 21.1273 17.1901 18.9413 17.9281 15.4793Z" fill="#CFEDFC"/>
<path d="M3.00211 13.9152C3.34211 13.6382 3.78411 13.3872 4.33911 13.1722L4.51211 13.7082L5.39211 14.8082L6.68011 15.9602L7.67011 15.8152L12.6221 15.3082L17.8261 15.8582C17.6621 16.3722 17.3971 16.8572 17.0561 17.3052C15.5161 17.0012 11.9201 16.9102 9.96611 16.9072C9.44411 17.5132 9.25511 19.5732 9.21411 20.8032C8.6298 20.7388 8.05183 20.6261 7.48611 20.4662C7.43811 19.5042 7.77411 18.1292 8.01911 17.3662C6.48811 17.4482 4.86911 18.1942 3.97511 18.7142C3.58538 18.4097 3.23056 18.0629 2.91711 17.6802L4.90211 16.6042C4.59511 16.4512 3.62711 14.9442 3.00111 13.9142L3.00211 13.9152Z" fill="#00ACE6"/>
<path d="M16.8991 18.8203L18.6821 20.0103L10.6221 31.7743L8.68513 30.4823L7.19812 28.3183L6.45312 24.7443L7.78713 21.6063L10.9881 22.5693L16.8991 18.8203Z" fill="#FFE100"/>
<path fill-rule="evenodd" clip-rule="evenodd" d="M15.2762 11.0043C17.6662 5.91826 23.4832 7.16526 26.2302 8.99726L18.6812 20.0153L17.8152 19.4373C16.7152 20.6953 14.4682 21.6483 13.4822 21.9673C13.5822 23.3823 14.7862 24.4723 15.3752 24.8413L12.8952 28.4613C10.0002 26.5293 9.15516 23.7683 9.09316 22.6293L8.02016 22.5703C6.12316 26.8133 9.09816 30.1013 10.9322 31.3253L7.72816 36.0003L8.28516 31.6103C4.67416 28.5573 5.32016 23.9443 6.09516 22.0193C3.60616 21.5323 -0.711843 17.9703 0.100157 14.9453C1.51216 9.67526 10.7802 9.76326 15.2762 11.0053V11.0043ZM17.9302 15.4643C18.4922 12.7103 12.5032 12.2603 9.43216 12.3803C7.48016 12.4223 5.97316 12.6463 4.84716 12.9983C5.34816 14.5343 6.51016 15.2983 7.07516 15.4963C10.6352 14.6963 15.2592 15.0663 17.9302 15.4653V15.4643ZM17.7052 16.1923C15.8432 15.9533 13.0672 15.8923 11.6282 15.8953C9.67216 17.2123 9.42116 19.4333 9.58816 20.8273C12.2362 20.8723 16.5282 19.0513 17.7052 16.1923ZM8.69516 20.7383C8.33816 18.7183 9.48816 16.8133 10.1932 16.0383C6.57316 16.1743 4.29016 17.1883 3.17516 17.9833C4.36816 19.2713 6.41716 20.3733 8.69516 20.7383ZM2.54016 17.1503C3.43616 16.6103 5.04016 16.1143 5.91216 15.8923C4.65016 14.9623 4.09916 13.9903 3.90516 13.3613C1.93116 14.2973 1.70716 15.7613 2.54016 17.1503ZM35.5572 8.05526C35.3593 7.88604 35.103 7.8012 34.8432 7.81897C34.5835 7.83673 34.3411 7.95568 34.1682 8.15026C33.4642 8.94926 32.2912 9.69526 31.0222 10.3053C29.7702 10.9083 28.5242 11.3313 27.7672 11.5223C27.6428 11.5528 27.5257 11.6076 27.4226 11.6836C27.3195 11.7596 27.2325 11.8553 27.1666 11.9651C27.1007 12.0749 27.0572 12.1966 27.0386 12.3233C27.02 12.45 27.0266 12.5791 27.0582 12.7033C27.1253 12.9542 27.2889 13.1686 27.5132 13.2996C27.7375 13.4307 28.0045 13.468 28.2562 13.4033C29.1462 13.1783 30.5162 12.7093 31.8862 12.0513C33.2372 11.4013 34.6912 10.5173 35.6542 9.42526C35.7389 9.32948 35.8037 9.21777 35.8447 9.09666C35.8858 8.97554 35.9023 8.84746 35.8932 8.7199C35.8842 8.59234 35.8498 8.46786 35.7921 8.35374C35.7344 8.23962 35.6545 8.13815 35.5572 8.05526Z" fill="#1A1A1A"/>
<path d="M23.2272 19.0153C25.6132 17.4423 28.2772 22.7733 29.3102 25.6363C33.5902 36.8413 24.7982 34.9323 21.5252 29.0863C20.1782 26.6813 20.2462 20.9823 23.2282 19.0163L23.2272 19.0153Z" fill="#CFEDFC"/>
<path d="M30.2602 32.1002C30.3932 31.6852 30.4642 31.1872 30.4602 30.5992L29.8912 30.6402L28.5292 30.2442L26.9642 29.4942L26.7322 28.5322L25.3622 23.8112L22.9072 19.2502C22.4832 19.5922 22.1272 20.0152 21.8322 20.4942C22.6922 21.7912 24.1172 25.0502 24.8492 26.8372C24.4742 27.5412 22.6072 28.4822 21.4652 28.9782L21.5242 29.0882C21.7912 29.5642 22.0952 30.0152 22.4252 30.4352C23.3482 30.1212 24.5162 29.3002 25.1432 28.7912C25.6362 30.2242 25.5382 31.9852 25.3832 32.9962C25.8432 33.2522 26.3032 33.4492 26.7482 33.5802L27.0202 31.3622C27.2802 31.5852 29.0572 31.9102 30.2602 32.1002Z" fill="#00ACE6"/>
<path d="M20.4652 21.1983L18.6812 20.0083L10.6212 31.7713L12.5582 33.0633L15.1482 33.6193L18.7862 32.9693L21.2412 30.5793L19.1412 28.0063L20.4652 21.1983Z" fill="#FFE100"/>
<path fill-rule="evenodd" clip-rule="evenodd" d="M28.4242 19.7743C32.3162 15.6893 28.9762 10.8283 26.2292 8.99634L18.6802 20.0133L19.5472 20.5913C18.7732 22.0673 18.7142 24.4803 18.7822 25.5013C17.4142 25.9373 15.9402 25.2413 15.3732 24.8393L12.8932 28.4593C15.7882 30.3903 18.7012 30.1353 19.7952 29.7663L20.2492 30.7293C16.9662 34.0473 12.7652 32.5493 10.9302 31.3253L7.72717 36.0003L11.6472 33.8543C15.8652 36.0233 19.9632 33.7123 21.4852 32.2853C22.8702 34.3823 27.8292 37.0083 30.3732 35.1383C34.8032 31.8813 31.2682 23.4283 28.4242 19.7743ZM23.2402 19.0063C25.6202 17.4663 28.2762 22.7803 29.3072 25.6373C29.9962 27.4403 30.3462 28.9033 30.4352 30.0653C28.8042 30.1793 27.6532 29.3993 27.2552 28.9573C26.6802 25.3993 24.6112 21.3023 23.2402 19.0063ZM22.6402 19.4833C23.5582 21.0993 24.6502 23.6173 25.1832 24.9373C24.6732 27.2183 22.6782 28.2753 21.3052 28.6423C20.2752 26.2343 20.3902 21.6263 22.6402 19.4833ZM21.7212 29.4273C23.7542 29.0013 25.1172 27.2383 25.5842 26.3033C26.8042 29.6693 26.7022 32.1373 26.3692 33.4553C24.7132 32.8423 22.9152 31.3763 21.7212 29.4273ZM27.3892 33.7253C27.5632 32.7043 27.4332 31.0513 27.3162 30.1693C28.6622 30.9773 29.7812 31.1193 30.4452 31.0643C30.3002 33.2193 29.0052 33.9713 27.3892 33.7253Z" fill="#1A1A1A"/>
</g>
<defs>
<clipPath id="clip0_3868_188885">
<rect width="36.0002" height="36.0003" fill="white"/>
</clipPath>
</defs>
</svg>
