<svg width="72" height="72" viewBox="0 0 72 72" fill="none" xmlns="http://www.w3.org/2000/svg">
<rect width="72" height="72" fill="white"/>
<path d="M15.0016 36.0361V24.5799C14.9903 24.3783 15.0396 24.1778 15.1434 24.004C15.2473 23.8301 15.4008 23.6907 15.5848 23.6034L35.5377 12.1907C35.8967 11.9687 36.2996 11.9237 36.6586 12.1457L56.7009 23.6019C56.8727 23.6998 57.0139 23.8428 57.1087 24.0151C57.2036 24.1874 57.2486 24.3824 57.2386 24.5784V47.4473C57.2486 47.6433 57.2036 47.8383 57.1087 48.0106C57.0139 48.1829 56.8727 48.3259 56.7009 48.4238L39.4835 58.2794C38.5814 58.8141 37.6694 59.3322 36.748 59.8335C36.3451 60.0555 35.9406 60.0555 35.5362 59.8335L15.5393 48.4208C15.1803 48.1988 15.0016 47.9318 15.0016 47.4878V36.0316V36.0361Z" fill="#009438"/>
<path d="M29.1853 31.6551V45.5542C29.1853 47.1252 27.9536 48.512 26.3139 48.4667C25.3132 48.4199 24.5372 48.0045 24.0045 47.1268C23.7305 46.7114 23.6396 46.2491 23.6396 45.74V26.4328C23.6396 25.1366 24.4141 24.2152 25.4163 23.7982C26.4186 23.3813 27.4209 23.475 28.4247 23.7982C29.3824 24.0762 30.1106 24.6759 30.7341 25.4161L42.8569 40.1632C42.9031 40.21 42.9493 40.3038 43.0386 40.3943V26.3391C43.0386 24.8602 44.0394 23.7045 45.4558 23.5655C47.2325 23.3344 48.418 24.6275 48.5996 25.9705V45.6479C48.5996 46.741 48.0977 47.5438 47.1863 48.0529C46.5027 48.423 45.7729 48.5151 45.0001 48.4683C43.8821 48.3928 42.8221 47.9366 41.9917 47.1736C41.536 46.7582 41.2173 46.2491 40.8062 45.7869L29.2746 31.7785C29.2746 31.7316 29.2284 31.6848 29.1822 31.6379L29.1853 31.6551Z" fill="#FEFEFE"/>
</svg>
