<svg width="72" height="72" viewBox="0 0 54 56" fill="none" xmlns="http://www.w3.org/2000/svg">
<path fill-rule="evenodd" clip-rule="evenodd" d="M11.6478 0C5.21492 0 0 5.21493 0 11.6479V34.9435C0 40.22 3.50852 44.6771 8.31991 46.109V53.4661C8.31991 54.7951 9.80109 55.5878 10.9069 54.8506L23.2957 46.5914H41.5994C48.0324 46.5914 53.2473 41.3764 53.2473 34.9435V11.6478C53.2473 5.21492 48.0324 0 41.5994 0H11.6478Z" fill="#FEE1B4"/>
<path d="M25.0353 28.5153V28.1939C25.0416 27.0908 25.1393 26.2116 25.3284 25.5561C25.5238 24.9006 25.8075 24.3711 26.1793 23.9677C26.5512 23.5643 26.9987 23.1988 27.5219 22.871C27.9126 22.6189 28.2624 22.3573 28.5713 22.0863C28.8801 21.8153 29.126 21.5159 29.3087 21.1881C29.4915 20.8541 29.5829 20.4822 29.5829 20.0725C29.5829 19.6376 29.4789 19.2563 29.2709 18.9285C29.0629 18.6008 28.7824 18.3487 28.4295 18.1722C28.0828 17.9957 27.6983 17.9074 27.276 17.9074C26.8663 17.9074 26.4787 17.9988 26.1131 18.1816C25.7476 18.3581 25.4482 18.6228 25.215 18.9758C24.9818 19.3225 24.8557 19.7542 24.8368 20.271H20.9794C21.0109 19.0105 21.3135 17.9705 21.887 17.1511C22.4606 16.3254 23.2201 15.7109 24.1655 15.3075C25.111 14.8978 26.1541 14.6929 27.2949 14.6929C28.5492 14.6929 29.6586 14.9009 30.6229 15.3169C31.5873 15.7266 32.3436 16.3223 32.892 17.1038C33.4403 17.8854 33.7145 18.8277 33.7145 19.9307C33.7145 20.6681 33.5916 21.3236 33.3458 21.8972C33.1063 22.4645 32.7691 22.9687 32.3342 23.4099C31.8992 23.8448 31.3856 24.2388 30.7931 24.5917C30.2951 24.888 29.8855 25.1968 29.564 25.5183C29.2489 25.8397 29.0125 26.2116 28.8549 26.6339C28.7037 27.0562 28.6249 27.5762 28.6186 28.1939V28.5153H25.0353ZM26.9073 34.5661C26.277 34.5661 25.7381 34.3455 25.2906 33.9043C24.8494 33.4568 24.632 32.9211 24.6383 32.2971C24.632 31.6794 24.8494 31.1499 25.2906 30.7087C25.7381 30.2675 26.277 30.0469 26.9073 30.0469C27.5061 30.0469 28.0324 30.2675 28.4862 30.7087C28.94 31.1499 29.1701 31.6794 29.1764 32.2971C29.1701 32.7131 29.0598 33.0944 28.8455 33.4411C28.6375 33.7814 28.3633 34.0556 28.0229 34.2636C27.6826 34.4653 27.3107 34.5661 26.9073 34.5661Z" fill="#FC7303"/>
</svg>
