<svg width="16" height="16" viewBox="0 0 16 16" fill="none" xmlns="http://www.w3.org/2000/svg">
<path fill-rule="evenodd" clip-rule="evenodd" d="M8.54798 1.48792L8 2L7.45203 1.48792C7.59385 1.33615 7.79228 1.25 8 1.25C8.20773 1.25 8.40615 1.33615 8.54798 1.48792ZM8 3.14474C7.98504 3.16283 7.96984 3.18125 7.95442 3.20001C7.59116 3.64201 7.10758 4.26601 6.62532 4.99425C5.63657 6.48732 4.75 8.27704 4.75 9.8C4.75 11.7403 6.23914 13.25 8 13.25C9.76086 13.25 11.25 11.7403 11.25 9.8C11.25 8.27704 10.3634 6.48732 9.37468 4.99425C8.89242 4.26601 8.40884 3.64201 8.04558 3.20001C8.03016 3.18125 8.01496 3.16283 8 3.14474ZM8 2C7.45203 1.48792 7.45191 1.48805 7.45177 1.48819L7.45143 1.48856L7.45047 1.48959L7.44747 1.49282L7.4372 1.50392L7.40025 1.54428C7.36858 1.57911 7.32311 1.62959 7.26583 1.69449C7.1513 1.82424 6.98928 2.01191 6.79558 2.2476C6.40884 2.71817 5.89242 3.38424 5.37468 4.16605C4.36343 5.69309 3.25 7.80337 3.25 9.8C3.25 12.4989 5.34259 14.75 8 14.75C10.6574 14.75 12.75 12.4989 12.75 9.8C12.75 7.80337 11.6366 5.69309 10.6253 4.16605C10.1076 3.38424 9.59116 2.71817 9.20442 2.2476C9.01072 2.01191 8.8487 1.82424 8.73417 1.69449C8.67689 1.62959 8.63142 1.57911 8.59975 1.54428L8.5628 1.50392L8.55253 1.49282L8.54953 1.48959L8.54857 1.48856L8.54823 1.48819C8.54809 1.48805 8.54798 1.48792 8 2Z" fill="url(#paint0_linear_1161_4160)"/>
<defs>
<linearGradient id="paint0_linear_1161_4160" x1="8" y1="1.25" x2="8" y2="14.75" gradientUnits="userSpaceOnUse">
<stop stop-color="#B8C0CD"/>
<stop offset="1" stop-color="#6C7993"/>
</linearGradient>
</defs>
</svg>
