<svg width="88" height="24" viewBox="0 0 88 24" fill="none" xmlns="http://www.w3.org/2000/svg">
<rect width="88" height="24" rx="4" fill="#E5EAF2"/>
<g fill="#1C2752">
<path d="M51 0 581 1490H861L1401 0H1154L1017 393H431L298 0ZM496 583H950L864 829Q834 918 799.0 1035.5Q764 1153 720 1311Q676 1151 641.5 1032.5Q607 914 579 829Z" transform="translate(8.000,16.001) scale(0.00537,-0.00537)"/>
<path d="M393 1490V0H165V1490Z" transform="translate(15.799,16.001) scale(0.00537,-0.00537)"/>
<path d="M165 0V1490H393V860H1131V1490H1360V0H1131V664H393V0Z" transform="translate(21.729,16.001) scale(0.00537,-0.00537)"/>
<path d="M133 -402 187 -223 212 -229Q297 -252 356.5 -223.5Q416 -195 447 -87L471 -5L46 1118H284L505 483Q530 409 549.0 337.0Q568 265 586 193Q605 265 625.0 337.5Q645 410 671 483L896 1118H1132L646 -155Q595 -289 508.5 -357.5Q422 -426 287 -426Q235 -426 194.5 -418.5Q154 -411 133 -402Z" transform="translate(29.919,16.001) scale(0.00537,-0.00537)"/>
<path d="M148 -418V1118H362V936H380Q399 970 434.5 1016.5Q470 1063 534.0 1097.5Q598 1132 703 1132Q837 1132 942.5 1064.0Q1048 996 1109.0 867.0Q1170 738 1170 556Q1170 376 1110.0 246.0Q1050 116 944.5 47.0Q839 -22 703 -22Q601 -22 537.0 12.5Q473 47 436.5 93.0Q400 139 380 175H368V-418ZM654 165Q750 165 814.5 217.0Q879 269 912.0 358.0Q945 447 945 558Q945 668 912.5 755.5Q880 843 815.5 894.0Q751 945 654 945Q512 945 438.0 838.5Q364 732 364 558Q364 383 439.0 274.0Q514 165 654 165Z" transform="translate(36.247,16.001) scale(0.00537,-0.00537)"/>
<path d="M630 -23Q465 -23 345.0 48.0Q225 119 160.5 248.0Q96 377 96 551Q96 723 159.5 854.0Q223 985 339.0 1058.5Q455 1132 611 1132Q738 1132 852.5 1075.5Q967 1019 1038.5 895.5Q1110 772 1110 570V492H317Q323 330 409.0 244.5Q495 159 632 159Q724 159 790.5 199.0Q857 239 886 317L1093 268Q1053 137 931.0 57.0Q809 -23 630 -23ZM318 656H892Q880 788 809.5 869.0Q739 950 612 950Q480 950 403.5 863.5Q327 777 318 656Z" transform="translate(43.046,16.001) scale(0.00537,-0.00537)"/>
<path d="M148 0V1118H361V938H373Q403 1029 480.5 1081.5Q558 1134 656 1134Q677 1134 704.5 1132.0Q732 1130 749 1128V918Q737 921 703.0 925.5Q669 930 634 930Q519 930 443.5 859.5Q368 789 368 679V0Z" transform="translate(49.508,16.001) scale(0.00537,-0.00537)"/>
<path d="M468 0 46 1118H284L505 483Q531 409 551.0 335.5Q571 262 590 188Q608 261 628.0 335.0Q648 409 673 483L894 1118H1130L708 0Z" transform="translate(53.762,16.001) scale(0.00537,-0.00537)"/>
<path d="M148 0V1118H368V0ZM259 1289Q202 1289 161.5 1327.0Q121 1365 121 1419Q121 1474 161.5 1512.0Q202 1550 259 1550Q316 1550 357.0 1512.0Q398 1474 398 1419Q398 1365 357.0 1327.0Q316 1289 259 1289Z" transform="translate(60.083,16.001) scale(0.00537,-0.00537)"/>
<path d="M549 -23Q367 -23 247.5 55.5Q128 134 98 283L305 326Q350 155 551 155Q658 155 720.5 199.5Q783 244 783 306Q783 412 626 447L438 490Q130 559 130 799Q130 899 185.5 974.0Q241 1049 338.5 1090.5Q436 1132 563 1132Q744 1132 847.0 1054.5Q950 977 986 853L789 810Q768 869 716.0 913.5Q664 958 565 958Q474 958 413.0 917.0Q352 876 352 813Q352 757 392.5 722.5Q433 688 525 667L705 627Q1010 558 1010 325Q1010 223 951.5 144.5Q893 66 789.0 21.5Q685 -23 549 -23Z" transform="translate(62.855,16.001) scale(0.00537,-0.00537)"/>
<path d="M618 -23Q461 -23 343.5 49.0Q226 121 161.0 250.5Q96 380 96 553Q96 727 161.0 857.5Q226 988 343.5 1060.0Q461 1132 618 1132Q776 1132 893.5 1060.0Q1011 988 1076.0 857.5Q1141 727 1141 553Q1141 380 1076.0 250.5Q1011 121 893.5 49.0Q776 -23 618 -23ZM618 163Q720 163 786.5 216.5Q853 270 885.5 358.5Q918 447 918 553Q918 660 885.5 749.5Q853 839 786.5 892.5Q720 946 618 946Q517 946 451.0 892.5Q385 839 352.5 749.5Q320 660 320 553Q320 447 352.5 358.5Q385 270 451.0 216.5Q517 163 618 163Z" transform="translate(68.779,16.001) scale(0.00537,-0.00537)"/>
<path d="M148 0V1118H361V938H373Q403 1029 480.5 1081.5Q558 1134 656 1134Q677 1134 704.5 1132.0Q732 1130 749 1128V918Q737 921 703.0 925.5Q669 930 634 930Q519 930 443.5 859.5Q368 789 368 679V0Z" transform="translate(75.423,16.001) scale(0.00537,-0.00537)"/>
</g>
</svg>

