<svg width="97" height="26" viewBox="0 0 97 26" fill="none" xmlns="http://www.w3.org/2000/svg">
<rect width="97" height="26" rx="4" fill="#FEF6E5"/>
<path d="M9.93475 18H8.64213L12.3808 7.81818H13.6535L17.3921 18H16.0995L13.0569 9.42898H12.9774L9.93475 18ZM10.412 14.0227H15.6222V15.1165H10.412V14.0227ZM18.9781 18V7.81818H22.4184C23.2172 7.81818 23.8701 7.96236 24.3772 8.25071C24.8876 8.53575 25.2655 8.92188 25.5107 9.40909C25.756 9.89631 25.8786 10.4399 25.8786 11.0398C25.8786 11.6397 25.756 12.1849 25.5107 12.6754C25.2688 13.166 24.8943 13.5571 24.3872 13.8487C23.8801 14.1371 23.2304 14.2812 22.4383 14.2812H19.9724V13.1875H22.3985C22.9454 13.1875 23.3846 13.093 23.716 12.9041C24.0474 12.7152 24.2877 12.46 24.4369 12.1385C24.5893 11.8137 24.6656 11.4474 24.6656 11.0398C24.6656 10.6321 24.5893 10.2675 24.4369 9.94602C24.2877 9.62453 24.0458 9.37263 23.711 9.19034C23.3763 9.00473 22.9321 8.91193 22.3786 8.91193H20.211V18H18.9781ZM29.0977 7.81818V18H27.8648V7.81818H29.0977ZM41.0756 10.3636C41.0159 9.85985 40.7739 9.46875 40.3497 9.19034C39.9255 8.91193 39.4051 8.77273 38.7886 8.77273C38.3379 8.77273 37.9434 8.84564 37.6054 8.99148C37.2706 9.13731 37.0088 9.33783 36.8199 9.59304C36.6343 9.84825 36.5415 10.1383 36.5415 10.4631C36.5415 10.7348 36.6061 10.9685 36.7354 11.1641C36.8679 11.3563 37.037 11.517 37.2425 11.6463C37.4479 11.7723 37.6634 11.8767 37.8888 11.9595C38.1141 12.0391 38.3213 12.1037 38.5102 12.1534L39.5443 12.4318C39.8095 12.5014 40.1044 12.5975 40.4292 12.7202C40.7574 12.8428 41.0706 13.0102 41.3689 13.2223C41.6705 13.4311 41.9191 13.6996 42.1146 14.0277C42.3102 14.3558 42.4079 14.7585 42.4079 15.2358C42.4079 15.786 42.2638 16.2831 41.9754 16.7273C41.6904 17.1714 41.2728 17.5244 40.7226 17.7862C40.1757 18.0481 39.5112 18.179 38.729 18.179C37.9998 18.179 37.3684 18.0613 36.8348 17.826C36.3045 17.5907 35.8869 17.2625 35.5819 16.8416C35.2803 16.4207 35.1096 15.9318 35.0699 15.375H36.3426C36.3757 15.7595 36.505 16.0777 36.7304 16.3295C36.9591 16.5781 37.2474 16.7637 37.5954 16.8864C37.9468 17.0057 38.3246 17.0653 38.729 17.0653C39.1996 17.0653 39.6222 16.9891 39.9967 16.8366C40.3712 16.6809 40.6679 16.4654 40.8866 16.1903C41.1054 15.9119 41.2148 15.5871 41.2148 15.2159C41.2148 14.8778 41.1203 14.6027 40.9314 14.3906C40.7425 14.1785 40.4939 14.0062 40.1856 13.8736C39.8774 13.741 39.5443 13.625 39.1863 13.5256L37.9335 13.1676C37.1381 12.9389 36.5083 12.6125 36.0443 12.1882C35.5803 11.764 35.3483 11.2088 35.3483 10.5227C35.3483 9.95265 35.5024 9.45549 35.8106 9.03125C36.1222 8.60369 36.5398 8.27225 37.0635 8.03693C37.5905 7.7983 38.1788 7.67898 38.8284 7.67898C39.4846 7.67898 40.068 7.79664 40.5784 8.03196C41.0888 8.26397 41.4932 8.58215 41.7915 8.98651C42.0931 9.39086 42.2522 9.8499 42.2687 10.3636H41.0756ZM47.4777 18.1591C46.7419 18.1591 46.1072 17.9967 45.5736 17.6719C45.0433 17.3438 44.634 16.8864 44.3456 16.2997C44.0606 15.7098 43.9181 15.0237 43.9181 14.2415C43.9181 13.4593 44.0606 12.7699 44.3456 12.1733C44.634 11.5734 45.035 11.1061 45.5487 10.7713C46.0658 10.4332 46.669 10.2642 47.3584 10.2642C47.7561 10.2642 48.1489 10.3305 48.5367 10.4631C48.9244 10.5956 49.2774 10.8111 49.5956 11.1094C49.9138 11.4044 50.1673 11.7955 50.3563 12.2827C50.5452 12.7699 50.6396 13.3698 50.6396 14.0824V14.5795H44.7533V13.5653H49.4465C49.4465 13.1345 49.3603 12.75 49.1879 12.4119C49.0189 12.0739 48.777 11.8071 48.4621 11.6115C48.1505 11.416 47.7826 11.3182 47.3584 11.3182C46.8911 11.3182 46.4867 11.4342 46.1453 11.6662C45.8073 11.8949 45.5471 12.1932 45.3648 12.5611C45.1825 12.929 45.0914 13.3234 45.0914 13.7443V14.4205C45.0914 14.9972 45.1908 15.486 45.3896 15.8871C45.5918 16.2848 45.8719 16.5881 46.2298 16.7969C46.5878 17.0024 47.0038 17.1051 47.4777 17.1051C47.786 17.1051 48.0644 17.062 48.3129 16.9759C48.5648 16.8864 48.7819 16.7538 48.9642 16.5781C49.1465 16.3991 49.2874 16.1771 49.3868 15.9119L50.5203 16.2301C50.401 16.6146 50.2005 16.9527 49.9188 17.2443C49.637 17.5327 49.289 17.758 48.8747 17.9205C48.4604 18.0795 47.9948 18.1591 47.4777 18.1591ZM55.5267 18.1591C54.8108 18.1591 54.1943 17.9901 53.6773 17.652C53.1602 17.3139 52.7625 16.8482 52.4841 16.255C52.2057 15.6617 52.0665 14.9839 52.0665 14.2216C52.0665 13.446 52.209 12.7616 52.4941 12.1683C52.7824 11.5717 53.1834 11.1061 53.6972 10.7713C54.2142 10.4332 54.8174 10.2642 55.5068 10.2642C56.0438 10.2642 56.5277 10.3636 56.9585 10.5625C57.3894 10.7614 57.7424 11.0398 58.0175 11.3977C58.2926 11.7557 58.4633 12.1733 58.5296 12.6506H57.3563C57.2668 12.3026 57.0679 11.9943 56.7597 11.7259C56.4548 11.4541 56.0438 11.3182 55.5267 11.3182C55.0693 11.3182 54.6683 11.4375 54.3236 11.6761C53.9822 11.9115 53.7154 12.2446 53.5232 12.6754C53.3343 13.103 53.2398 13.6051 53.2398 14.1818C53.2398 14.7718 53.3326 15.2855 53.5182 15.723C53.7071 16.1605 53.9723 16.5002 54.3137 16.7422C54.6584 16.9841 55.0627 17.1051 55.5267 17.1051C55.8316 17.1051 56.1084 17.0521 56.357 16.946C56.6056 16.84 56.816 16.6875 56.9884 16.4886C57.1607 16.2898 57.2834 16.0511 57.3563 15.7727H58.5296C58.4633 16.2235 58.2992 16.6295 58.0374 16.9908C57.7789 17.3487 57.4358 17.6338 57.0083 17.8459C56.584 18.0547 56.0902 18.1591 55.5267 18.1591ZM65.0573 14.8778V10.3636H66.2306V18H65.0573V16.7074H64.9777C64.7987 17.0952 64.5203 17.425 64.1425 17.6967C63.7646 17.9652 63.2874 18.0994 62.7107 18.0994C62.2334 18.0994 61.8092 17.995 61.4379 17.7862C61.0667 17.5741 60.7751 17.2559 60.5629 16.8317C60.3508 16.4041 60.2448 15.8655 60.2448 15.2159V10.3636H61.4181V15.1364C61.4181 15.6932 61.5738 16.1373 61.8854 16.4688C62.2003 16.8002 62.6013 16.9659 63.0885 16.9659C63.3802 16.9659 63.6768 16.8913 63.9784 16.7422C64.2834 16.593 64.5386 16.3643 64.7441 16.0561C64.9529 15.7479 65.0573 15.3551 65.0573 14.8778ZM68.3795 18V10.3636H69.5131V11.517H69.5926C69.7318 11.1392 69.9837 10.8326 70.3483 10.5973C70.7129 10.362 71.1238 10.2443 71.5812 10.2443C71.6674 10.2443 71.7751 10.246 71.9044 10.2493C72.0336 10.2526 72.1314 10.2576 72.1977 10.2642V11.4574C72.1579 11.4474 72.0668 11.4325 71.9243 11.4126C71.7851 11.3894 71.6376 11.3778 71.4818 11.3778C71.1106 11.3778 70.7791 11.4557 70.4875 11.6115C70.1991 11.764 69.9704 11.9761 69.8014 12.2479C69.6357 12.5163 69.5528 12.8229 69.5528 13.1676V18H68.3795ZM73.5885 18V10.3636H74.7618V18H73.5885ZM74.1851 9.09091C73.9564 9.09091 73.7592 9.01302 73.5935 8.85724C73.4311 8.70147 73.3499 8.5142 73.3499 8.29545C73.3499 8.0767 73.4311 7.88944 73.5935 7.73366C73.7592 7.57789 73.9564 7.5 74.1851 7.5C74.4138 7.5 74.6093 7.57789 74.7718 7.73366C74.9375 7.88944 75.0203 8.0767 75.0203 8.29545C75.0203 8.5142 74.9375 8.70147 74.7718 8.85724C74.6093 9.01302 74.4138 9.09091 74.1851 9.09091ZM80.2318 10.3636V11.358H76.2744V10.3636H80.2318ZM77.4278 8.53409H78.6011V15.8125C78.6011 16.1439 78.6492 16.3925 78.7453 16.5582C78.8447 16.7206 78.9707 16.83 79.1231 16.8864C79.2789 16.9394 79.443 16.9659 79.6153 16.9659C79.7446 16.9659 79.8506 16.9593 79.9335 16.946C80.0164 16.9295 80.0827 16.9162 80.1324 16.9062L80.371 17.9602C80.2915 17.9901 80.1804 18.0199 80.0379 18.0497C79.8954 18.0829 79.7148 18.0994 79.496 18.0994C79.1646 18.0994 78.8398 18.0282 78.5216 17.8857C78.2067 17.7431 77.9449 17.526 77.7361 17.2344C77.5306 16.9427 77.4278 16.5748 77.4278 16.1307V8.53409ZM82.7524 20.8636C82.5535 20.8636 82.3762 20.8471 82.2204 20.8139C82.0647 20.7841 81.9569 20.7543 81.8973 20.7244L82.1956 19.6903C82.4806 19.7633 82.7325 19.7898 82.9513 19.7699C83.17 19.75 83.3639 19.6522 83.5329 19.4766C83.7053 19.3042 83.8627 19.0241 84.0052 18.6364L84.224 18.0398L81.4001 10.3636H82.6729L84.7808 16.4489H84.8604L86.9683 10.3636H88.241L84.9996 19.1136C84.8537 19.508 84.6731 19.8345 84.4577 20.093C84.2422 20.3549 83.992 20.5488 83.7069 20.6747C83.4252 20.8007 83.107 20.8636 82.7524 20.8636Z" fill="#FC7303"/>
</svg>
