<svg width="94" height="22" viewBox="0 0 94 22" fill="none" xmlns="http://www.w3.org/2000/svg">
<rect width="94" height="22" rx="11" fill="#EDE9FE"/>
<g transform="translate(8,4.500) scale(0.54167)" fill="none" stroke="#5B21B6" stroke-width="2" stroke-linecap="round" stroke-linejoin="round">
<path d="M15 2H6a2 2 0 0 0-2 2v16a2 2 0 0 0 2 2h12a2 2 0 0 0 2-2V7Z"/>
<path d="M14 2v4a2 2 0 0 0 2 2h4"/>
<path d="M10 9H8"/>
<path d="M16 13H8"/>
<path d="M16 17H8"/>
</g>
<g fill="#5B21B6">
<path d="M784 -20Q590 -20 438.5 72.0Q287 164 200.0 335.0Q113 506 113 744Q113 983 200.5 1154.5Q288 1326 439.5 1418.0Q591 1510 784 1510Q941 1510 1071.0 1450.5Q1201 1391 1287.0 1278.5Q1373 1166 1398 1008H1169Q1141 1150 1033.5 1226.0Q926 1302 786 1302Q658 1302 557.0 1237.5Q456 1173 397.5 1048.5Q339 924 339 744Q339 563 397.5 439.0Q456 315 557.0 251.5Q658 188 786 188Q926 188 1033.5 264.5Q1141 341 1169 483H1399Q1376 335 1292.5 222.0Q1209 109 1078.5 44.5Q948 -20 784 -20Z" transform="translate(27.000,14.638) scale(0.00488,-0.00488)"/>
<path d="M618 -23Q461 -23 343.5 49.0Q226 121 161.0 250.5Q96 380 96 553Q96 727 161.0 857.5Q226 988 343.5 1060.0Q461 1132 618 1132Q776 1132 893.5 1060.0Q1011 988 1076.0 857.5Q1141 727 1141 553Q1141 380 1076.0 250.5Q1011 121 893.5 49.0Q776 -23 618 -23ZM618 163Q720 163 786.5 216.5Q853 270 885.5 358.5Q918 447 918 553Q918 660 885.5 749.5Q853 839 786.5 892.5Q720 946 618 946Q517 946 451.0 892.5Q385 839 352.5 749.5Q320 660 320 553Q320 447 352.5 358.5Q385 270 451.0 216.5Q517 163 618 163Z" transform="translate(34.334,14.638) scale(0.00488,-0.00488)"/>
<path d="M148 0V1118H357L362 909Q405 1025 491.0 1081.0Q577 1137 677 1137Q786 1137 858.0 1075.0Q930 1013 963 902Q1005 1015 1101.5 1076.0Q1198 1137 1317 1137Q1416 1137 1496.0 1094.0Q1576 1051 1623.5 966.0Q1671 881 1671 754V0H1451V732Q1451 844 1388.5 894.0Q1326 944 1241 944Q1137 944 1077.5 880.0Q1018 816 1018 716V0H801V746Q801 836 743.5 890.0Q686 944 597 944Q505 944 436.5 880.5Q368 817 368 695V0Z" transform="translate(40.374,14.638) scale(0.00488,-0.00488)"/>
<path d="M148 -418V1118H362V936H380Q399 970 434.5 1016.5Q470 1063 534.0 1097.5Q598 1132 703 1132Q837 1132 942.5 1064.0Q1048 996 1109.0 867.0Q1170 738 1170 556Q1170 376 1110.0 246.0Q1050 116 944.5 47.0Q839 -22 703 -22Q601 -22 537.0 12.5Q473 47 436.5 93.0Q400 139 380 175H368V-418ZM654 165Q750 165 814.5 217.0Q879 269 912.0 358.0Q945 447 945 558Q945 668 912.5 755.5Q880 843 815.5 894.0Q751 945 654 945Q512 945 438.0 838.5Q364 732 364 558Q364 383 439.0 274.0Q514 165 654 165Z" transform="translate(49.256,14.638) scale(0.00488,-0.00488)"/>
<path d="M368 1490V0H148V1490Z" transform="translate(55.438,14.638) scale(0.00488,-0.00488)"/>
<path d="M148 0V1118H368V0ZM259 1289Q202 1289 161.5 1327.0Q121 1365 121 1419Q121 1474 161.5 1512.0Q202 1550 259 1550Q316 1550 357.0 1512.0Q398 1474 398 1419Q398 1365 357.0 1327.0Q316 1289 259 1289Z" transform="translate(57.957,14.638) scale(0.00488,-0.00488)"/>
<path d="M461 -25Q354 -25 268.5 14.5Q183 54 133.0 130.0Q83 206 83 316Q83 411 120.0 472.5Q157 534 219.0 569.5Q281 605 357.5 623.0Q434 641 513 650Q661 667 728.0 679.5Q795 692 795 751V757Q795 850 740.5 901.5Q686 953 581 953Q471 953 408.0 905.0Q345 857 322 800L115 854Q153 954 224.0 1015.0Q295 1076 386.5 1104.0Q478 1132 578 1132Q645 1132 721.0 1116.0Q797 1100 864.0 1058.5Q931 1017 973.0 940.0Q1015 863 1015 742V0H802V153H791Q758 87 677.5 31.0Q597 -25 461 -25ZM510 152Q599 152 663.0 187.5Q727 223 761.5 280.0Q796 337 796 403V546Q780 530 727.5 518.5Q675 507 617.0 499.0Q559 491 525 487Q432 474 365.5 436.5Q299 399 299 313Q299 233 358.5 192.5Q418 152 510 152Z" transform="translate(60.477,14.638) scale(0.00488,-0.00488)"/>
<path d="M368 662V0H148V1118H358L359 903Q411 1021 498.5 1076.5Q586 1132 704 1132Q875 1132 979.5 1024.5Q1084 917 1084 710V0H864V683Q864 804 801.0 872.0Q738 940 628 940Q516 940 442.0 867.5Q368 795 368 662Z" transform="translate(66.155,14.638) scale(0.00488,-0.00488)"/>
<path d="M618 -23Q460 -23 343.0 49.0Q226 121 161.0 250.5Q96 380 96 553Q96 727 161.0 857.5Q226 988 343.0 1060.0Q460 1132 618 1132Q792 1132 918.5 1044.5Q1045 957 1086 802L877 752Q854 839 787.5 892.5Q721 946 619 946Q518 946 451.5 893.0Q385 840 352.5 750.5Q320 661 320 553Q320 446 352.5 357.5Q385 269 451.5 216.0Q518 163 619 163Q723 163 791.0 218.5Q859 274 881 365L1089 315Q1048 157 921.0 67.0Q794 -23 618 -23Z" transform="translate(72.171,14.638) scale(0.00488,-0.00488)"/>
<path d="M630 -23Q465 -23 345.0 48.0Q225 119 160.5 248.0Q96 377 96 551Q96 723 159.5 854.0Q223 985 339.0 1058.5Q455 1132 611 1132Q738 1132 852.5 1075.5Q967 1019 1038.5 895.5Q1110 772 1110 570V492H317Q323 330 409.0 244.5Q495 159 632 159Q724 159 790.5 199.0Q857 239 886 317L1093 268Q1053 137 931.0 57.0Q809 -23 630 -23ZM318 656H892Q880 788 809.5 869.0Q739 950 612 950Q480 950 403.5 863.5Q327 777 318 656Z" transform="translate(77.942,14.638) scale(0.00488,-0.00488)"/>
</g>
</svg>
