<svg width="84" height="22" viewBox="0 0 84 22" fill="none" xmlns="http://www.w3.org/2000/svg">
<rect width="84" height="22" rx="11" fill="#E2E8F0"/>
<g transform="translate(8,4.500) scale(0.54167)" fill="none" stroke="#0F172B" stroke-width="2" stroke-linecap="round" stroke-linejoin="round">
<path d="M20 13c0 5-3.5 7.5-7.66 8.95a1 1 0 0 1-.67 0C7.5 20.5 4 18 4 13V6a1 1 0 0 1 1-1c2 0 4.5-1.2 6.24-2.72a1.17 1.17 0 0 1 1.52 0C14.51 3.81 17 5 19 5a1 1 0 0 1 1 1z"/>
</g>
<g fill="#0F172B">
<path d="M165 0V1490H1103V1294H393V850H1053V655H393V196H1109V0Z" transform="translate(27.000,14.638) scale(0.00488,-0.00488)"/>
<path d="M57 0 439 574 80 1118H328L454 915Q490 856 519.0 801.5Q548 747 575 696Q602 747 629.5 801.5Q657 856 694 915L823 1118H1067L703 566L1084 0H837L687 238Q652 294 623.5 346.0Q595 398 568 448Q543 398 516.0 346.0Q489 294 454 238L302 0Z" transform="translate(33.030,14.638) scale(0.00488,-0.00488)"/>
<path d="M630 -23Q465 -23 345.0 48.0Q225 119 160.5 248.0Q96 377 96 551Q96 723 159.5 854.0Q223 985 339.0 1058.5Q455 1132 611 1132Q738 1132 852.5 1075.5Q967 1019 1038.5 895.5Q1110 772 1110 570V492H317Q323 330 409.0 244.5Q495 159 632 159Q724 159 790.5 199.0Q857 239 886 317L1093 268Q1053 137 931.0 57.0Q809 -23 630 -23ZM318 656H892Q880 788 809.5 869.0Q739 950 612 950Q480 950 403.5 863.5Q327 777 318 656Z" transform="translate(38.602,14.638) scale(0.00488,-0.00488)"/>
<path d="M618 -23Q460 -23 343.0 49.0Q226 121 161.0 250.5Q96 380 96 553Q96 727 161.0 857.5Q226 988 343.0 1060.0Q460 1132 618 1132Q792 1132 918.5 1044.5Q1045 957 1086 802L877 752Q854 839 787.5 892.5Q721 946 619 946Q518 946 451.5 893.0Q385 840 352.5 750.5Q320 661 320 553Q320 446 352.5 357.5Q385 269 451.5 216.0Q518 163 619 163Q723 163 791.0 218.5Q859 274 881 365L1089 315Q1048 157 921.0 67.0Q794 -23 618 -23Z" transform="translate(44.476,14.638) scale(0.00488,-0.00488)"/>
<path d="M529 -14Q358 -14 253.0 93.5Q148 201 148 408V1118H368V435Q368 314 431.5 246.0Q495 178 604 178Q716 178 790.0 250.5Q864 323 864 456V1118H1085V0H874L873 217Q820 95 732.5 40.5Q645 -14 529 -14Z" transform="translate(50.247,14.638) scale(0.00488,-0.00488)"/>
<path d="M626 1118V939H403V302Q403 235 431.5 203.5Q460 172 525 172Q543 172 570.5 176.0Q598 180 618 184L657 8Q622 -4 581.5 -9.5Q541 -15 503 -15Q351 -15 267.0 63.5Q183 142 183 284V939H20V1118H183V1384H403V1118Z" transform="translate(56.263,14.638) scale(0.00488,-0.00488)"/>
<path d="M148 0V1118H368V0ZM259 1289Q202 1289 161.5 1327.0Q121 1365 121 1419Q121 1474 161.5 1512.0Q202 1550 259 1550Q316 1550 357.0 1512.0Q398 1474 398 1419Q398 1365 357.0 1327.0Q316 1289 259 1289Z" transform="translate(59.666,14.638) scale(0.00488,-0.00488)"/>
<path d="M468 0 46 1118H284L505 483Q531 409 551.0 335.5Q571 262 590 188Q608 261 628.0 335.0Q648 409 673 483L894 1118H1130L708 0Z" transform="translate(62.186,14.638) scale(0.00488,-0.00488)"/>
<path d="M630 -23Q465 -23 345.0 48.0Q225 119 160.5 248.0Q96 377 96 551Q96 723 159.5 854.0Q223 985 339.0 1058.5Q455 1132 611 1132Q738 1132 852.5 1075.5Q967 1019 1038.5 895.5Q1110 772 1110 570V492H317Q323 330 409.0 244.5Q495 159 632 159Q724 159 790.5 199.0Q857 239 886 317L1093 268Q1053 137 931.0 57.0Q809 -23 630 -23ZM318 656H892Q880 788 809.5 869.0Q739 950 612 950Q480 950 403.5 863.5Q327 777 318 656Z" transform="translate(67.933,14.638) scale(0.00488,-0.00488)"/>
</g>
</svg>
