<svg width="123" height="22" viewBox="0 0 123 22" fill="none" xmlns="http://www.w3.org/2000/svg">
<rect width="123" height="22" rx="11" fill="#CCFBF1"/>
<g transform="translate(8,4.500) scale(0.54167)" fill="none" stroke="#115E59" stroke-width="2" stroke-linecap="round" stroke-linejoin="round">
<rect x="2" y="2" width="20" height="8" rx="2"/>
<rect x="2" y="14" width="20" height="8" rx="2"/>
<line x1="6" x2="6.01" y1="6" y2="6"/>
<line x1="6" x2="6.01" y1="18" y2="18"/>
</g>
<g fill="#115E59">
<path d="M165 0V1490H699Q871 1490 986.0 1426.5Q1101 1363 1158.0 1253.5Q1215 1144 1215 1006Q1215 868 1157.5 758.5Q1100 649 985.0 585.5Q870 522 697 522H393V0ZM393 715H675Q839 715 911.5 797.5Q984 880 984 1006Q984 1132 911.5 1213.5Q839 1295 673 1295H393Z" transform="translate(27.000,14.638) scale(0.00488,-0.00488)"/>
<path d="M368 1490V0H148V1490Z" transform="translate(33.416,14.638) scale(0.00488,-0.00488)"/>
<path d="M461 -25Q354 -25 268.5 14.5Q183 54 133.0 130.0Q83 206 83 316Q83 411 120.0 472.5Q157 534 219.0 569.5Q281 605 357.5 623.0Q434 641 513 650Q661 667 728.0 679.5Q795 692 795 751V757Q795 850 740.5 901.5Q686 953 581 953Q471 953 408.0 905.0Q345 857 322 800L115 854Q153 954 224.0 1015.0Q295 1076 386.5 1104.0Q478 1132 578 1132Q645 1132 721.0 1116.0Q797 1100 864.0 1058.5Q931 1017 973.0 940.0Q1015 863 1015 742V0H802V153H791Q758 87 677.5 31.0Q597 -25 461 -25ZM510 152Q599 152 663.0 187.5Q727 223 761.5 280.0Q796 337 796 403V546Q780 530 727.5 518.5Q675 507 617.0 499.0Q559 491 525 487Q432 474 365.5 436.5Q299 399 299 313Q299 233 358.5 192.5Q418 152 510 152Z" transform="translate(35.936,14.638) scale(0.00488,-0.00488)"/>
<path d="M626 1118V939H403V302Q403 235 431.5 203.5Q460 172 525 172Q543 172 570.5 176.0Q598 180 618 184L657 8Q622 -4 581.5 -9.5Q541 -15 503 -15Q351 -15 267.0 63.5Q183 142 183 284V939H20V1118H183V1384H403V1118Z" transform="translate(41.614,14.638) scale(0.00488,-0.00488)"/>
<path d="M702 1118V939H452V0H232V939H20V1118H232V1246Q232 1350 278.5 1420.0Q325 1490 400.5 1525.0Q476 1560 565 1560Q631 1560 678.5 1549.5Q726 1539 749 1530L698 1352Q682 1356 658.0 1362.0Q634 1368 600 1368Q521 1368 486.5 1329.0Q452 1290 452 1216V1118Z" transform="translate(45.018,14.638) scale(0.00488,-0.00488)"/>
<path d="M618 -23Q461 -23 343.5 49.0Q226 121 161.0 250.5Q96 380 96 553Q96 727 161.0 857.5Q226 988 343.5 1060.0Q461 1132 618 1132Q776 1132 893.5 1060.0Q1011 988 1076.0 857.5Q1141 727 1141 553Q1141 380 1076.0 250.5Q1011 121 893.5 49.0Q776 -23 618 -23ZM618 163Q720 163 786.5 216.5Q853 270 885.5 358.5Q918 447 918 553Q918 660 885.5 749.5Q853 839 786.5 892.5Q720 946 618 946Q517 946 451.0 892.5Q385 839 352.5 749.5Q320 660 320 553Q320 447 352.5 358.5Q385 270 451.0 216.5Q517 163 618 163Z" transform="translate(48.812,14.638) scale(0.00488,-0.00488)"/>
<path d="M148 0V1118H361V938H373Q403 1029 480.5 1081.5Q558 1134 656 1134Q677 1134 704.5 1132.0Q732 1130 749 1128V918Q737 921 703.0 925.5Q669 930 634 930Q519 930 443.5 859.5Q368 789 368 679V0Z" transform="translate(54.852,14.638) scale(0.00488,-0.00488)"/>
<path d="M148 0V1118H357L362 909Q405 1025 491.0 1081.0Q577 1137 677 1137Q786 1137 858.0 1075.0Q930 1013 963 902Q1005 1015 1101.5 1076.0Q1198 1137 1317 1137Q1416 1137 1496.0 1094.0Q1576 1051 1623.5 966.0Q1671 881 1671 754V0H1451V732Q1451 844 1388.5 894.0Q1326 944 1241 944Q1137 944 1077.5 880.0Q1018 816 1018 716V0H801V746Q801 836 743.5 890.0Q686 944 597 944Q505 944 436.5 880.5Q368 817 368 695V0Z" transform="translate(58.719,14.638) scale(0.00488,-0.00488)"/>
<path d="M165 0V1490H1103V1294H393V850H1053V655H393V196H1109V0Z" transform="translate(70.267,14.638) scale(0.00488,-0.00488)"/>
<path d="M368 662V0H148V1118H358L359 903Q411 1021 498.5 1076.5Q586 1132 704 1132Q875 1132 979.5 1024.5Q1084 917 1084 710V0H864V683Q864 804 801.0 872.0Q738 940 628 940Q516 940 442.0 867.5Q368 795 368 662Z" transform="translate(76.297,14.638) scale(0.00488,-0.00488)"/>
<path d="M616 -442Q422 -442 305.0 -371.0Q188 -300 141 -199L325 -112Q345 -144 378.5 -179.5Q412 -215 468.5 -240.0Q525 -265 615 -265Q742 -265 822.0 -204.5Q902 -144 902 -15V203H883Q863 166 827.5 123.0Q792 80 728.5 48.5Q665 17 563 17Q431 17 325.5 79.0Q220 141 158.0 262.5Q96 384 96 563Q96 741 157.5 868.5Q219 996 325.0 1064.0Q431 1132 566 1132Q669 1132 733.5 1097.5Q798 1063 834.5 1017.0Q871 971 890 936H906V1118H1121V-16Q1121 -163 1054.0 -257.0Q987 -351 873.0 -396.5Q759 -442 616 -442ZM614 200Q754 200 828.5 297.0Q903 394 903 566Q903 734 829.5 839.5Q756 945 614 945Q517 945 451.5 894.5Q386 844 353.5 758.5Q321 673 321 566Q321 402 395.5 301.0Q470 200 614 200Z" transform="translate(82.312,14.638) scale(0.00488,-0.00488)"/>
<path d="M148 0V1118H368V0ZM259 1289Q202 1289 161.5 1327.0Q121 1365 121 1419Q121 1474 161.5 1512.0Q202 1550 259 1550Q316 1550 357.0 1512.0Q398 1474 398 1419Q398 1365 357.0 1327.0Q316 1289 259 1289Z" transform="translate(88.509,14.638) scale(0.00488,-0.00488)"/>
<path d="M368 662V0H148V1118H358L359 903Q411 1021 498.5 1076.5Q586 1132 704 1132Q875 1132 979.5 1024.5Q1084 917 1084 710V0H864V683Q864 804 801.0 872.0Q738 940 628 940Q516 940 442.0 867.5Q368 795 368 662Z" transform="translate(91.028,14.638) scale(0.00488,-0.00488)"/>
<path d="M630 -23Q465 -23 345.0 48.0Q225 119 160.5 248.0Q96 377 96 551Q96 723 159.5 854.0Q223 985 339.0 1058.5Q455 1132 611 1132Q738 1132 852.5 1075.5Q967 1019 1038.5 895.5Q1110 772 1110 570V492H317Q323 330 409.0 244.5Q495 159 632 159Q724 159 790.5 199.0Q857 239 886 317L1093 268Q1053 137 931.0 57.0Q809 -23 630 -23ZM318 656H892Q880 788 809.5 869.0Q739 950 612 950Q480 950 403.5 863.5Q327 777 318 656Z" transform="translate(97.044,14.638) scale(0.00488,-0.00488)"/>
<path d="M630 -23Q465 -23 345.0 48.0Q225 119 160.5 248.0Q96 377 96 551Q96 723 159.5 854.0Q223 985 339.0 1058.5Q455 1132 611 1132Q738 1132 852.5 1075.5Q967 1019 1038.5 895.5Q1110 772 1110 570V492H317Q323 330 409.0 244.5Q495 159 632 159Q724 159 790.5 199.0Q857 239 886 317L1093 268Q1053 137 931.0 57.0Q809 -23 630 -23ZM318 656H892Q880 788 809.5 869.0Q739 950 612 950Q480 950 403.5 863.5Q327 777 318 656Z" transform="translate(102.918,14.638) scale(0.00488,-0.00488)"/>
<path d="M148 0V1118H361V938H373Q403 1029 480.5 1081.5Q558 1134 656 1134Q677 1134 704.5 1132.0Q732 1130 749 1128V918Q737 921 703.0 925.5Q669 930 634 930Q519 930 443.5 859.5Q368 789 368 679V0Z" transform="translate(108.792,14.638) scale(0.00488,-0.00488)"/>
</g>
</svg>
