<svg width="86" height="22" viewBox="0 0 86 22" fill="none" xmlns="http://www.w3.org/2000/svg">
<rect width="86" height="22" rx="11" fill="#DCFCE7"/>
<g transform="translate(8,4.500) scale(0.54167)" fill="none" stroke="#14532D" stroke-width="2" stroke-linecap="round" stroke-linejoin="round">
<polyline points="16 18 22 12 16 6"/>
<polyline points="8 6 2 12 8 18"/>
</g>
<g fill="#14532D">
<path d="M650 0H165V1490H664Q884 1490 1041.0 1400.5Q1198 1311 1282.0 1145.0Q1366 979 1366 747Q1366 514 1281.5 347.0Q1197 180 1036.5 90.0Q876 0 650 0ZM393 200H637Q890 200 1016.0 341.5Q1142 483 1142 747Q1142 1010 1017.5 1150.0Q893 1290 649 1290H393Z" transform="translate(27.000,14.638) scale(0.00488,-0.00488)"/>
<path d="M630 -23Q465 -23 345.0 48.0Q225 119 160.5 248.0Q96 377 96 551Q96 723 159.5 854.0Q223 985 339.0 1058.5Q455 1132 611 1132Q738 1132 852.5 1075.5Q967 1019 1038.5 895.5Q1110 772 1110 570V492H317Q323 330 409.0 244.5Q495 159 632 159Q724 159 790.5 199.0Q857 239 886 317L1093 268Q1053 137 931.0 57.0Q809 -23 630 -23ZM318 656H892Q880 788 809.5 869.0Q739 950 612 950Q480 950 403.5 863.5Q327 777 318 656Z" transform="translate(34.217,14.638) scale(0.00488,-0.00488)"/>
<path d="M468 0 46 1118H284L505 483Q531 409 551.0 335.5Q571 262 590 188Q608 261 628.0 335.0Q648 409 673 483L894 1118H1130L708 0Z" transform="translate(40.091,14.638) scale(0.00488,-0.00488)"/>
<path d="M630 -23Q465 -23 345.0 48.0Q225 119 160.5 248.0Q96 377 96 551Q96 723 159.5 854.0Q223 985 339.0 1058.5Q455 1132 611 1132Q738 1132 852.5 1075.5Q967 1019 1038.5 895.5Q1110 772 1110 570V492H317Q323 330 409.0 244.5Q495 159 632 159Q724 159 790.5 199.0Q857 239 886 317L1093 268Q1053 137 931.0 57.0Q809 -23 630 -23ZM318 656H892Q880 788 809.5 869.0Q739 950 612 950Q480 950 403.5 863.5Q327 777 318 656Z" transform="translate(45.838,14.638) scale(0.00488,-0.00488)"/>
<path d="M368 1490V0H148V1490Z" transform="translate(51.712,14.638) scale(0.00488,-0.00488)"/>
<path d="M618 -23Q461 -23 343.5 49.0Q226 121 161.0 250.5Q96 380 96 553Q96 727 161.0 857.5Q226 988 343.5 1060.0Q461 1132 618 1132Q776 1132 893.5 1060.0Q1011 988 1076.0 857.5Q1141 727 1141 553Q1141 380 1076.0 250.5Q1011 121 893.5 49.0Q776 -23 618 -23ZM618 163Q720 163 786.5 216.5Q853 270 885.5 358.5Q918 447 918 553Q918 660 885.5 749.5Q853 839 786.5 892.5Q720 946 618 946Q517 946 451.0 892.5Q385 839 352.5 749.5Q320 660 320 553Q320 447 352.5 358.5Q385 270 451.0 216.5Q517 163 618 163Z" transform="translate(54.231,14.638) scale(0.00488,-0.00488)"/>
<path d="M148 -418V1118H362V936H380Q399 970 434.5 1016.5Q470 1063 534.0 1097.5Q598 1132 703 1132Q837 1132 942.5 1064.0Q1048 996 1109.0 867.0Q1170 738 1170 556Q1170 376 1110.0 246.0Q1050 116 944.5 47.0Q839 -22 703 -22Q601 -22 537.0 12.5Q473 47 436.5 93.0Q400 139 380 175H368V-418ZM654 165Q750 165 814.5 217.0Q879 269 912.0 358.0Q945 447 945 558Q945 668 912.5 755.5Q880 843 815.5 894.0Q751 945 654 945Q512 945 438.0 838.5Q364 732 364 558Q364 383 439.0 274.0Q514 165 654 165Z" transform="translate(60.271,14.638) scale(0.00488,-0.00488)"/>
<path d="M630 -23Q465 -23 345.0 48.0Q225 119 160.5 248.0Q96 377 96 551Q96 723 159.5 854.0Q223 985 339.0 1058.5Q455 1132 611 1132Q738 1132 852.5 1075.5Q967 1019 1038.5 895.5Q1110 772 1110 570V492H317Q323 330 409.0 244.5Q495 159 632 159Q724 159 790.5 199.0Q857 239 886 317L1093 268Q1053 137 931.0 57.0Q809 -23 630 -23ZM318 656H892Q880 788 809.5 869.0Q739 950 612 950Q480 950 403.5 863.5Q327 777 318 656Z" transform="translate(66.453,14.638) scale(0.00488,-0.00488)"/>
<path d="M148 0V1118H361V938H373Q403 1029 480.5 1081.5Q558 1134 656 1134Q677 1134 704.5 1132.0Q732 1130 749 1128V918Q737 921 703.0 925.5Q669 930 634 930Q519 930 443.5 859.5Q368 789 368 679V0Z" transform="translate(72.327,14.638) scale(0.00488,-0.00488)"/>
</g>
</svg>
