<svg width="122" height="22" viewBox="0 0 122 22" fill="none" xmlns="http://www.w3.org/2000/svg">
<rect width="122" height="22" rx="11" fill="#FFEDD5"/>
<g transform="translate(8,4.500) scale(0.54167)" fill="none" stroke="#9A3412" stroke-width="2" stroke-linecap="round" stroke-linejoin="round">
<path d="M22 12h-2.48a2 2 0 0 0-1.93 1.46l-2.35 8.36a.5.5 0 0 1-.96 0L9.68 3.18a.5.5 0 0 0-.96 0l-2.35 8.36A2 2 0 0 1 4.45 13H2"/>
</g>
<g fill="#9A3412">
<path d="M665 -25Q414 -25 265.0 92.5Q116 210 106 414H335Q345 292 440.0 233.5Q535 175 664 175Q806 175 899.0 241.0Q992 307 992 415Q992 512 910.5 559.5Q829 607 709 639L535 687Q352 736 249.5 832.0Q147 928 147 1081Q147 1210 216.5 1306.5Q286 1403 405.5 1456.5Q525 1510 675 1510Q828 1510 944.5 1456.5Q1061 1403 1127.5 1309.5Q1194 1216 1197 1098H975Q964 1200 880.5 1256.0Q797 1312 670 1312Q535 1312 455.0 1250.5Q375 1189 375 1094Q375 1023 418.0 979.5Q461 936 523.5 910.5Q586 885 643 870L788 832Q859 814 934.5 783.5Q1010 753 1074.0 704.5Q1138 656 1177.5 584.5Q1217 513 1217 412Q1217 286 1152.0 187.0Q1087 88 963.5 31.5Q840 -25 665 -25Z" transform="translate(27.000,14.638) scale(0.00488,-0.00488)"/>
<path d="M630 -23Q465 -23 345.0 48.0Q225 119 160.5 248.0Q96 377 96 551Q96 723 159.5 854.0Q223 985 339.0 1058.5Q455 1132 611 1132Q738 1132 852.5 1075.5Q967 1019 1038.5 895.5Q1110 772 1110 570V492H317Q323 330 409.0 244.5Q495 159 632 159Q724 159 790.5 199.0Q857 239 886 317L1093 268Q1053 137 931.0 57.0Q809 -23 630 -23ZM318 656H892Q880 788 809.5 869.0Q739 950 612 950Q480 950 403.5 863.5Q327 777 318 656Z" transform="translate(33.460,14.638) scale(0.00488,-0.00488)"/>
<path d="M618 -23Q460 -23 343.0 49.0Q226 121 161.0 250.5Q96 380 96 553Q96 727 161.0 857.5Q226 988 343.0 1060.0Q460 1132 618 1132Q792 1132 918.5 1044.5Q1045 957 1086 802L877 752Q854 839 787.5 892.5Q721 946 619 946Q518 946 451.5 893.0Q385 840 352.5 750.5Q320 661 320 553Q320 446 352.5 357.5Q385 269 451.5 216.0Q518 163 619 163Q723 163 791.0 218.5Q859 274 881 365L1089 315Q1048 157 921.0 67.0Q794 -23 618 -23Z" transform="translate(39.334,14.638) scale(0.00488,-0.00488)"/>
<path d="M529 -14Q358 -14 253.0 93.5Q148 201 148 408V1118H368V435Q368 314 431.5 246.0Q495 178 604 178Q716 178 790.0 250.5Q864 323 864 456V1118H1085V0H874L873 217Q820 95 732.5 40.5Q645 -14 529 -14Z" transform="translate(45.105,14.638) scale(0.00488,-0.00488)"/>
<path d="M148 0V1118H361V938H373Q403 1029 480.5 1081.5Q558 1134 656 1134Q677 1134 704.5 1132.0Q732 1130 749 1128V918Q737 921 703.0 925.5Q669 930 634 930Q519 930 443.5 859.5Q368 789 368 679V0Z" transform="translate(51.121,14.638) scale(0.00488,-0.00488)"/>
<path d="M148 0V1118H368V0ZM259 1289Q202 1289 161.5 1327.0Q121 1365 121 1419Q121 1474 161.5 1512.0Q202 1550 259 1550Q316 1550 357.0 1512.0Q398 1474 398 1419Q398 1365 357.0 1327.0Q316 1289 259 1289Z" transform="translate(54.988,14.638) scale(0.00488,-0.00488)"/>
<path d="M626 1118V939H403V302Q403 235 431.5 203.5Q460 172 525 172Q543 172 570.5 176.0Q598 180 618 184L657 8Q622 -4 581.5 -9.5Q541 -15 503 -15Q351 -15 267.0 63.5Q183 142 183 284V939H20V1118H183V1384H403V1118Z" transform="translate(57.508,14.638) scale(0.00488,-0.00488)"/>
<path d="M133 -402 187 -223 212 -229Q297 -252 356.5 -223.5Q416 -195 447 -87L471 -5L46 1118H284L505 483Q530 409 549.0 337.0Q568 265 586 193Q605 265 625.0 337.5Q645 410 671 483L896 1118H1132L646 -155Q595 -289 508.5 -357.5Q422 -426 287 -426Q235 -426 194.5 -418.5Q154 -411 133 -402Z" transform="translate(60.911,14.638) scale(0.00488,-0.00488)"/>
<path d="M165 0V1490H1103V1294H393V850H1053V655H393V196H1109V0Z" transform="translate(69.329,14.638) scale(0.00488,-0.00488)"/>
<path d="M368 662V0H148V1118H358L359 903Q411 1021 498.5 1076.5Q586 1132 704 1132Q875 1132 979.5 1024.5Q1084 917 1084 710V0H864V683Q864 804 801.0 872.0Q738 940 628 940Q516 940 442.0 867.5Q368 795 368 662Z" transform="translate(75.359,14.638) scale(0.00488,-0.00488)"/>
<path d="M616 -442Q422 -442 305.0 -371.0Q188 -300 141 -199L325 -112Q345 -144 378.5 -179.5Q412 -215 468.5 -240.0Q525 -265 615 -265Q742 -265 822.0 -204.5Q902 -144 902 -15V203H883Q863 166 827.5 123.0Q792 80 728.5 48.5Q665 17 563 17Q431 17 325.5 79.0Q220 141 158.0 262.5Q96 384 96 563Q96 741 157.5 868.5Q219 996 325.0 1064.0Q431 1132 566 1132Q669 1132 733.5 1097.5Q798 1063 834.5 1017.0Q871 971 890 936H906V1118H1121V-16Q1121 -163 1054.0 -257.0Q987 -351 873.0 -396.5Q759 -442 616 -442ZM614 200Q754 200 828.5 297.0Q903 394 903 566Q903 734 829.5 839.5Q756 945 614 945Q517 945 451.5 894.5Q386 844 353.5 758.5Q321 673 321 566Q321 402 395.5 301.0Q470 200 614 200Z" transform="translate(81.375,14.638) scale(0.00488,-0.00488)"/>
<path d="M148 0V1118H368V0ZM259 1289Q202 1289 161.5 1327.0Q121 1365 121 1419Q121 1474 161.5 1512.0Q202 1550 259 1550Q316 1550 357.0 1512.0Q398 1474 398 1419Q398 1365 357.0 1327.0Q316 1289 259 1289Z" transform="translate(87.571,14.638) scale(0.00488,-0.00488)"/>
<path d="M368 662V0H148V1118H358L359 903Q411 1021 498.5 1076.5Q586 1132 704 1132Q875 1132 979.5 1024.5Q1084 917 1084 710V0H864V683Q864 804 801.0 872.0Q738 940 628 940Q516 940 442.0 867.5Q368 795 368 662Z" transform="translate(90.091,14.638) scale(0.00488,-0.00488)"/>
<path d="M630 -23Q465 -23 345.0 48.0Q225 119 160.5 248.0Q96 377 96 551Q96 723 159.5 854.0Q223 985 339.0 1058.5Q455 1132 611 1132Q738 1132 852.5 1075.5Q967 1019 1038.5 895.5Q1110 772 1110 570V492H317Q323 330 409.0 244.5Q495 159 632 159Q724 159 790.5 199.0Q857 239 886 317L1093 268Q1053 137 931.0 57.0Q809 -23 630 -23ZM318 656H892Q880 788 809.5 869.0Q739 950 612 950Q480 950 403.5 863.5Q327 777 318 656Z" transform="translate(96.106,14.638) scale(0.00488,-0.00488)"/>
<path d="M630 -23Q465 -23 345.0 48.0Q225 119 160.5 248.0Q96 377 96 551Q96 723 159.5 854.0Q223 985 339.0 1058.5Q455 1132 611 1132Q738 1132 852.5 1075.5Q967 1019 1038.5 895.5Q1110 772 1110 570V492H317Q323 330 409.0 244.5Q495 159 632 159Q724 159 790.5 199.0Q857 239 886 317L1093 268Q1053 137 931.0 57.0Q809 -23 630 -23ZM318 656H892Q880 788 809.5 869.0Q739 950 612 950Q480 950 403.5 863.5Q327 777 318 656Z" transform="translate(101.980,14.638) scale(0.00488,-0.00488)"/>
<path d="M148 0V1118H361V938H373Q403 1029 480.5 1081.5Q558 1134 656 1134Q677 1134 704.5 1132.0Q732 1130 749 1128V918Q737 921 703.0 925.5Q669 930 634 930Q519 930 443.5 859.5Q368 789 368 679V0Z" transform="translate(107.854,14.638) scale(0.00488,-0.00488)"/>
</g>
</svg>
