<svg width="117" height="24" viewBox="0 0 117 24" fill="none" xmlns="http://www.w3.org/2000/svg">
<g clip-path="url(#clip0_825_4689)">
<path fill-rule="evenodd" clip-rule="evenodd" d="M49.2643 6.78245H51.4056L54.0821 14.8096L56.2233 6.78245H58.8998L55.1527 18.5593H53.0115L50.3349 10.5296L47.6584 18.5593H45.5172L41.77 6.78245H44.4465L46.5877 14.8096L49.2643 6.78245ZM63.3276 16.8055C65.08 16.8055 66.3942 15.8194 66.3942 14.3726V13.6495C65.7153 13.3866 64.7732 13.1892 63.7436 13.1892C62.0787 13.1892 61.093 13.8682 61.093 15.0519V15.0963C61.093 16.1919 62.0787 16.8055 63.3276 16.8055ZM60.5058 7.38845C61.4842 7.0352 62.5706 6.81112 63.9887 6.81112C67.4058 6.81112 69.0707 8.51031 69.0707 11.6002V18.5593H66.3942V17.1348C65.6054 18.0765 64.4489 18.8 62.6962 18.8C60.5058 18.8 58.5783 17.5509 58.5783 15.2275V15.1842C58.5783 12.6852 60.572 11.4575 63.2661 11.4575C64.6679 11.4575 65.4961 11.655 66.3942 11.9398V11.655C66.3942 10.0549 65.4564 9.17817 63.6164 9.17817C62.4171 9.17817 61.472 9.42562 60.5058 9.81096V7.38845ZM70.6766 18.5593V2.5H73.3531V18.5593H70.6766ZM74.9591 18.5593V2.5H77.6356L77.6891 18.5593H74.9591ZM83.6693 16.8055C85.4216 16.8055 86.7359 15.8194 86.7359 14.3726V13.6495C86.057 13.3866 85.1148 13.1892 84.0853 13.1892C82.4203 13.1892 81.4347 13.8682 81.4347 15.0519V15.0963C81.4347 16.1919 82.4203 16.8055 83.6693 16.8055ZM80.8475 7.38845C81.8259 7.0352 82.9123 6.81112 84.3304 6.81112C87.7475 6.81112 89.4124 8.51031 89.4124 11.6002V18.5593H86.7359V17.1348C85.9471 18.0765 84.7905 18.8 83.0379 18.8C80.8475 18.8 78.9199 17.5509 78.9199 15.2275V15.1842C78.9199 12.6852 80.9136 11.4575 83.6078 11.4575C85.0096 11.4575 85.8378 11.655 86.7359 11.9398V11.655C86.7359 10.0549 85.7982 9.17817 83.9581 9.17817C82.7587 9.17817 81.8137 9.42562 80.8475 9.81096V7.38845ZM91.0183 18.5593V6.78245H93.6948V9.39052C94.4177 7.65915 95.7214 6.47551 97.7584 6.56323V9.36875H97.6052C95.2835 9.36875 93.6948 10.8806 93.6948 13.9492V18.5593H91.0183ZM116.713 10.9685V18.5593H114.036V11.9312C114.036 10.0901 113.208 8.9523 111.719 8.9523C110.273 8.9523 109.219 10.068 109.219 11.9312V18.5593H106.542V11.7578C106.542 9.9601 105.717 8.9523 104.249 8.9523C102.782 8.9523 101.724 10.1336 101.724 11.9312V18.5593H99.0478V6.78245H101.724V8.53564C102.47 7.50548 103.527 6.54106 105.301 6.54106C106.966 6.54106 108.127 7.35201 108.74 8.57902C109.682 7.35201 110.908 6.54106 112.661 6.54106C115.18 6.54106 116.713 8.14136 116.713 10.9685Z" fill="black"/>
<path d="M0 7.64748L14.4825 1.5V10.2452L27.8587 4.56737V11.5837L35 8.55241V13.5315L27.8587 16.5628V13.9032L14.4687 19.5869V15.491L0 21.6326V7.64748Z" fill="#FC7303"/>
</g>
<defs>
<clipPath id="clip0_825_4689">
<rect width="117" height="21" fill="white" transform="translate(0 1.5)"/>
</clipPath>
</defs>
</svg>
