<svg width="156" height="28" viewBox="0 0 156 28" fill="none" xmlns="http://www.w3.org/2000/svg">
<path fill-rule="evenodd" clip-rule="evenodd" d="M65.6823 7.04392H68.5374L72.1061 17.7468L74.961 7.04392H78.5297L73.5335 22.7463H70.6785L67.1098 12.0401L63.5411 22.7463H60.6862L55.6899 7.04392H59.2586L62.1136 17.7468L65.6823 7.04392ZM84.4334 20.4079C86.7699 20.4079 88.5222 19.0932 88.5222 17.1641V16.2C87.617 15.8494 86.3608 15.5862 84.988 15.5862C82.7681 15.5862 81.4539 16.4916 81.4539 18.0698V18.129C81.4539 19.5898 82.7681 20.4079 84.4334 20.4079ZM80.671 7.85191C81.9755 7.38092 83.4241 7.08214 85.3148 7.08214C89.871 7.08214 92.0909 9.34773 92.0909 13.4676V22.7463H88.5222V20.847C87.4705 22.1026 85.9284 23.0673 83.5915 23.0673C80.671 23.0673 78.101 21.4018 78.101 18.304V18.2462C78.101 14.9142 80.7592 13.2774 84.3514 13.2774C86.2205 13.2774 87.3248 13.5407 88.5222 13.9203V13.5407C88.5222 11.4072 87.2718 10.2382 84.8185 10.2382C83.2193 10.2382 81.9592 10.5681 80.671 11.0819V7.85191ZM94.232 22.7463V1.33398H97.8007V22.7463H94.232ZM99.9421 22.7463V1.33398H103.511L103.582 22.7463H99.9421ZM111.556 20.4079C113.892 20.4079 115.644 19.0932 115.644 17.1641V16.2C114.739 15.8494 113.483 15.5862 112.11 15.5862C109.89 15.5862 108.576 16.4916 108.576 18.0698V18.129C108.576 19.5898 109.89 20.4079 111.556 20.4079ZM107.793 7.85191C109.098 7.38092 110.546 7.08214 112.437 7.08214C116.993 7.08214 119.213 9.34773 119.213 13.4676V22.7463H115.644V20.847C114.593 22.1026 113.051 23.0673 110.714 23.0673C107.793 23.0673 105.223 21.4018 105.223 18.304V18.2462C105.223 14.9142 107.881 13.2774 111.474 13.2774C113.343 13.2774 114.447 13.5407 115.644 13.9203V13.5407C115.644 11.4072 114.394 10.2382 111.941 10.2382C110.342 10.2382 109.081 10.5681 107.793 11.0819V7.85191ZM121.354 22.7463V7.04392H124.923V10.5213C125.887 8.21285 127.625 6.63466 130.341 6.75163V10.4923H130.137C127.041 10.4923 124.923 12.5081 124.923 16.5996V22.7463H121.354ZM155.613 12.6253V22.7463H152.045V13.909C152.045 11.4541 150.941 9.93705 148.955 9.93705C147.027 9.93705 145.622 11.4246 145.622 13.909V22.7463H142.052V13.6777C142.052 11.2808 140.952 9.93705 138.995 9.93705C137.039 9.93705 135.629 11.5122 135.629 13.909V22.7463H132.06V7.04392H135.629V9.38151C136.623 8.00795 138.032 6.72207 140.398 6.72207C142.617 6.72207 144.166 7.80332 144.983 9.43935C146.239 7.80332 147.874 6.72207 150.211 6.72207C153.569 6.72207 155.613 8.85579 155.613 12.6253Z" fill="#fff"></path>
<path d="M0 8.19663L19.3101 0L19.3101 11.6603L37.1449 4.08982L37.1449 13.445L46.6667 9.40322V16.042L37.1449 20.0838L37.1449 16.5376L19.2915 24.1159V18.6547L0 26.8435V8.19663Z" fill="#FE8268"></path>
</svg>