<svg width="143" height="27" viewBox="0 0 143 27" fill="none" xmlns="http://www.w3.org/2000/svg">
<path fill-rule="evenodd" clip-rule="evenodd" d="M60.1549 7.31325H62.7695L66.0377 17.1149L68.6523 7.31325H71.9205L67.3449 21.6935H64.7304L61.4622 11.8887L58.194 21.6935H55.5794L51.0039 7.31325H54.2721L56.8867 17.1149L60.1549 7.31325ZM77.327 19.552C79.4668 19.552 81.0715 18.3479 81.0715 16.5813V15.6984C80.2426 15.3773 79.0922 15.1362 77.835 15.1362C75.802 15.1362 74.5984 15.9654 74.5984 17.4107V17.4649C74.5984 18.8027 75.802 19.552 77.327 19.552ZM73.8815 8.0532C75.0761 7.62187 76.4028 7.34825 78.1343 7.34825C82.3068 7.34825 84.3397 9.42307 84.3397 13.196V21.6935H81.0715V19.9541C80.1084 21.1039 78.6962 21.9874 76.5561 21.9874C73.8815 21.9874 71.5278 20.4622 71.5278 17.6252V17.5723C71.5278 14.5208 73.9622 13.0218 77.2519 13.0218C78.9637 13.0218 79.975 13.263 81.0715 13.6106V13.263C81.0715 11.3091 79.9264 10.2386 77.6797 10.2386C76.2152 10.2386 75.0612 10.5407 73.8815 11.0112V8.0532ZM86.3006 21.6935V2.08411H89.5688V21.6935H86.3006ZM91.5298 21.6935V2.08411H94.798L94.8633 21.6935H91.5298ZM102.165 19.552C104.305 19.552 105.91 18.3479 105.91 16.5813V15.6984C105.081 15.3773 103.931 15.1362 102.673 15.1362C100.64 15.1362 99.4369 15.9654 99.4369 17.4107V17.4649C99.4369 18.8027 100.64 19.552 102.165 19.552ZM98.7199 8.0532C99.9146 7.62187 101.241 7.34825 102.973 7.34825C107.145 7.34825 109.178 9.42307 109.178 13.196V21.6935H105.91V19.9541C104.947 21.1039 103.535 21.9874 101.395 21.9874C98.7199 21.9874 96.3663 20.4622 96.3663 17.6252V17.5723C96.3663 14.5208 98.8007 13.0218 102.09 13.0218C103.802 13.0218 104.813 13.263 105.91 13.6106V13.263C105.91 11.3091 104.765 10.2386 102.518 10.2386C101.054 10.2386 99.8997 10.5407 98.7199 11.0112V8.0532ZM111.139 21.6935V7.31325H114.407V10.4979C115.29 8.38374 116.882 6.93845 119.369 7.04556V10.4713H119.182C116.347 10.4713 114.407 12.3173 114.407 16.0643V21.6935H111.139ZM142.513 12.4246V21.6935H139.246V13.6002C139.246 11.3521 138.235 9.96276 136.416 9.96276C134.65 9.96276 133.363 11.3251 133.363 13.6002V21.6935H130.094V13.3884C130.094 11.1933 129.087 9.96276 127.294 9.96276C125.503 9.96276 124.212 11.4053 124.212 13.6002V21.6935H120.944V7.31325H124.212V9.454C125.122 8.1961 126.413 7.01849 128.579 7.01849C130.612 7.01849 132.03 8.0087 132.778 9.50697C133.928 8.0087 135.426 7.01849 137.566 7.01849C140.642 7.01849 142.513 8.97255 142.513 12.4246Z" fill="white"></path>
<path d="M0 8.36966L17.6841 0.863213V11.5416L34.0171 4.60866L34.0171 13.1761L42.7372 9.47465V15.5544L34.0171 19.2559L34.0171 16.0083L17.6671 22.9484V17.9471L0 25.4464V8.36966Z" fill="#FF441C"></path>
</svg>