<svg width="300" height="300" viewBox="0 0 300 300" xmlns="http://www.w3.org/2000/svg">
    <rect width="300" height="300" rx="150" fill="#000000"/>
    <g fill="#ffffff">
        <path d="M198.176 162.3H192.192L197.752 137.065H203.406C209.606 137.065 213.084 141.711 213.084 147.525C213.084 155.346 207.505 162.3 198.195 162.3H198.176ZM219.887 135.067C216.174 130.544 210.04 128 202.803 128H188.913L179.367 171.347H196.847C203.632 171.347 208.853 169.839 212.839 167.436C220.943 162.517 223.817 153.867 223.817 146.517C223.817 141.937 222.384 138.055 219.897 135.067" />
        <path d="M180.894 128H170.057L160.521 171.347H171.358L180.894 128Z" />
        <path d="M84.6831 155.12L93.9744 139.138L97.4892 155.12H84.6925H84.6831ZM89.5832 128L64.4044 171.347H75.2128L79.425 164.157H99.4775L101.061 171.347H111.869L102.38 128H89.5832ZM142.9 147.384H133.288L135.55 137.065H143.917C147.215 137.065 149.241 138.639 149.241 141.306C149.241 144.623 146.744 147.384 142.909 147.384H142.9ZM145.02 128H126.692L117.174 171.347H127.992L131.29 156.439H143.371C153.699 156.439 159.956 148.656 159.956 140.448C159.956 133.136 154.255 128.009 145.01 128.009" />
        <path d="M48.6205 147.384H38.0948L40.3752 137.065H50.1094C53.3133 137.065 55.1979 138.79 55.1979 141.306C55.1979 144.623 52.7667 147.384 48.6205 147.384V147.384ZM65.9875 140.288C65.9875 133.202 60.522 128 50.9669 128H31.5174L22 171.347H32.8367L36.1159 156.458H42.4578L48.7619 171.347H59.5703L52.8515 155.742C60.9084 154.479 65.9875 148.015 65.9875 140.288" />
    </g>
    <path d="M258.503 128H224.335C224.853 128.528 225.371 129.074 225.843 129.649C229.668 134.285 231.685 140.109 231.685 146.517C231.685 156.411 227.52 165.335 220.829 171.347H241.749L251.69 146.639H239.252L241.325 137.056H266.033L253.057 171.347H258.145C269.99 171.422 278 161.584 278 149.636C278 137.687 270.367 128 258.494 128" fill="#E95F26"/>
</svg>
