<svg width="64" height="64" viewBox="0 0 64 64" fill="none" xmlns="http://www.w3.org/2000/svg">
    <path fill-rule="evenodd" clip-rule="evenodd" d="M32.195 3.312C25.7599 3.3263 19.4761 5.26441 14.1509 8.87731C8.82566 12.4902 4.70238 17.6129 2.31081 23.5871C-0.0807686 29.5613 -0.631388 36.1141 0.729696 42.4037C2.09078 48.6932 5.30139 54.4321 9.949 58.883C11.0472 59.9314 12.485 60.5514 14.0013 60.6303C15.5176 60.7092 17.0119 60.2418 18.213 59.313C22.1824 56.3689 26.9934 54.7795 31.9355 54.7795C36.8776 54.7795 41.6886 56.3689 45.658 59.313C46.87 60.2724 48.3898 60.7578 49.9335 60.6787C51.4773 60.5995 52.9394 59.9613 54.047 58.883C58.6715 54.4555 61.8744 48.7524 63.2481 42.4993C64.6219 36.2462 64.1044 29.7257 61.7615 23.7676C59.4186 17.8094 55.3562 12.6829 50.0912 9.04033C44.8262 5.39774 38.5966 3.40373 32.195 3.312ZM32.015 51.587C29.8868 51.6559 27.767 51.2894 25.7856 50.5098C23.8041 49.7302 22.0028 48.554 20.4922 47.0534C18.9815 45.5528 17.7934 43.7594 17.0006 41.7831C16.2079 39.8069 15.8272 37.6896 15.882 35.561C15.8099 33.4101 16.1713 31.2666 16.9447 29.2582C17.7181 27.2498 18.8877 25.4175 20.3838 23.8704C21.8799 22.3234 23.672 21.0931 25.6533 20.2529C27.6347 19.4127 29.7648 18.9797 31.917 18.9797C34.0692 18.9797 36.1993 19.4127 38.1807 20.2529C40.1621 21.0931 41.9541 22.3234 43.4502 23.8704C44.9463 25.4175 46.1159 27.2498 46.8893 29.2582C47.6627 31.2666 48.0241 33.4101 47.952 35.561C48.0087 37.681 47.633 39.7903 46.8477 41.7604C46.0624 43.7304 44.884 45.5197 43.3844 47.0194C41.8847 48.519 40.0954 49.6974 38.1254 50.4827C36.1553 51.268 34.046 51.6437 31.926 51.587" fill="#81B5A1"/>
</svg>
