<svg width="1024" height="1024" viewBox="0 0 1024 1024" fill="none" xmlns="http://www.w3.org/2000/svg">
    <circle cx="512" cy="512" r="512" fill="#000099"/>
    <path d="M398.545 259.052L366.854 297.53C339.679 276.254 322.477 270.374 297.575 270.374C278.077 270.374 264.178 276.571 259.963 286.688V299.785C262.605 305.367 269.054 308.853 278.576 311.564C284.91 313.386 296.21 316.098 312.52 319.72C363.007 330.93 389.067 343.254 398.228 368.2C398.228 376.607 398.272 409.572 398.272 417.294C387.222 449.099 353.028 469.124 302.998 469.124C259.097 469.124 227.864 457.802 191.185 425.201L225.13 387.177C241.897 400.754 255.477 409.799 266.799 414.333C278.121 419.321 290.332 421.579 304.366 421.579C323.57 421.579 338.243 415.861 343.004 405.153V389.387C339.586 382.052 331.247 377.722 321.565 374.944C315.256 373.6 303.909 370.889 287.621 367.244C238.229 356.421 215.128 344.597 206.607 322.112V272.721C217.59 243.835 250.236 222.851 298.943 222.851C338.765 222.85 366.4 232.35 398.545 259.052Z" fill="#FEFEFE"/>
    <path d="M824.248 230.527V461.879H770.346V437.412C758.137 457.345 735.49 469.125 702.457 469.125C647.691 469.125 620.486 440.6 620.486 395.765V230.527H679.355V379.478C679.355 403.468 692.477 417.956 717.856 417.956C747.247 417.956 765.38 401.211 765.38 369.978V230.527H824.248Z" fill="#FEFEFE"/>
    <path d="M538.018 632.243V793.904H479.149V649.922C479.149 622.309 467.824 605.541 442.47 605.541C416.68 605.541 401.735 624.588 401.735 651.745V793.904H342.866V649.922C342.866 620.486 330.656 605.541 306.211 605.541C280.398 605.541 265.453 624.588 265.453 651.745V793.904H206.607V562.529H261.399V588.364C274.975 566.175 297.143 554.875 327.488 554.875C356.901 554.875 379.091 567.086 391.757 588.774C407.613 566.174 430.714 554.875 461.036 554.875C509.928 554.875 538.018 584.72 538.018 632.243Z" fill="#FEFEFE"/>
    <path d="M666.281 712.526C675.483 736.948 695.121 751.346 721.184 751.346C746.927 751.346 766.473 736.948 775.678 712.526C775.678 700.862 775.678 656.209 775.678 643.908C766.521 619.531 746.972 604.63 721.184 604.63C695.121 604.63 675.438 619.53 666.281 643.908C666.281 655.479 666.281 701.955 666.281 712.526ZM832.769 726.741C815.682 772.488 774.038 801.149 721.184 801.149C668.01 801.149 626.274 772.488 609.186 726.741V629.235C626.274 583.444 668.01 554.875 721.184 554.875C774.038 554.875 815.682 583.444 832.769 629.235V726.741Z" fill="#FEFEFE"/>
</svg>
