<svg width="40" height="40" viewBox="0 0 40 40" fill="none" xmlns="http://www.w3.org/2000/svg">
    <circle cx="20" cy="20" r="20" fill="#F7F7F8"/>
    <path d="M20 15C20.5523 15 21 14.5523 21 14C21 13.4477 20.5523 13 20 13C19.4477 13 19 13.4477 19 14C19 14.5523 19.4477 15 20 15Z" stroke="#959DAC" stroke-width="2" stroke-linecap="round" stroke-linejoin="round"/>
    <path d="M14.9998 24L17.9998 17.4641C16.0866 16.3595 15.4311 13.9131 16.5357 12C17.6403 10.0868 20.0866 9.43131 21.9998 10.5359C23.5917 11.455 24.3129 13.3031 23.8738 15" stroke="#F24444" stroke-width="2" stroke-linecap="round" stroke-linejoin="round"/>
    <path d="M15 25C15.5523 25 16 24.5523 16 24C16 23.4477 15.5523 23 15 23C14.4477 23 14 23.4477 14 24C14 24.5523 14.4477 25 15 25Z" stroke="#F24444" stroke-width="2" stroke-linecap="round" stroke-linejoin="round"/>
    <path d="M25 25C25.5523 25 26 24.5523 26 24C26 23.4477 25.5523 23 25 23C24.4477 23 24 23.4477 24 24C24 24.5523 24.4477 25 25 25Z" stroke="#959DAC" stroke-width="2" stroke-linecap="round" stroke-linejoin="round"/>
    <path d="M23.0159 26.2503C22.6018 25.8848 21.9699 25.9242 21.6044 26.3383C21.239 26.7523 21.2784 27.3843 21.6924 27.7497L23.0159 26.2503ZM23.2085 20.4227L22.3139 20.8696C22.4325 21.1071 22.6408 21.2877 22.8927 21.3715C23.1447 21.4553 23.4196 21.4355 23.6569 21.3164L23.2085 20.4227ZM28 24C28 25.6569 26.6569 27 25 27V29C27.7614 29 30 26.7614 30 24H28ZM25 21C26.6569 21 28 22.3431 28 24H30C30 21.2386 27.7614 19 25 19V21ZM25 27C24.2385 27 23.5454 26.7176 23.0159 26.2503L21.6924 27.7497C22.5733 28.5272 23.7326 29 25 29V27ZM23.6569 21.3164C24.0599 21.1143 24.5151 21 25 21V19C24.1967 19 23.435 19.1902 22.76 19.5289L23.6569 21.3164ZM19.1054 14.4469L22.3139 20.8696L24.103 19.9758L20.8946 13.5531L19.1054 14.4469Z" fill="#959DAC"/>
    <path d="M16.3976 27.7478L16.7469 28.6848L16.3976 27.7478ZM11.2522 25.3974L10.3152 25.7467L11.2522 25.3974ZM13.952 21.1889C14.4695 20.996 14.7326 20.4201 14.5396 19.9026C14.3467 19.3851 13.7708 19.122 13.2533 19.315L13.952 21.1889ZM20.0012 24C20.0013 23.4478 19.5536 23 19.0013 22.9999C18.449 22.9998 18.0013 23.4475 18.0012 23.9998L20.0012 24ZM16.0482 26.8109C14.4958 27.3897 12.768 26.6004 12.1891 25.048L10.3152 25.7467C11.2799 28.3341 14.1595 29.6496 16.7469 28.6848L16.0482 26.8109ZM12.1891 25.048C11.6103 23.4955 12.3996 21.7678 13.952 21.1889L13.2533 19.315C10.6659 20.2797 9.35043 23.1593 10.3152 25.7467L12.1891 25.048ZM18.0012 23.9998C18.001 25.218 17.2536 26.3614 16.0482 26.8109L16.7469 28.6848C18.7599 27.9343 20.0009 26.026 20.0012 24L18.0012 23.9998ZM25.0001 22.9999H19.0001V24.9999H25.0001V22.9999Z" fill="#959DAC"/>
</svg>
