<?xml version="1.0" encoding="utf-8"?>
<!-- Generator: Adobe Illustrator 16.0.4, SVG Export Plug-In . SVG Version: 6.00 Build 0)  -->
<!DOCTYPE svg PUBLIC "-//W3C//DTD SVG 1.1//EN" "http://www.w3.org/Graphics/SVG/1.1/DTD/svg11.dtd">
<svg version="1.1" id="Слой_1" xmlns="http://www.w3.org/2000/svg" xmlns:xlink="http://www.w3.org/1999/xlink" x="0px" y="0px"
	 width="390.961px" height="190.273px" viewBox="0 0 390.961 190.273" enable-background="new 0 0 390.961 190.273"
	 xml:space="preserve">
<g>
	<polygon fill="#FF5F00" points="356.041,51.343 356.041,14.385 282.132,47.222 282.132,0 207.372,33.213 207.372,107.968 
		281.285,75.134 281.285,96.763 355.134,63.954 355.134,77.083 390.652,61.307 390.652,35.971 	"/>
	<g>
		<path fill="#1E252B" d="M63.999,171.567l12.169-40.787h13.633l-19.493,59.945H58.14l-13.295-40.678l-13.409,40.678H19.267
			L0,130.78h13.972l11.943,40.787l13.182-41.013h11.606L63.999,171.567z"/>
		<path fill="#1E252B" d="M153.13,190.273v-82.254h13.635v82.254H153.13z"/>
		<path fill="#1E252B" d="M176.647,190.273v-82.254h13.634v82.254H176.647z"/>
		<path fill="#1E252B" d="M272.393,190.273h-13.634V130.78h13.634v13.408c3.719-8.901,10.592-14.986,21.07-14.535v14.423h-0.788
			c-11.944,0-20.282,7.771-20.282,23.547V190.273z"/>
		<path fill="#1E252B" d="M370.116,129.54c12.959,0,20.845,8.226,20.845,22.761v37.973h-13.633v-33.804
			c0-9.465-4.394-14.534-12.056-14.534c-7.437,0-12.733,5.181-12.733,14.76v33.578h-13.632v-33.915
			c0-9.242-4.508-14.423-12.059-14.423c-7.547,0-12.731,5.633-12.731,14.874v33.464h-13.634V130.78h13.634v9.013
			c3.832-5.296,9.015-10.254,18.142-10.254c8.564,0,14.534,4.169,17.69,10.477C354.794,133.708,361.102,129.54,370.116,129.54z"/>
		<path fill="#1E252B" d="M225.099,129.876c-7.294,0-12.735,1.152-17.769,2.969v12.454c4.97-1.981,9.685-3.253,15.853-3.253
			c9.466,0,14.649,4.507,14.649,12.732v1.465c-4.62-1.465-9.239-2.479-16.451-2.479c-13.857,0-24.113,6.311-24.113,19.158v0.223
			c0,11.944,9.915,18.366,21.183,18.366c9.015,0,15.211-3.72,19.269-8.562v7.323h13.521v-35.271
			C251.239,139.118,242.676,129.876,225.099,129.876z M238.057,168.75c0,7.438-6.761,12.507-15.774,12.507
			c-6.424,0-11.493-3.154-11.493-8.787v-0.229c0-6.085,5.069-9.576,13.634-9.576c5.295,0,10.142,1.016,13.634,2.367V168.75z"/>
		<path fill="#1E252B" d="M118.683,129.876c-7.706,0-13.338,1.297-18.613,3.296v12.464c5.287-2.175,10.18-3.591,16.699-3.591
			c9.465,0,14.649,4.507,14.649,12.732v1.465c-4.62-1.465-9.239-2.479-16.451-2.479c-13.859,0-24.113,6.311-24.113,19.158v0.223
			c0,11.944,9.916,18.366,21.183,18.366c9.014,0,15.211-3.72,19.268-8.562v7.323h13.521v-35.271
			C144.825,139.118,136.261,129.876,118.683,129.876z M131.642,168.75c0,7.438-6.76,12.507-15.774,12.507
			c-6.423,0-11.494-3.154-11.494-8.787v-0.229c0-6.085,5.071-9.576,13.635-9.576c5.295,0,10.141,1.016,13.634,2.367V168.75z"/>
	</g>
</g>
</svg>
