<svg version="1.1" xmlns="http://www.w3.org/2000/svg" xmlns:xlink="http://www.w3.org/1999/xlink" style="" xml:space="preserve" width="277" height="148"><rect id="backgroundrect" width="100%" height="100%" x="0" y="0" fill="none" stroke="none"/>
<style type="text/css">
	.st0{fill-rule:evenodd;clip-rule:evenodd;fill:#222222;}
	.st1{fill:#F26122;}
</style>

<g class="currentLayer" style=""><title>Layer 1</title><g id="svg_1" class="">
	<g id="svg_2">
		<path class="st0" d="M204.20156860351562,88.79999828338623 c-7,0 -11.600000381469727,3.700000047683716 -14.800000190734863,8.300000190734863 l0,0.10000000149011612 v-7.400000095367432 H179.6015625 v58.599998474121094 h9.800000190734863 v-21.299999237060547 l0,0 c3.0999999046325684,4.099999904632568 7.599999904632568,7.800000190734863 14.800000190734863,7.800000190734863 c10.399999618530273,0 20.399999618530273,-8.300000190734863 20.399999618530273,-22.899999618530273 C224.6015625,97.10000133514404 214.50155639648438,88.79999828338623 204.20156860351562,88.79999828338623 zM201.9015655517578,126.09999370574951 c-6.800000190734863,0 -12.800000190734863,-5.599999904632568 -12.800000190734863,-14.199999809265137 c0,-8.600000381469727 6,-14.300000190734863 12.800000190734863,-14.300000190734863 c6.800000190734863,0 12.5,5.599999904632568 12.5,14.199999809265137 C214.4015655517578,120.69999980926514 208.70156860351562,126.09999370574951 201.9015655517578,126.09999370574951 z" id="svg_3"/>
		<path class="st0" d="M155.20156860351562,89.89999675750732 c-5.199999809265137,0 -9.100000381469727,0.800000011920929 -12.699999809265137,2.0999999046325684 v8.800000190734863 c3.5,-1.399999976158142 7,-2.299999952316284 11.300000190734863,-2.299999952316284 c6.699999809265137,0 10.100000381469727,3.200000047683716 10.100000381469727,9 v1 c-3.299999952316284,-1 -6.300000190734863,-1.7999999523162842 -11.399999618530273,-1.7999999523162842 c-9.800000190734863,0 -17.100000381469727,4.5 -17.100000381469727,13.600000381469727 v0.20000000298023224 c0,8.5 7,13 15,13 c6.400000095367432,0 10.600000381469727,-2.5999999046325684 13.5,-6.099999904632568 v5.199999809265137 h9.800000190734863 v-25.399999618530273 C173.70156860351562,96.10000133514404 167.70156860351562,89.89999675750732 155.20156860351562,89.89999675750732 zM164.00155639648438,117.50000286102295 c0,5.300000190734863 -4.800000190734863,8.899999618530273 -11.199999809265137,8.899999618530273 c-4.599999904632568,0 -8.100000381469727,-2.200000047683716 -8.100000381469727,-6.199999809265137 v-0.20000000298023224 c0,-4.300000190734863 3.5999999046325684,-6.800000190734863 9.699999809265137,-6.800000190734863 c3.799999952316284,0 7.199999809265137,0.699999988079071 9.699999809265137,1.7000000476837158 V117.50000286102295 z" id="svg_4"/>
		<polygon class="st0" points="267.40155029296875,89.79999828338623 252.80157470703125,111.29999828338623 238.1015625,89.79999828338623 228.4015655517578,89.79999828338623 228.4015655517578,132.80000591278076 238.1015625,132.80000591278076 238.1015625,103.50000286102295 252.80157470703125,124.89999675750732 267.40155029296875,103.50000286102295 267.40155029296875,132.80000591278076 277.2015686035156,132.80000591278076 277.2015686035156,89.79999828338623 " id="svg_5"/>
		<path class="st0" d="M86.40156555175781,125.00000286102295 c-0.10000000149011612,0 -0.30000001192092896,0 -0.5,0 v8.399999618530273 c1,0.10000000149011612 2,0.20000000298023224 2.700000047683716,0.20000000298023224 c9.699999809265137,0 16.799999237060547,-3.799999952316284 16.799999237060547,-35.900001525878906 h13.699999809265137 v35.099998474121094 h9.800000190734863 v-42.900001525878906 l-33.20000076293945,0 C95.7015609741211,123.50000286102295 91.40156555175781,125.00000286102295 86.40156555175781,125.00000286102295 z" id="svg_6"/>
		<path class="st0" d="M61.501564025878906,89.89999675750732 c-5.199999809265137,0 -9.100000381469727,0.800000011920929 -12.699999809265137,2.0999999046325684 v8.800000190734863 c3.5,-1.399999976158142 7,-2.299999952316284 11.300000190734863,-2.299999952316284 c6.699999809265137,0 10.100000381469727,3.200000047683716 10.100000381469727,9 v1 c-3.299999952316284,-1 -6.300000190734863,-1.7999999523162842 -11.399999618530273,-1.7999999523162842 c-9.800000190734863,0 -17.100000381469727,4.5 -17.100000381469727,13.600000381469727 v0.20000000298023224 c0,8.5 7,13 15,13 c6.400000095367432,0 10.600000381469727,-2.5999999046325684 13.5,-6.099999904632568 v5.199999809265137 h9.800000190734863 v-25.399999618530273 C80.0015640258789,96.10000133514404 74.0015640258789,89.89999675750732 61.501564025878906,89.89999675750732 zM70.30155944824219,117.50000286102295 c0,5.300000190734863 -4.800000190734863,8.899999618530273 -11.199999809265137,8.899999618530273 c-4.599999904632568,0 -8.100000381469727,-2.200000047683716 -8.100000381469727,-6.199999809265137 v-0.20000000298023224 c0,-4.300000190734863 3.5999999046325684,-6.800000190734863 9.699999809265137,-6.800000190734863 c3.799999952316284,0 7.199999809265137,0.699999988079071 9.699999809265137,1.7000000476837158 V117.50000286102295 z" id="svg_7"/>
		<path class="st0" d="M29.001564025878906,110.39999675750732 c3.5999999046325684,-1.600000023841858 6.800000190734863,-4.400000095367432 6.800000190734863,-9.800000190734863 c0,-6.599999904632568 -5.900000095367432,-10.699999809265137 -14.300000190734863,-10.699999809265137 H0.0015621185302734375 v42.900001525878906 h22 c9.699999809265137,0 15.699999809265137,-4.5 15.699999809265137,-11.699999809265137 C37.701560974121094,114.89999675750732 34.1015625,111.89999675750732 29.001564025878906,110.39999675750732 zM9.801563262939453,97.60000133514404 h9.800000190734863 c4.300000190734863,0 6.400000095367432,1.899999976158142 6.400000095367432,4.699999809265137 c0,3.0999999046325684 -2.299999952316284,5.099999904632568 -6.400000095367432,5.099999904632568 h-9.800000190734863 V97.60000133514404 zM20.501564025878906,124.89999675750732 l-10.699999809265137,0 v-10.699999809265137 h10.300000190734863 c5.199999809265137,0 7.699999809265137,2.0999999046325684 7.699999809265137,5.199999809265137 C27.901561737060547,122.80000591278076 25.301563262939453,124.89999675750732 20.501564025878906,124.89999675750732 z" id="svg_8"/>
	</g>
	<polygon class="st1" points="144.50155639648438,23.499999046325684 199.1015625,0 199.1015625,35.19999980926514 249.80157470703125,11.699999809265137 249.80157470703125,39.10000133514404 277.2015686035156,27.40000057220459 277.2015686035156,46.90000057220459 249.80157470703125,58.60000133514404 249.80157470703125,46.90000057220459 199.1015625,70.29999828338623 199.1015625,54.69999980926514 144.50155639648438,78.10000133514404 " id="svg_9"/>
</g></g></svg>