<svg width="72" height="72" viewBox="0 0 72 72" fill="none" xmlns="http://www.w3.org/2000/svg">
<g clip-path="url(#clip0_1884_868)">
<path d="M50.8771 26.2548C51.3305 24.8114 51.5758 23.2691 51.5758 21.6667C51.5758 13.5665 45.3077 7 37.5758 7C32.5164 7 28.0839 9.8115 25.6241 14.0245C23.9082 12.9505 21.9017 12.3333 19.7576 12.3333C13.4314 12.3333 8.30305 17.7059 8.30305 24.3333C8.30305 24.8125 8.32986 25.2852 8.382 25.7497C4.02611 26.3608 0.666687 30.2694 0.666687 35C0.666687 40.1546 4.65542 44.3333 9.57577 44.3333H47.7576C52.6779 44.3333 56.6667 40.1546 56.6667 35C56.6667 30.9951 54.2589 27.5793 50.8771 26.2548Z" fill="#FEE1B4"/>
<path d="M66.8771 44.7158C67.3305 43.2724 67.5758 41.73 67.5758 40.1276C67.5758 32.0274 61.3077 25.4609 53.5758 25.4609C48.5164 25.4609 44.0839 28.2724 41.6241 32.4854C39.9082 31.4114 37.9017 30.7943 35.7576 30.7943C29.4314 30.7943 24.303 36.1668 24.303 42.7943C24.303 43.2735 24.3299 43.7461 24.382 44.2107C20.0261 44.8218 16.6667 48.7303 16.6667 53.4609C16.6667 58.6156 20.6554 62.7943 25.5758 62.7943H63.7576C68.6779 62.7943 72.6667 58.6156 72.6667 53.4609C72.6667 49.456 70.2589 46.0403 66.8771 44.7158Z" fill="#FC7303"/>
</g>
<defs>
<clipPath id="clip0_1884_868">
<rect width="72" height="72" fill="white" transform="translate(0.666687)"/>
</clipPath>
</defs>
</svg>
