<svg width="72" height="72" viewBox="0 0 72 72" fill="none" xmlns="http://www.w3.org/2000/svg">
<rect width="72" height="72" fill="white"/>
<path d="M50.4446 13H21.5175C19.012 13 17 14.9645 17 17.411V54.589C17 57.0355 19.012 59 21.5175 59H50.4825C52.988 59 55 57.0355 55 54.589V17.411C54.962 14.9645 52.95 13 50.4446 13ZM25.7313 52.5504V42.0975L31.0839 47.3239L25.7313 52.5504ZM45.8511 52.6616H40.8781L40.9161 52.5874V34.2764C40.9161 34.2764 42.0929 29.9025 25.8452 36.0556C25.8072 36.1297 25.7692 19.116 25.7692 19.116L31.046 19.079V29.9766C31.046 29.9766 45.8511 24.2683 45.8511 34.3135V52.6616ZM43.8771 25.6027H38.2587C40.2707 23.3787 42.1309 19.3014 42.1309 19.3014H47.9391C47.9391 19.3014 46.952 21.8961 43.8771 25.6027Z" fill="#6762A6"/>
</svg>
