<svg width="72" height="72" viewBox="0 0 72 72" fill="none" xmlns="http://www.w3.org/2000/svg">
<path d="M50.2104 26.2548C50.6638 24.8114 50.9091 23.2691 50.9091 21.6667C50.9091 13.5665 44.6411 7 36.9091 7C31.8497 7 27.4172 9.8115 24.9574 14.0245C23.2415 12.9505 21.235 12.3333 19.0909 12.3333C12.7647 12.3333 7.63636 17.7059 7.63636 24.3333C7.63636 24.8125 7.66317 25.2852 7.71531 25.7497C3.35942 26.3608 0 30.2694 0 35C0 40.1546 3.98873 44.3333 8.90909 44.3333H47.0909C52.0112 44.3333 56 40.1546 56 35C56 30.9951 53.5922 27.5793 50.2104 26.2548Z" fill="#3942EA"/>
<path d="M66.2104 44.7158C66.6638 43.2724 66.9091 41.73 66.9091 40.1276C66.9091 32.0274 60.6411 25.4609 52.9091 25.4609C47.8497 25.4609 43.4172 28.2724 40.9574 32.4854C39.2415 31.4114 37.235 30.7943 35.0909 30.7943C28.7647 30.7943 23.6364 36.1668 23.6364 42.7943C23.6364 43.2735 23.6632 43.7461 23.7153 44.2107C19.3594 44.8218 16 48.7303 16 53.4609C16 58.6156 19.9887 62.7943 24.9091 62.7943H63.0909C68.0112 62.7943 72 58.6156 72 53.4609C72 49.456 69.5922 46.0403 66.2104 44.7158Z" fill="#1C2752"/>
<rect x="22" y="22" width="28" height="28" rx="14" fill="white" fill-opacity="0.8"/>
<rect x="30.6667" y="36" width="10.6667" height="5.33333" stroke="#1C2752" stroke-width="1.33333" stroke-linecap="round"/>
<rect x="33.3333" y="30.6665" width="5.33333" height="5.33333" stroke="#1C2752" stroke-width="1.33333" stroke-linecap="round"/>
</svg>
