<svg width="72" height="72" viewBox="0 0 73 72" fill="none" xmlns="http://www.w3.org/2000/svg">
<rect width="72" height="72" transform="translate(0.333374)" fill="white"/>
<path d="M12.3334 19C12.3334 16.7909 14.1242 15 16.3334 15H36.3334V58H16.3334C14.1242 58 12.3334 56.2091 12.3334 54V19Z" fill="#FEE1B4"/>
<g clip-path="url(#clip0_1880_852)">
<path d="M44.6623 36.2206C44.8323 35.6793 44.9243 35.1009 44.9243 34.5C44.9243 31.4624 42.5738 29 39.6743 29C37.777 29 36.1148 30.0543 35.1924 31.6342C34.5489 31.2314 33.7965 31 32.9925 31C30.6202 31 28.697 33.0147 28.697 35.5C28.697 35.6797 28.7071 35.857 28.7266 36.0312C27.0932 36.2603 25.8334 37.726 25.8334 39.5C25.8334 41.433 27.3291 43 29.1743 43H43.4925C45.3376 43 46.8334 41.433 46.8334 39.5C46.8334 37.9982 45.9305 36.7173 44.6623 36.2206Z" stroke="#FC7303" stroke-width="2" stroke-linecap="round" stroke-linejoin="round"/>
</g>
<path d="M60.3334 19C60.3334 16.7909 58.5425 15 56.3334 15H36.3334V58H56.3334C58.5425 58 60.3334 56.2091 60.3334 54V19Z" fill="#FC7303"/>
<path d="M36.3334 9V63" stroke="#FC7303" stroke-linecap="round"/>
<mask id="mask0_1880_852" style="mask-type:alpha" maskUnits="userSpaceOnUse" x="36" y="15" width="25" height="43">
<path d="M60.3334 19C60.3334 16.7909 58.5425 15 56.3334 15H36.3334V58H56.3334C58.5425 58 60.3334 56.2091 60.3334 54V19Z" fill="#FC7303"/>
</mask>
<g mask="url(#mask0_1880_852)">
<g clip-path="url(#clip1_1880_852)">
<path d="M44.6623 36.2206C44.8323 35.6793 44.9243 35.1009 44.9243 34.5C44.9243 31.4624 42.5738 29 39.6743 29C37.777 29 36.1148 30.0543 35.1924 31.6342C34.5489 31.2314 33.7965 31 32.9925 31C30.6202 31 28.697 33.0147 28.697 35.5C28.697 35.6797 28.7071 35.857 28.7266 36.0312C27.0932 36.2603 25.8334 37.726 25.8334 39.5C25.8334 41.433 27.3291 43 29.1743 43H43.4925C45.3376 43 46.8334 41.433 46.8334 39.5C46.8334 37.9982 45.9305 36.7173 44.6623 36.2206Z" stroke="white" stroke-width="2" stroke-linecap="round" stroke-linejoin="round"/>
</g>
</g>
<defs>
<clipPath id="clip0_1880_852">
<rect width="24" height="24" fill="white" transform="translate(24.3334 24)"/>
</clipPath>
<clipPath id="clip1_1880_852">
<rect width="24" height="24" fill="white" transform="translate(24.3334 24)"/>
</clipPath>
</defs>
</svg>
