<svg width="72" height="72" viewBox="0 0 72 72" fill="none" xmlns="http://www.w3.org/2000/svg">
<rect width="72" height="72" fill="white"/>
<path d="M37.2255 16.5658L19.5511 23.4859C18.7846 23.786 18.2803 24.5251 18.2803 25.3483V54.7221C18.2803 55.8267 19.1757 56.7221 20.2803 56.7221H55.6291C56.7337 56.7221 57.6291 55.8267 57.6291 54.7221V25.3483C57.6291 24.5251 57.1248 23.786 56.3583 23.4859L38.6839 16.5658C38.2151 16.3822 37.6943 16.3822 37.2255 16.5658Z" fill="#FEE1B4"/>
<path d="M37.9535 13L16.288 21.2535C15.5125 21.5489 15 22.2926 15 23.1225V58C15 59.1046 15.8954 60 17 60H37.9535" stroke="#FC7303" stroke-width="2" stroke-linecap="round" stroke-linejoin="round"/>
<path d="M37.9531 16.2803V56.7221H55.6275C56.7321 56.7221 57.6275 55.8267 57.6275 54.7221V25.3483C57.6275 24.5251 57.1232 23.786 56.3567 23.4859L37.9531 16.2803Z" fill="#FC7303"/>
<g clip-path="url(#clip0_1373_7201)">
<path d="M30.1803 33.7666H32.8522M30.1803 45.7899H32.8522M28.6015 37.0457H47.3044C48.78 37.0457 49.9762 36.067 49.9762 34.8596V31.5806C49.9762 30.3733 48.78 29.3945 47.3044 29.3945H28.6015C27.1259 29.3945 25.9297 30.3733 25.9297 31.5806V34.8596C25.9297 36.067 27.1259 37.0457 28.6015 37.0457ZM28.6015 49.0689H47.3044C48.78 49.0689 49.9762 48.0902 49.9762 46.8829V43.6038C49.9762 42.3965 48.78 41.4178 47.3044 41.4178H28.6015C27.1259 41.4178 25.9297 42.3965 25.9297 43.6038V46.8829C25.9297 48.0902 27.1259 49.0689 28.6015 49.0689Z" stroke="#FC7303" stroke-width="2" stroke-linecap="round" stroke-linejoin="round"/>
</g>
<g clip-path="url(#clip1_1373_7201)">
<path d="M32.4883 33.7666H34.6744M32.4883 45.7899H34.6744M30.3023 37.0457H45.6046C46.8119 37.0457 47.7906 36.067 47.7906 34.8596V31.5806C47.7906 30.3733 46.8119 29.3945 45.6046 29.3945H30.3023C29.0949 29.3945 28.1162 30.3733 28.1162 31.5806V34.8596C28.1162 36.067 29.0949 37.0457 30.3023 37.0457ZM30.3023 49.0689H45.6046C46.8119 49.0689 47.7906 48.0902 47.7906 46.8829V43.6038C47.7906 42.3965 46.8119 41.4178 45.6046 41.4178H30.3023C29.0949 41.4178 28.1162 42.3965 28.1162 43.6038V46.8829C28.1162 48.0902 29.0949 49.0689 30.3023 49.0689Z" stroke="white" stroke-width="2" stroke-linecap="round" stroke-linejoin="round"/>
</g>
<path d="M34.6748 29.3936H37.9539" stroke="#FC7303" stroke-width="2" stroke-linecap="round"/>
<path d="M34.6748 37.0459H37.9539" stroke="#FC7303" stroke-width="2" stroke-linecap="round"/>
<path d="M34.6748 41.417H37.9539" stroke="#FC7303" stroke-width="2" stroke-linecap="round"/>
<path d="M34.6748 49.0684H37.9539" stroke="#FC7303" stroke-width="2" stroke-linecap="round"/>
<defs>
<clipPath id="clip0_1373_7201">
<rect width="13.1163" height="26.2326" fill="white" transform="translate(24.8369 26.1152)"/>
</clipPath>
<clipPath id="clip1_1373_7201">
<rect width="17.4884" height="26.2326" fill="white" transform="translate(37.9531 26.1152)"/>
</clipPath>
</defs>
</svg>
