<svg width="72" height="72" viewBox="0 0 72 72" fill="none" xmlns="http://www.w3.org/2000/svg">
<g clip-path="url(#clip0_7140_19206)">
<path d="M72 0H0V72H72V0Z" fill="white"/>
<path d="M53.0001 12C55.2092 12 57.0001 13.7909 57.0001 16V34L14.0001 34V16C14.0001 13.7909 15.791 12 18.0001 12L53.0001 12Z" fill="#FEE1B4"/>
<path d="M43.0001 43C41.3432 43 40.0001 38.9706 40.0001 34C40.0001 29.0294 41.3432 25 43.0001 25M43.0001 43C44.657 43 46.0001 38.9706 46.0001 34C46.0001 29.0294 44.657 25 43.0001 25M43.0001 43H29.0001C27.3401 43 26.0001 39 26.0001 34C26.0001 29 27.3401 25 29.0001 25L43.0001 25M36.0001 43C34.3401 43 33.0001 39 33.0001 34C33.0001 29 34.3401 25 36.0001 25" stroke="#FC7303" stroke-width="2" stroke-linecap="round" stroke-linejoin="round"/>
<path d="M53.0001 60C55.2092 60 57.0001 58.2091 57.0001 56V34L14.0001 34V56C14.0001 58.2091 15.791 60 18.0001 60L53.0001 60Z" fill="#FC7303"/>
<path d="M63.0001 34L9.00006 34" stroke="#FC7303" stroke-linecap="round"/>
<mask id="mask0_7140_19206" style="mask-type:alpha" maskUnits="userSpaceOnUse" x="14" y="34" width="43" height="26">
<path d="M53.0001 60C55.2092 60 57.0001 58.2091 57.0001 56V34L14.0001 34V56C14.0001 58.2091 15.791 60 18.0001 60L53.0001 60Z" fill="#FC7303"/>
</mask>
<g mask="url(#mask0_7140_19206)">
<path d="M43.0001 43C41.3432 43 40.0001 38.9706 40.0001 34C40.0001 29.0294 41.3432 25 43.0001 25M43.0001 43C44.657 43 46.0001 38.9706 46.0001 34C46.0001 29.0294 44.657 25 43.0001 25M43.0001 43H29.0001C27.3401 43 26.0001 39 26.0001 34C26.0001 29 27.3401 25 29.0001 25L43.0001 25M36.0001 43C34.3401 43 33.0001 39 33.0001 34C33.0001 29 34.3401 25 36.0001 25" stroke="white" stroke-width="2" stroke-linecap="round" stroke-linejoin="round"/>
</g>
<path fill-rule="evenodd" clip-rule="evenodd" d="M39.2941 50.1968H37.7085C37.6796 49.9917 37.6205 49.8095 37.5312 49.6502C37.4419 49.4885 37.3272 49.351 37.1873 49.2376C37.0473 49.1241 36.8856 49.0373 36.7022 48.9769C36.5212 48.9166 36.3245 48.8864 36.1122 48.8864C35.7285 48.8864 35.3942 48.9817 35.1094 49.1724C34.8247 49.3606 34.6039 49.6357 34.447 49.9977C34.2901 50.3573 34.2117 50.7941 34.2117 51.3081C34.2117 51.8366 34.2901 52.2807 34.447 52.6403C34.6063 52.9998 34.8283 53.2713 35.1131 53.4547C35.3978 53.6382 35.7272 53.7299 36.1013 53.7299C36.3113 53.7299 36.5055 53.7021 36.6841 53.6466C36.8651 53.5911 37.0256 53.5102 37.1656 53.4041C37.3055 53.2955 37.4214 53.1639 37.5131 53.0095C37.6072 52.855 37.6723 52.6789 37.7085 52.481L39.2941 52.4882C39.253 52.8285 39.1505 53.1567 38.9864 53.4728C38.8247 53.7866 38.6063 54.0677 38.3312 54.3163C38.0585 54.5624 37.7327 54.7579 37.3538 54.9027C36.9773 55.0451 36.5514 55.1163 36.076 55.1163C35.4147 55.1163 34.8235 54.9667 34.3022 54.6674C33.7834 54.3682 33.3731 53.935 33.0714 53.3679C32.7722 52.8007 32.6226 52.1142 32.6226 51.3081C32.6226 50.4997 32.7746 49.8119 33.0787 49.2448C33.3828 48.6777 33.7954 48.2457 34.3167 47.9489C34.838 47.6496 35.4244 47.5 36.076 47.5C36.5055 47.5 36.9037 47.5603 37.2705 47.681C37.6398 47.8017 37.9668 47.9778 38.2515 48.2095C38.5363 48.4388 38.768 48.7199 38.9465 49.0529C39.1275 49.386 39.2434 49.7673 39.2941 50.1968ZM40.4181 55.0154V47.6018H43.343C43.9053 47.6018 44.3843 47.7092 44.7801 47.924C45.1759 48.1363 45.4775 48.432 45.6851 48.8109C45.895 49.1873 46 49.6217 46 50.114C46 50.6063 45.8938 51.0407 45.6814 51.4172C45.4691 51.7937 45.1614 52.0869 44.7584 52.2968C44.3578 52.5068 43.8727 52.6118 43.3032 52.6118H41.9855V55.0154H40.4181ZM43.0498 51.3556H41.9855V48.8832H43.0425C43.3466 48.8832 43.5976 48.9351 43.7955 49.0389C43.9934 49.1403 44.1406 49.2839 44.2371 49.4697C44.336 49.6531 44.3855 49.8679 44.3855 50.114C44.3855 50.3578 44.336 50.5737 44.2371 50.762C44.1406 50.9478 43.9934 51.0938 43.7955 51.2C43.6 51.3038 43.3514 51.3556 43.0498 51.3556ZM26 47.6018V48.8941H28.2697V55.0154H29.819V48.8941H32.0887V47.6018H26Z" fill="white"/>
</g>
<defs>
<clipPath id="clip0_7140_19206">
<rect width="72" height="72" fill="white"/>
</clipPath>
</defs>
</svg>
