<svg width="72" height="72" viewBox="0 0 72 72" fill="none" xmlns="http://www.w3.org/2000/svg">
<rect width="72" height="72" fill="white"/>
<path fill-rule="evenodd" clip-rule="evenodd" d="M23.5071 14C18.2565 14 14 18.2565 14 23.5071V42.5212C14 46.828 16.8637 50.4659 20.7908 51.6346V57.6396C20.7908 58.7243 21.9997 59.3713 22.9023 58.7696L33.0142 52.0284H47.9538C53.2045 52.0284 57.461 47.7718 57.461 42.5212V23.5071C57.461 18.2565 53.2045 14 47.9538 14H23.5071Z" fill="#FEE1B4"/>
<path d="M34.4335 37.2742V37.0118C34.4387 36.1115 34.5184 35.3939 34.6727 34.8588C34.8322 34.3238 35.0638 33.8916 35.3673 33.5624C35.6708 33.2331 36.0361 32.9348 36.4631 32.6672C36.782 32.4615 37.0675 32.2479 37.3196 32.0268C37.5717 31.8056 37.7724 31.5612 37.9215 31.2936C38.0707 31.021 38.1453 30.7175 38.1453 30.3831C38.1453 30.0281 38.0604 29.7169 37.8907 29.4493C37.7209 29.1819 37.4919 28.9761 37.2039 28.832C36.9209 28.688 36.6071 28.6159 36.2624 28.6159C35.928 28.6159 35.6116 28.6905 35.3132 28.8397C35.0149 28.9838 34.7705 29.1998 34.5802 29.4879C34.3898 29.7709 34.2869 30.1233 34.2715 30.5451H31.123C31.1488 29.5163 31.3957 28.6674 31.8638 27.9986C32.332 27.3247 32.9519 26.8231 33.7236 26.4938C34.4953 26.1594 35.3467 25.9922 36.2778 25.9922C37.3016 25.9922 38.2071 26.162 38.9942 26.5015C39.7813 26.8359 40.3986 27.3221 40.8462 27.96C41.2938 28.5979 41.5176 29.3671 41.5176 30.2673C41.5176 30.8692 41.4173 31.4042 41.2166 31.8724C41.0211 32.3354 40.7459 32.747 40.391 33.1071C40.0359 33.4621 39.6167 33.7836 39.1331 34.0717C38.7266 34.3135 38.3923 34.5656 38.1299 34.828C37.8727 35.0903 37.6797 35.3939 37.5511 35.7386C37.4277 36.0832 37.3634 36.5077 37.3582 37.0118V37.2742H34.4335ZM35.9615 42.2129C35.447 42.2129 35.0071 42.0328 34.6419 41.6727C34.2818 41.3075 34.1043 40.8702 34.1095 40.3609C34.1043 39.8567 34.2818 39.4246 34.6419 39.0644C35.0071 38.7043 35.447 38.5243 35.9615 38.5243C36.4502 38.5243 36.8798 38.7043 37.2502 39.0644C37.6206 39.4246 37.8084 39.8567 37.8135 40.3609C37.8084 40.7005 37.7184 41.0117 37.5434 41.2947C37.3737 41.5724 37.1499 41.7962 36.872 41.966C36.5943 42.1306 36.2907 42.2129 35.9615 42.2129Z" fill="#FC7303"/>
</svg>
